<svg width="160" height="160" viewBox="0 0 160 160" fill="none" xmlns="http://www.w3.org/2000/svg">
<path d="M72.2338 40.6403C65.6539 29.2793 50.9609 23.7318 38.1792 26.7682C25.3975 29.8045 15.0886 40.5288 11.3199 53.1058C7.5513 65.6829 9.94855 79.6846 16.532 91.0456C23.1154 102.407 33.6043 111.213 45.3673 117.056C76.3228 132.439 119.282 131.957 144.032 107.821C149.309 102.673 157.052 96.5499 158.517 86.6206C160.133 75.6733 155.691 68.3918 148.895 61.9342C140.051 53.5232 126.719 56.2321 116.921 58.8763C107.123 61.5205 97.8944 66.5463 89.5652 60.7722" fill="#EDF3FF"/>
<path d="M160 159.892C160 159.947 124.178 159.986 80.0018 159.986C35.8255 159.986 0 159.947 0 159.892C0 159.838 35.8111 159.799 80.0018 159.799C124.192 159.799 160 159.842 160 159.892Z" fill="#263238"/>
<path d="M45.208 47.4471C45.208 47.4471 46.1871 41.5795 46.421 41.1334C46.655 40.6873 49.3582 37.946 49.6785 37.8956C49.9989 37.8452 54.2643 36.4997 54.0267 37.1761C53.7891 37.8524 50.7872 38.7374 50.7872 38.7374L50.5028 39.0972C50.5028 39.0972 53.0621 38.2625 53.6956 38.2841C54.3291 38.3057 54.3867 38.9137 53.9295 39.0864C53.4724 39.2591 51.2191 39.9174 51.1327 40.0613C51.0463 40.2052 53.6524 39.4605 53.9691 39.4749C54.4083 39.4929 54.725 40.0469 54.2787 40.2376C54.0123 40.3455 51.5071 40.9211 51.5071 40.9211C52.2796 40.8197 53.057 40.7596 53.8359 40.7413C54.2211 40.8456 54.1959 41.3133 53.7639 41.4248C53.4724 41.5003 51.9426 41.5687 51.5539 41.673C51.5539 41.673 51.2623 41.9177 51.2731 42.6947C51.2839 43.4718 50.2761 45.5332 50.2761 45.5332L45.208 47.4471Z" fill="#FFBE9D"/>
<path d="M54.0233 37.158C53.8516 37.3778 53.6389 37.5623 53.397 37.7012C53.1445 37.8714 52.877 38.0183 52.5979 38.1402C52.2812 38.2589 51.9284 38.3812 51.5613 38.4999L50.773 38.7661L50.8162 38.7409C50.3664 39.2281 49.8789 39.6792 49.3584 40.09C49.7586 39.565 50.1991 39.0718 50.6758 38.615V38.597H50.701L51.4785 38.3236L52.5115 37.9639C52.7843 37.8531 53.0489 37.7233 53.3034 37.5753C53.757 37.3343 54.0053 37.1328 54.0233 37.158Z" fill="#EB996E"/>
<path d="M110.857 111.886L52.7546 105.904C51.903 105.813 51.1219 105.389 50.5823 104.724C50.0427 104.059 49.7884 103.208 49.875 102.357L59.9284 4.72623C60.0546 3.51566 60.6559 2.40452 61.6006 1.6364C62.5452 0.868285 63.756 0.505872 64.9676 0.628618L120.371 6.33074C121.582 6.45691 122.694 7.05795 123.462 8.00208C124.231 8.94621 124.593 10.1564 124.47 11.3673L114.392 108.998C114.304 109.848 113.883 110.629 113.22 111.17C112.558 111.711 111.709 111.969 110.857 111.886Z" fill="#5473E3"/>
<path opacity="0.4" d="M110.857 111.887L52.7546 105.904C51.903 105.813 51.1219 105.389 50.5823 104.724C50.0427 104.06 49.7884 103.208 49.875 102.357L59.9284 4.72629C60.0546 3.51572 60.6559 2.40458 61.6006 1.63646C62.5452 0.868346 63.756 0.505933 64.9676 0.628679L120.371 6.3308C121.582 6.45697 122.694 7.05801 123.462 8.00214C124.231 8.94627 124.593 10.1565 124.47 11.3674L114.392 108.998C114.304 109.848 113.883 110.629 113.22 111.17C112.558 111.712 111.709 111.969 110.857 111.887Z" fill="#171E25" fill-opacity="0.8"/>
<path d="M104.992 111.282L46.8785 105.303C46.0262 105.212 45.2445 104.788 44.7048 104.122C44.1651 103.456 43.9113 102.604 43.9989 101.752L54.0774 4.12174C54.139 3.52195 54.3183 2.94016 54.6049 2.40961C54.8915 1.87905 55.2798 1.41013 55.7478 1.02961C56.2158 0.649097 56.7541 0.36445 57.3322 0.191928C57.9102 0.0194055 58.5166 -0.0376112 59.1167 0.0241337L114.505 5.71546C115.105 5.77703 115.688 5.95615 116.218 6.2426C116.749 6.52905 117.218 6.91722 117.599 7.38492C117.98 7.85263 118.265 8.39072 118.437 8.96846C118.61 9.54619 118.667 10.1523 118.605 10.752L108.527 108.386C108.44 109.238 108.02 110.02 107.357 110.563C106.695 111.106 105.844 111.364 104.992 111.282Z" fill="#5473E3"/>
<path d="M75.4529 84.7076L55.4163 82.6452C54.9377 82.5959 54.5099 82.9437 54.4606 83.422L53.6486 91.3021C53.5993 91.7804 53.9473 92.2081 54.4258 92.2574L74.4625 94.3198C74.941 94.369 75.3689 94.0212 75.4182 93.5429L76.2302 85.6628C76.2795 85.1845 75.9315 84.7569 75.4529 84.7076Z" fill="#5473E3"/>
<g opacity="0.4">
<path opacity="0.4" d="M75.4482 84.7158L55.4124 82.6458C54.9338 82.5963 54.5061 82.944 54.457 83.4223L53.648 91.3027C53.5989 91.781 53.947 92.2089 54.4255 92.2583L74.4614 94.3283C74.9399 94.3778 75.3677 94.0301 75.4168 93.5518L76.2258 85.6713C76.2749 85.193 75.9268 84.7652 75.4482 84.7158Z" fill="black"/>
</g>
<path d="M58.1109 10.9388L55.8818 32.5716L111.058 38.251L113.287 16.6182L58.1109 10.9388Z" fill="#FAFAFA"/>
<path d="M111.062 38.2518C111.062 38.2518 111.062 38.1186 111.094 37.8668C111.126 37.615 111.155 37.2372 111.202 36.748C111.299 35.7622 111.443 34.316 111.63 32.4489C111.99 28.7182 112.548 23.3183 113.225 16.6197L113.282 16.6916L58.1061 11.0327L58.2105 10.9499C57.4294 18.5048 56.6736 25.8258 55.9753 32.582L55.8961 32.4813L95.4362 36.5969L106.919 37.8021L109.996 38.133L110.792 38.2194L111.065 38.2518C111.065 38.2518 110.975 38.2518 110.799 38.2302L110.014 38.1546L106.955 37.8524L95.4722 36.6976L55.8781 32.6612H55.7881V32.5748C56.4828 25.815 57.2279 18.5048 58.0126 10.9391V10.8456H58.1061L113.297 16.5549H113.362V16.6197C112.642 23.3363 112.084 28.7506 111.691 32.4885C111.493 34.3448 111.331 35.7874 111.234 36.766C111.18 37.2516 111.141 37.6222 111.112 37.874L111.062 38.2518Z" fill="#263238"/>
<path d="M66.7098 42.3996L58.8219 41.5877C58.4106 41.5453 58.0428 41.8443 58.0004 42.2554L57.1881 50.1391C57.1457 50.5502 57.4448 50.9178 57.8561 50.9601L65.7441 51.772C66.1554 51.8143 66.5231 51.5154 66.5655 51.1043L67.3779 43.2206C67.4202 42.8095 67.1211 42.4419 66.7098 42.3996Z" fill="#5473E3"/>
<g opacity="0.4">
<path opacity="0.4" d="M66.7124 42.4029L58.8248 41.588C58.4135 41.5455 58.0459 41.8443 58.0037 42.2554L57.1943 50.1394C57.1521 50.5505 57.4513 50.9182 57.8626 50.9607L65.7502 51.7756C66.1615 51.8181 66.5291 51.5193 66.5713 51.1082L67.3807 43.2242C67.4229 42.8131 67.1237 42.4454 66.7124 42.4029Z" fill="black"/>
</g>
<path d="M65.2645 42.2522L57.3766 41.4403C56.9653 41.3979 56.5975 41.6969 56.5551 42.108L55.7428 49.9917C55.7004 50.4028 55.9995 50.7704 56.4108 50.8127L64.2987 51.6246C64.7101 51.6669 65.0778 51.368 65.1202 50.9569L65.9325 43.0732C65.9749 42.6621 65.6758 42.2945 65.2645 42.2522Z" fill="#263238"/>
<path d="M61.7006 44.6085L61.301 48.5263L60.394 48.4327L60.7215 45.2525L59.9404 45.1698L60.016 44.4503L61.7006 44.6085Z" fill="white"/>
<path d="M79.7899 43.7493L71.902 42.9374C71.4907 42.895 71.1229 43.194 71.0805 43.6051L70.2682 51.4888C70.2258 51.8999 70.5249 52.2675 70.9362 52.3098L78.8241 53.1217C79.2354 53.164 79.6032 52.8651 79.6456 52.454L80.4579 44.5703C80.5003 44.1592 80.2012 43.7916 79.7899 43.7493Z" fill="#5473E3"/>
<g opacity="0.4">
<path opacity="0.4" d="M79.7905 43.7528L71.9029 42.9379C71.4916 42.8954 71.124 43.1942 71.0818 43.6053L70.2724 51.4894C70.2302 51.9005 70.5294 52.2682 70.9407 52.3107L78.8283 53.1256C79.2396 53.1681 79.6073 52.8693 79.6495 52.4582L80.4588 44.5741C80.501 44.163 80.2018 43.7953 79.7905 43.7528Z" fill="black"/>
</g>
<path d="M78.3407 43.5985L70.4528 42.7866C70.0414 42.7443 69.6737 43.0432 69.6313 43.4543L68.819 51.338C68.7766 51.7491 69.0757 52.1167 69.487 52.159L77.3749 52.9709C77.7862 53.0133 78.154 52.7143 78.1964 52.3032L79.0087 44.4195C79.0511 44.0084 78.752 43.6408 78.3407 43.5985Z" fill="#394657"/>
<path d="M75.866 49.2711L75.7904 49.9906L72.8389 49.6884L72.9001 49.102L74.5522 47.8321C74.9338 47.5407 75.0165 47.3464 75.0345 47.1557C75.0669 46.85 74.8726 46.6485 74.4586 46.6053C74.3025 46.5833 74.1434 46.6 73.9952 46.6539C73.8471 46.7079 73.7145 46.7975 73.6092 46.9147L72.9936 46.4218C73.197 46.2006 73.452 46.0332 73.7359 45.9346C74.0199 45.8361 74.3238 45.8094 74.6206 45.857C75.4917 45.947 76.028 46.4506 75.9524 47.1593C75.9164 47.5407 75.7724 47.8789 75.1749 48.325L74.1887 49.0804L75.866 49.2711Z" fill="white"/>
<path d="M93.3465 45.1447L85.4586 44.3328C85.0473 44.2905 84.6795 44.5894 84.6372 45.0005L83.8248 52.8842C83.7825 53.2953 84.0815 53.6629 84.4929 53.7052L92.3808 54.5172C92.7921 54.5595 93.1599 54.2606 93.2022 53.8495L94.0146 45.9658C94.0569 45.5547 93.7578 45.1871 93.3465 45.1447Z" fill="#5473E3"/>
<g opacity="0.4">
<path opacity="0.4" d="M93.3491 45.148L85.4615 44.3331C85.0502 44.2906 84.6826 44.5894 84.6404 45.0005L83.831 52.8846C83.7888 53.2957 84.088 53.6634 84.4993 53.7059L92.3869 54.5208C92.7982 54.5633 93.1658 54.2645 93.2081 53.8534L94.0174 45.9693C94.0596 45.5582 93.7604 45.1905 93.3491 45.148Z" fill="black"/>
</g>
<path d="M91.9012 44.9939L84.0133 44.182C83.602 44.1397 83.2342 44.4386 83.1919 44.8497L82.3795 52.7334C82.3371 53.1445 82.6362 53.5121 83.0476 53.5544L90.9355 54.3663C91.3468 54.4087 91.7146 54.1097 91.7569 53.6986L92.5693 45.8149C92.6116 45.4038 92.3125 45.0363 91.9012 44.9939Z" fill="#394657"/>
<path d="M89.4381 50.2028C89.3698 50.8611 88.801 51.4116 87.6888 51.3C87.1636 51.2528 86.6634 51.0541 86.249 50.728L86.6702 50.0697C86.9718 50.3354 87.3497 50.4991 87.75 50.5373C88.2035 50.5841 88.5023 50.4294 88.5347 50.1092C88.5671 49.7891 88.3655 49.6092 87.8544 49.5552L87.4404 49.5121L87.5016 48.9149L88.3979 48.0874L86.735 47.9183L86.8105 47.1988L89.5461 47.4794L89.4849 48.0658L88.4987 48.9796C88.7828 49.0233 89.039 49.1749 89.214 49.4028C89.389 49.6306 89.4693 49.9172 89.4381 50.2028V50.2028Z" fill="white"/>
<path d="M106.907 46.5402L99.0192 45.7283C98.6079 45.6859 98.2401 45.9849 98.1977 46.396L97.3854 54.2797C97.343 54.6908 97.6421 55.0583 98.0534 55.1007L105.941 55.9126C106.353 55.9549 106.72 55.656 106.763 55.2449L107.575 47.3612C107.617 46.9501 107.318 46.5825 106.907 46.5402Z" fill="#5473E3"/>
<g opacity="0.4">
<path opacity="0.4" d="M106.908 46.5432L99.0201 45.7283C98.6088 45.6858 98.2412 45.9846 98.199 46.3958L97.3896 54.2798C97.3474 54.6909 97.6466 55.0586 98.0579 55.1011L105.946 55.916C106.357 55.9585 106.724 55.6597 106.767 55.2486L107.576 47.3645C107.618 46.9534 107.319 46.5857 106.908 46.5432Z" fill="black"/>
</g>
<path d="M105.491 46.3884L97.6032 45.5765C97.1918 45.5341 96.8241 45.8331 96.7817 46.2442L95.9693 54.1279C95.927 54.539 96.2261 54.9066 96.6374 54.9489L104.525 55.7608C104.937 55.8031 105.304 55.5042 105.347 55.0931L106.159 47.2094C106.201 46.7983 105.902 46.4307 105.491 46.3884Z" fill="#394657"/>
<path d="M98.9402 50.1198L98.9033 50.4776L103.093 50.9088L103.129 50.551L98.9402 50.1198Z" fill="white"/>
<path d="M101.889 48.7637C101.875 48.8982 101.822 49.0257 101.736 49.1301C101.65 49.2344 101.535 49.311 101.406 49.35C101.276 49.389 101.138 49.3887 101.009 49.3492C100.879 49.3097 100.764 49.2327 100.679 49.1281C100.593 49.0234 100.541 48.8957 100.528 48.7611C100.515 48.6265 100.542 48.4911 100.606 48.372C100.67 48.2529 100.768 48.1554 100.887 48.092C101.007 48.0285 101.142 48.0019 101.277 48.0154C101.457 48.0336 101.623 48.1226 101.738 48.2629C101.853 48.4033 101.907 48.5834 101.889 48.7637Z" fill="white"/>
<path d="M101.514 52.4153C101.5 52.5499 101.447 52.6775 101.361 52.7819C101.274 52.8863 101.159 52.9627 101.029 53.0015C100.9 53.0403 100.761 53.0398 100.632 53C100.503 52.9601 100.388 52.8828 100.303 52.7777C100.217 52.6727 100.165 52.5447 100.152 52.4099C100.14 52.2752 100.168 52.1397 100.232 52.0208C100.297 51.9018 100.395 51.8047 100.515 51.7417C100.635 51.6787 100.771 51.6527 100.905 51.667C101.085 51.686 101.25 51.7755 101.364 51.9157C101.478 52.0559 101.532 52.2355 101.514 52.4153V52.4153Z" fill="white"/>
<path d="M65.2977 56.1339L57.4098 55.322C56.9985 55.2796 56.6307 55.5786 56.5883 55.9897L55.776 63.8734C55.7336 64.2845 56.0327 64.652 56.444 64.6944L64.3319 65.5063C64.7433 65.5486 65.111 65.2497 65.1534 64.8386L65.9658 56.9549C66.0081 56.5438 65.709 56.1762 65.2977 56.1339Z" fill="#5473E3"/>
<g opacity="0.4">
<path opacity="0.4" d="M65.2964 56.1369L57.4088 55.322C56.9975 55.2795 56.6298 55.5783 56.5876 55.9894L55.7783 63.8735C55.7361 64.2846 56.0353 64.6523 56.4466 64.6948L64.3342 65.5097C64.7455 65.5522 65.1131 65.2534 65.1553 64.8422L65.9647 56.9582C66.0069 56.5471 65.7077 56.1794 65.2964 56.1369Z" fill="black"/>
</g>
<path d="M63.8504 55.9865L55.9625 55.1746C55.5512 55.1322 55.1834 55.4312 55.1411 55.8423L54.3287 63.726C54.2864 64.1371 54.5855 64.5046 54.9968 64.547L62.8847 65.3589C63.296 65.4012 63.6638 65.1023 63.7061 64.6912L64.5185 56.8075C64.5608 56.3964 64.2617 56.0288 63.8504 55.9865Z" fill="#263238"/>
<path d="M61.11 61.5423L60.4729 61.4775L60.3865 62.2978L59.5047 62.2078L59.591 61.3876L57.4854 61.1681L57.5465 60.5601L59.645 58.2721L60.5953 58.3728L58.6444 60.5314L59.6954 60.6393L59.771 59.9198L60.6241 60.0061L60.5485 60.7256L61.1856 60.7904L61.11 61.5423Z" fill="white"/>
<path d="M78.3739 57.4799L70.486 56.668C70.0746 56.6257 69.7069 56.9246 69.6645 57.3357L68.8522 65.2194C68.8098 65.6305 69.1089 65.9981 69.5202 66.0404L77.4081 66.8524C77.8194 66.8947 78.1872 66.5958 78.2296 66.1847L79.0419 58.301C79.0843 57.8899 78.7852 57.5223 78.3739 57.4799Z" fill="#5473E3"/>
<g opacity="0.4">
<path opacity="0.4" d="M78.3745 57.4832L70.4869 56.6683C70.0756 56.6258 69.708 56.9246 69.6658 57.3358L68.8564 65.2198C68.8142 65.6309 69.1134 65.9986 69.5247 66.0411L77.4123 66.856C77.8236 66.8985 78.1912 66.5997 78.2334 66.1886L79.0428 58.3045C79.085 57.8934 78.7858 57.5257 78.3745 57.4832Z" fill="black"/>
</g>
<path d="M76.9305 57.3291L69.0426 56.5172C68.6313 56.4749 68.2635 56.7738 68.2212 57.1849L67.4088 65.0686C67.3664 65.4797 67.6655 65.8473 68.0768 65.8896L75.9648 66.7015C76.3761 66.7439 76.7439 66.4449 76.7862 66.0339L77.5986 58.1501C77.6409 57.739 77.3418 57.3715 76.9305 57.3291Z" fill="#394657"/>
<path d="M74.0684 62.4667C74 63.1575 73.4277 63.7079 72.3119 63.5928C71.7868 63.545 71.2867 63.3463 70.8721 63.0208L71.3004 62.366C71.6016 62.6319 71.98 62.7945 72.3802 62.8301C72.8338 62.8769 73.1325 62.7186 73.1649 62.3984C73.1973 62.0782 73.0174 61.8695 72.3083 61.7976L71.3076 61.6933L71.7359 59.5347L74.1188 59.7794L74.0468 60.4989L72.4162 60.3298L72.2759 61.0673L72.5962 61.0997C73.7372 61.2076 74.1404 61.7724 74.0684 62.4667Z" fill="white"/>
<path d="M91.9364 58.8754L84.0485 58.0635C83.6372 58.0211 83.2694 58.3201 83.227 58.7312L82.4147 66.6149C82.3723 67.026 82.6714 67.3936 83.0827 67.4359L90.9706 68.2478C91.3819 68.2901 91.7497 67.9912 91.7921 67.5801L92.6044 59.6964C92.6468 59.2853 92.3477 58.9177 91.9364 58.8754Z" fill="#5473E3"/>
<g opacity="0.4">
<path opacity="0.4" d="M91.9351 58.8787L84.0475 58.0638C83.6362 58.0213 83.2685 58.3201 83.2263 58.7312L82.4169 66.6152C82.3747 67.0263 82.674 67.394 83.0853 67.4365L90.9729 68.2514C91.3842 68.2939 91.7518 67.9951 91.794 67.584L92.6034 59.7C92.6456 59.2889 92.3464 58.9212 91.9351 58.8787Z" fill="black"/>
</g>
<path d="M90.4852 58.7243L82.5973 57.9124C82.186 57.8701 81.8182 58.169 81.7758 58.5801L80.9635 66.4638C80.9211 66.8749 81.2202 67.2425 81.6315 67.2848L89.5194 68.0967C89.9308 68.1391 90.2985 67.8401 90.3409 67.4291L91.1533 59.5453C91.1956 59.1343 90.8965 58.7667 90.4852 58.7243Z" fill="#394657"/>
<path d="M87.9132 63.8842C87.8304 64.6828 87.1249 65.1181 86.3006 65.0318C85.2208 64.9203 84.6233 64.1756 84.7528 62.9164C84.8932 61.5637 85.7859 60.8946 86.9629 61.0169C87.3448 61.046 87.7117 61.1778 88.0248 61.3983L87.6216 62.0278C87.4145 61.8667 87.1637 61.7714 86.9017 61.7544C86.2466 61.6897 85.7895 62.0314 85.6851 62.7761C85.8271 62.6705 85.9887 62.5942 86.1605 62.5516C86.3323 62.509 86.5108 62.5009 86.6858 62.5279C86.8576 62.5297 87.0272 62.567 87.184 62.6375C87.3407 62.708 87.4811 62.8102 87.5964 62.9376C87.7117 63.065 87.7994 63.2148 87.8539 63.3777C87.9084 63.5407 87.9286 63.7131 87.9132 63.8842V63.8842ZM87.0313 63.8374C87.0406 63.7537 87.0318 63.6691 87.0057 63.5891C86.9795 63.5091 86.9365 63.4356 86.8795 63.3736C86.8226 63.3116 86.753 63.2624 86.6755 63.2295C86.598 63.1966 86.5144 63.1806 86.4302 63.1826C86.3474 63.165 86.2619 63.1647 86.179 63.1816C86.0961 63.1985 86.0176 63.2323 85.9483 63.281C85.8791 63.3296 85.8206 63.3919 85.7765 63.4641C85.7325 63.5364 85.7038 63.6169 85.6923 63.7007C85.6563 64.0353 85.8831 64.3051 86.3186 64.3518C86.399 64.3684 86.4819 64.3679 86.562 64.3504C86.6421 64.3329 86.7177 64.2988 86.7838 64.2504C86.85 64.2019 86.9052 64.1401 86.946 64.0689C86.9867 63.9978 87.0121 63.9189 87.0205 63.8374H87.0313Z" fill="white"/>
<path d="M105.489 60.2703L97.6012 59.4584C97.1899 59.4161 96.8221 59.715 96.7797 60.1261L95.9674 68.0098C95.925 68.4209 96.2241 68.7885 96.6354 68.8308L104.523 69.6427C104.935 69.6851 105.302 69.3861 105.345 68.975L106.157 61.0913C106.2 60.6802 105.9 60.3127 105.489 60.2703Z" fill="#5473E3"/>
<g opacity="0.4">
<path opacity="0.4" d="M105.488 60.2736L97.6002 59.4587C97.1889 59.4162 96.8213 59.715 96.7791 60.1261L95.9697 68.0101C95.9275 68.4213 96.2267 68.789 96.638 68.8315L104.526 69.6464C104.937 69.6889 105.305 69.39 105.347 68.9789L106.156 61.0949C106.198 60.6838 105.899 60.3161 105.488 60.2736Z" fill="black"/>
</g>
<path d="M104.042 60.1195L96.1539 59.3076C95.7426 59.2653 95.3748 59.5642 95.3325 59.9753L94.5201 67.859C94.4778 68.2701 94.7769 68.6377 95.1882 68.68L103.076 69.492C103.487 69.5343 103.855 69.2354 103.898 68.8243L104.71 60.9405C104.752 60.5295 104.453 60.1619 104.042 60.1195Z" fill="#394657"/>
<path d="M101.155 62.9581L97.8486 65.5645L98.0715 65.847L101.378 63.2406L101.155 62.9581Z" fill="white"/>
<path d="M98.4287 62.6712L98.1494 62.8982L100.807 66.1638L101.086 65.9368L98.4287 62.6712Z" fill="white"/>
<path d="M63.8934 69.7545L56.0055 68.9426C55.5942 68.9003 55.2264 69.1992 55.184 69.6103L54.3717 77.494C54.3293 77.9051 54.6284 78.2727 55.0397 78.315L62.9277 79.127C63.339 79.1693 63.7067 78.8704 63.7491 78.4593L64.5615 70.5756C64.6038 70.1645 64.3047 69.7969 63.8934 69.7545Z" fill="#5473E3"/>
<g opacity="0.4">
<path opacity="0.4" d="M63.894 69.7578L56.0064 68.9429C55.5951 68.9004 55.2275 69.1992 55.1853 69.6104L54.3759 77.4944C54.3337 77.9055 54.6329 78.2732 55.0442 78.3157L62.9318 79.1306C63.3431 79.1731 63.7108 78.8743 63.753 78.4632L64.5623 70.5791C64.6046 70.168 64.3053 69.8003 63.894 69.7578Z" fill="black"/>
</g>
<path d="M62.4461 69.6069L54.5582 68.795C54.1469 68.7526 53.7791 69.0516 53.7368 69.4627L52.9244 77.3464C52.8821 77.7575 53.1812 78.1251 53.5925 78.1674L61.4804 78.9793C61.8917 79.0217 62.2595 78.7227 62.3018 78.3116L63.1142 70.4279C63.1565 70.0168 62.8575 69.6492 62.4461 69.6069Z" fill="#263238"/>
<path d="M59.5063 72.022L59.4452 72.6084L57.6454 75.7815L56.6628 75.6771L58.3905 72.6516L57.0947 72.5185L57.0299 73.1553L56.2236 73.0725L56.3676 71.7018L59.5063 72.022Z" fill="white"/>
<path d="M76.9715 71.1006L69.0836 70.2887C68.6723 70.2464 68.3045 70.5453 68.2622 70.9564L67.4498 78.8401C67.4075 79.2512 67.7066 79.6188 68.1179 79.6611L76.0058 80.473C76.4171 80.5154 76.7849 80.2164 76.8272 79.8053L77.6396 71.9216C77.6819 71.5105 77.3828 71.143 76.9715 71.1006Z" fill="#5473E3"/>
<g opacity="0.4">
<path opacity="0.4" d="M76.9722 71.1039L69.0846 70.289C68.6733 70.2465 68.3056 70.5453 68.2634 70.9564L67.4541 78.8404C67.4118 79.2515 67.7111 79.6193 68.1224 79.6618L76.01 80.4767C76.4213 80.5192 76.7889 80.2203 76.8311 79.8092L77.6405 71.9252C77.6827 71.5141 77.3835 71.1464 76.9722 71.1039Z" fill="black"/>
</g>
<path d="M75.5223 70.9498L67.6344 70.1379C67.2231 70.0956 66.8553 70.3945 66.8129 70.8056L66.0006 78.6893C65.9582 79.1004 66.2573 79.468 66.6686 79.5103L74.5566 80.3222C74.9679 80.3646 75.3356 80.0656 75.378 79.6545L76.1904 71.7708C76.2327 71.3597 75.9336 70.9922 75.5223 70.9498Z" fill="#394657"/>
<path d="M72.9747 76.2275C72.8991 76.9471 72.1936 77.3608 71.2002 77.2564C70.2067 77.1521 69.6056 76.6233 69.6812 75.8894C69.6982 75.6943 69.7725 75.5085 69.8948 75.3555C70.0172 75.2026 70.182 75.0891 70.3687 75.0296C70.2379 74.9326 70.1355 74.8023 70.0722 74.6524C70.0089 74.5024 69.987 74.3382 70.0087 74.1769C70.0807 73.4898 70.7286 73.1265 71.6249 73.2164C72.5212 73.3063 73.0935 73.8028 73.0251 74.4899C73.0105 74.653 72.9524 74.8091 72.8568 74.942C72.7611 75.0749 72.6316 75.1797 72.4816 75.2454C72.6514 75.3424 72.7887 75.4874 72.8765 75.6621C72.9642 75.8368 72.9984 76.0335 72.9747 76.2275V76.2275ZM72.0604 76.1052C72.0964 75.7455 71.8337 75.5188 71.3837 75.4721C70.9338 75.4253 70.635 75.6088 70.599 75.9541C70.5631 76.2995 70.8186 76.5477 71.2685 76.5945C71.7185 76.6413 72.028 76.4362 72.0748 76.0908L72.0604 76.1052ZM70.8942 74.3065C70.8618 74.6015 71.0778 74.8101 71.4449 74.8497C71.8121 74.8893 72.0784 74.7274 72.1108 74.4324C72.1432 74.1374 71.9165 73.9143 71.5457 73.8783C71.175 73.8424 70.923 73.9899 70.8942 74.2957V74.3065Z" fill="white"/>
<path d="M90.5282 72.4961L82.6403 71.6841C82.2289 71.6418 81.8612 71.9407 81.8188 72.3518L81.0065 80.2355C80.9641 80.6466 81.2632 81.0142 81.6745 81.0566L89.5624 81.8685C89.9737 81.9108 90.3415 81.6119 90.3839 81.2008L91.1962 73.3171C91.2386 72.906 90.9395 72.5384 90.5282 72.4961Z" fill="#5473E3"/>
<g opacity="0.4">
<path opacity="0.4" d="M90.5288 72.4993L82.6412 71.6844C82.2299 71.6419 81.8623 71.9408 81.8201 72.3519L81.0107 80.2359C80.9685 80.647 81.2677 81.0147 81.679 81.0572L89.5666 81.8721C89.9779 81.9146 90.3455 81.6158 90.3877 81.2047L91.1971 73.3207C91.2393 72.9095 90.9401 72.5418 90.5288 72.4993Z" fill="black"/>
</g>
<path d="M88.8191 71.7145L80.9687 70.922C80.5594 70.8806 80.194 71.1788 80.1527 71.5879L79.3597 79.4341C79.3184 79.8432 79.6167 80.2084 80.026 80.2497L87.8764 81.0423C88.2857 81.0836 88.6511 80.7854 88.6924 80.3763L89.4854 72.5301C89.5268 72.121 89.2284 71.7558 88.8191 71.7145Z" fill="#394657"/>
<path d="M86.4727 76.688C86.3323 78.0407 85.4469 78.7098 84.2626 78.5875C83.8833 78.5596 83.5187 78.429 83.208 78.2098L83.6111 77.5802C83.8177 77.7419 84.0691 77.8361 84.331 77.85C84.9789 77.9148 85.4433 77.573 85.5477 76.8247C85.4046 76.9311 85.2419 77.0082 85.0689 77.0514C84.896 77.0946 84.7161 77.1032 84.5398 77.0765C84.3687 77.0732 84.2001 77.0348 84.0445 76.9637C83.8889 76.8926 83.7496 76.7903 83.6352 76.6631C83.5207 76.5359 83.4337 76.3866 83.3794 76.2244C83.3251 76.0622 83.3048 75.8906 83.3196 75.7203C83.4024 74.9216 84.1079 74.4863 84.9358 74.5726C86.012 74.6842 86.6059 75.4289 86.4727 76.688ZM85.5333 75.9037C85.5657 75.5692 85.3389 75.2993 84.9106 75.2526C84.8296 75.2369 84.7463 75.2383 84.6659 75.2568C84.5855 75.2753 84.5099 75.3104 84.444 75.3599C84.378 75.4093 84.3232 75.472 84.2829 75.544C84.2427 75.6159 84.218 75.6955 84.2104 75.7776C84.2029 75.8596 84.2126 75.9424 84.2389 76.0205C84.2653 76.0986 84.3077 76.1703 84.3635 76.231C84.4193 76.2916 84.4872 76.34 84.5628 76.3728C84.6384 76.4057 84.7201 76.4224 84.8026 76.4218C84.8851 76.4394 84.9704 76.4397 85.0531 76.4228C85.1358 76.4058 85.2141 76.372 85.2831 76.3233C85.3521 76.2746 85.4102 76.2122 85.4539 76.14C85.4976 76.0678 85.5258 75.9874 85.5369 75.9037H85.5333Z" fill="white"/>
<path d="M104.087 73.8913L96.1988 73.0793C95.7875 73.037 95.4198 73.3359 95.3774 73.747L94.565 81.6307C94.5227 82.0418 94.8218 82.4094 95.2331 82.4518L103.121 83.2637C103.532 83.306 103.9 83.0071 103.942 82.596L104.755 74.7123C104.797 74.3012 104.498 73.9336 104.087 73.8913Z" fill="#5473E3"/>
<g opacity="0.4">
<path opacity="0.4" d="M104.087 73.8943L96.1998 73.0794C95.7885 73.0369 95.4209 73.3357 95.3787 73.7468L94.5693 81.6308C94.5271 82.0419 94.8263 82.4097 95.2376 82.4522L103.125 83.2671C103.536 83.3096 103.904 83.0107 103.946 82.5996L104.756 74.7156C104.798 74.3045 104.499 73.9368 104.087 73.8943Z" fill="black"/>
</g>
<path d="M102.641 73.7402L94.7535 72.9283C94.3422 72.8859 93.9744 73.1849 93.9321 73.596L93.1197 81.4797C93.0774 81.8908 93.3765 82.2584 93.7878 82.3007L101.676 83.1126C102.087 83.155 102.455 82.856 102.497 82.4449L103.31 74.5612C103.352 74.1501 103.053 73.7825 102.641 73.7402Z" fill="#394657"/>
<path d="M96.1375 77.6345L96.1006 77.9924L100.29 78.4236L100.327 78.0657L96.1375 77.6345Z" fill="white"/>
<path d="M89.1141 86.2372L81.2262 85.4252C80.8149 85.3829 80.4471 85.6818 80.4047 86.0929L79.5924 93.9766C79.55 94.3877 79.8491 94.7553 80.2604 94.7976L88.1484 95.6096C88.5597 95.6519 88.9274 95.353 88.9698 94.9419L89.7822 87.0582C89.8245 86.6471 89.5254 86.2795 89.1141 86.2372Z" fill="#5473E3"/>
<g opacity="0.4">
<path opacity="0.4" d="M89.1128 86.2404L81.2252 85.4255C80.8139 85.383 80.4463 85.6818 80.4041 86.0929L79.5947 93.977C79.5525 94.3881 79.8517 94.7558 80.263 94.7983L88.1506 95.6132C88.5619 95.6557 88.9295 95.3569 88.9717 94.9458L89.7811 87.0617C89.8233 86.6506 89.5241 86.2829 89.1128 86.2404Z" fill="black"/>
</g>
<path d="M87.6649 86.0861L79.777 85.2742C79.3657 85.2318 78.9979 85.5308 78.9555 85.9419L78.1432 93.8256C78.1008 94.2367 78.3999 94.6042 78.8112 94.6466L86.6991 95.4585C87.1104 95.5008 87.4782 95.2019 87.5206 94.7908L88.3329 86.9071C88.3753 86.496 88.0762 86.1284 87.6649 86.0861Z" fill="#394657"/>
<path d="M102.673 87.6326L94.7848 86.8207C94.3735 86.7783 94.0057 87.0773 93.9633 87.4884L93.151 95.3721C93.1086 95.7832 93.4077 96.1508 93.819 96.1931L101.707 97.005C102.118 97.0474 102.486 96.7484 102.528 96.3373L103.341 88.4536C103.383 88.0425 103.084 87.6749 102.673 87.6326Z" fill="#5473E3"/>
<g opacity="0.4">
<path opacity="0.4" d="M102.671 87.6359L94.7838 86.821C94.3725 86.7785 94.0048 87.0773 93.9626 87.4884L93.1533 95.3724C93.1111 95.7835 93.4103 96.1512 93.8216 96.1937L101.709 97.0086C102.12 97.0511 102.488 96.7523 102.53 96.3412L103.34 88.4572C103.382 88.0461 103.083 87.6784 102.671 87.6359Z" fill="black"/>
</g>
<path d="M101.225 87.4815L93.3375 86.6696C92.9262 86.6273 92.5584 86.9262 92.5161 87.3373L91.7037 95.221C91.6614 95.6321 91.9605 95.9997 92.3718 96.042L100.26 96.854C100.671 96.8963 101.039 96.5974 101.081 96.1863L101.893 88.3026C101.936 87.8915 101.637 87.5239 101.225 87.4815Z" fill="#455A64"/>
<path d="M94.7761 90.8644L94.7393 91.2222L98.9285 91.6534L98.9654 91.2956L94.7761 90.8644Z" fill="white"/>
<path d="M94.616 92.4554L94.5791 92.8132L98.7683 93.2444L98.8052 92.8866L94.616 92.4554Z" fill="white"/>
<path d="M73.6616 84.5225L52.8121 82.3764C52.3178 82.3256 51.8757 82.6849 51.8248 83.179L51.0187 91.0018C50.9678 91.4959 51.3273 91.9377 51.8217 91.9886L72.6711 94.1347C73.1655 94.1856 73.6075 93.8263 73.6584 93.3322L74.4645 85.5093C74.5154 85.0152 74.1559 84.5734 73.6616 84.5225Z" fill="#394657"/>
<path d="M61.8955 87.9843C62.0287 86.6928 62.8206 86.038 63.7816 86.1351C64.7427 86.2323 65.3798 87.0381 65.2466 88.3297C65.1134 89.6212 64.3287 90.2759 63.3641 90.1752C62.3994 90.0745 61.7623 89.2722 61.8955 87.9843ZM64.3359 88.2361C64.4295 87.3475 64.1524 86.9482 63.7024 86.9014C63.2525 86.8547 62.9033 87.1892 62.8134 88.0778C62.7234 88.9664 62.9969 89.3657 63.4433 89.4125C63.8896 89.4593 64.2459 89.1211 64.3359 88.2361Z" fill="white"/>
<path d="M83.3031 88.2539L82.8096 92.434L83.167 92.4762L83.6606 88.2961L83.3031 88.2539Z" fill="white"/>
<path d="M81.1648 89.9763L81.1279 90.3342L85.3172 90.7654L85.354 90.4075L81.1648 89.9763Z" fill="white"/>
<path d="M79.2028 24.1492L78.6017 29.9881L78.3246 29.9593L78.9149 24.3795L77.4463 24.2284L77.4715 23.9694L79.2028 24.1492Z" fill="#263238"/>
<path d="M84.0029 30.283L83.9741 30.5421L80.0146 30.1355L80.0362 29.9341L82.8006 27.6712C83.5925 27.0272 83.7833 26.6171 83.8337 26.1423C83.9129 25.3652 83.4233 24.8112 82.3939 24.7032C82.0703 24.6451 81.7377 24.6615 81.4215 24.7513C81.1052 24.841 80.8136 25.0018 80.569 25.2213L80.3962 25.0198C80.6717 24.7798 80.9969 24.6038 81.3485 24.5043C81.7001 24.4047 82.0694 24.3842 82.4299 24.4442C83.5457 24.5593 84.1972 25.2069 84.1 26.1494C84.0425 26.7035 83.8193 27.1676 82.9698 27.8547L80.4502 29.9161L84.0029 30.283Z" fill="#263238"/>
<path d="M88.6333 29.3837C88.5325 30.3551 87.7802 30.9666 86.4952 30.8227C86.1165 30.8024 85.7467 30.701 85.4107 30.5253C85.0748 30.3497 84.7805 30.1039 84.5479 29.8046L84.7206 29.6212C84.9348 29.8988 85.2065 30.1268 85.5172 30.2895C85.8278 30.4522 86.1701 30.5457 86.5204 30.5637C87.6362 30.6788 88.2769 30.204 88.3669 29.3477C88.4569 28.4915 87.9422 27.9087 86.7039 27.7684L86.38 27.7324L86.4016 27.5346L88.4641 25.3509L85.2425 25.0199L85.2677 24.7609L88.8672 25.1206L88.8456 25.3185L86.7723 27.5094C88.1257 27.6605 88.734 28.4088 88.6333 29.3837Z" fill="#263238"/>
<path d="M94.3917 29.909L93.1211 29.7795L92.9483 31.4667L92.6712 31.4379L92.844 29.7507L89.4893 29.3909L89.5109 29.1895L93.1499 25.5703L93.4739 25.6027L89.8744 29.1787L92.8656 29.4881L93.0167 28.0023L93.2939 28.0311L93.1391 29.5133L94.4097 29.6464L94.3917 29.909Z" fill="#263238"/>
<path d="M95.604 31.4849C95.5872 31.5894 95.5595 31.6919 95.5212 31.7907L95.1037 32.8699L94.8877 32.8484L95.2656 31.7223C95.1931 31.7104 95.1282 31.6701 95.0854 31.6104C95.0425 31.5507 95.0251 31.4764 95.0371 31.4039C95.049 31.3314 95.0893 31.2666 95.149 31.2238C95.2088 31.1809 95.2831 31.1636 95.3556 31.1755C95.4292 31.1845 95.4963 31.2219 95.5427 31.2797C95.5891 31.3375 95.6111 31.4111 95.604 31.4849V31.4849Z" fill="#263238"/>
<path d="M101.394 30.6323L100.127 30.5028L99.9542 32.1864L99.677 32.1577L99.8498 30.474L96.4951 30.1142L96.5167 29.9128L100.152 26.3044L100.476 26.3404L96.8767 29.9164L99.8678 30.2222L100.019 28.7364L100.296 28.7652L100.152 30.251L101.423 30.3805L101.394 30.6323Z" fill="#263238"/>
<path d="M105.732 31.1142C105.631 32.0639 104.897 32.7295 103.572 32.5927C103.195 32.5711 102.828 32.4691 102.494 32.2935C102.16 32.1179 101.867 31.8727 101.636 31.5746L101.816 31.3912C102.029 31.6699 102.3 31.8986 102.611 32.0615C102.922 32.2243 103.265 32.3172 103.615 32.3337C104.756 32.4524 105.379 31.9092 105.466 31.0818C105.559 30.1824 105.077 29.5924 103.407 29.4197L102.273 29.3046L102.849 26.5812L105.862 26.8942L105.836 27.1532L103.054 26.8654L102.575 29.0743L103.475 29.1679C105.26 29.3514 105.836 30.0781 105.732 31.1142Z" fill="#263238"/>
<path d="M41.882 150.758L39.5928 159.216L47.0329 159.892L48.595 151.841L41.882 150.758Z" fill="#5473E3"/>
<path d="M47.2382 159.205C46.878 159.231 46.5161 159.219 46.1584 159.169C45.4889 159.115 44.5674 159.011 43.5488 158.881L40.95 158.522C40.5848 158.494 40.2232 158.431 39.8701 158.335C40.2306 158.314 40.5923 158.328 40.95 158.378C41.6195 158.432 42.5409 158.536 43.5596 158.666L46.1584 159.025C46.5228 159.054 46.884 159.115 47.2382 159.205V159.205Z" fill="#263238"/>
<g opacity="0.6">
<path opacity="0.6" d="M39.5928 159.216L47.0329 159.892L47.1517 159.273L39.8087 158.342L39.6036 159.129" fill="white"/>
</g>
<path d="M43.2783 158.838C43.6962 156.666 44.2249 154.517 44.8621 152.399C44.679 153.49 44.4387 154.57 44.1422 155.636C43.9098 156.718 43.6215 157.787 43.2783 158.838V158.838Z" fill="#263238"/>
<path d="M46.8401 159.151C46.9569 158.634 46.9569 158.097 46.8401 157.579C46.7094 157.023 46.428 156.514 46.0266 156.108C45.5261 155.62 44.8728 155.319 44.1764 155.255C43.4811 155.183 42.7815 155.343 42.1859 155.708C41.7025 156.015 41.304 156.438 41.0269 156.939C40.7803 157.409 40.6206 157.919 40.5554 158.446C40.5506 158.409 40.5506 158.372 40.5554 158.335C40.554 158.228 40.56 158.121 40.5734 158.014C40.6252 157.618 40.747 157.235 40.9333 156.881C41.2066 156.35 41.6135 155.898 42.1139 155.572C42.7373 155.178 43.4754 155.005 44.2088 155.082C44.9443 155.149 45.6332 155.471 46.1562 155.993C46.5703 156.425 46.8546 156.964 46.9768 157.55C47.0573 157.942 47.0573 158.346 46.9768 158.737C46.9537 158.843 46.9224 158.946 46.8832 159.047C46.8737 159.083 46.8592 159.119 46.8401 159.151V159.151Z" fill="#263238"/>
<path d="M72.5699 149.794L72.1271 156.453C72.1271 156.453 78.7574 158.651 78.797 159.889L65.8389 159.982L66.1016 149.578L72.5699 149.794Z" fill="#5473E3"/>
<g opacity="0.6">
<path opacity="0.6" d="M68.1363 155.773C68.0106 155.807 67.9019 155.887 67.8309 155.996C67.7599 156.106 67.7315 156.238 67.7512 156.366C67.7806 156.494 67.858 156.605 67.9673 156.677C68.0766 156.748 68.2093 156.775 68.3379 156.751C68.4708 156.714 68.5853 156.63 68.6596 156.513C68.734 156.397 68.763 156.258 68.7411 156.122C68.6966 155.993 68.604 155.886 68.4826 155.824C68.3612 155.761 68.2204 155.748 68.0896 155.787" fill="white"/>
</g>
<g opacity="0.6">
<path opacity="0.6" d="M65.8389 159.989L65.9073 158.939L78.383 159.298C78.5149 159.366 78.6277 159.466 78.7112 159.589C78.7948 159.711 78.8466 159.852 78.8617 160L65.8389 159.989Z" fill="white"/>
</g>
<path d="M72.3383 156.395C72.3383 156.46 72.0179 156.478 71.6976 156.672C71.3772 156.867 71.2081 157.126 71.1505 157.101C71.0929 157.075 71.1973 156.712 71.586 156.482C71.9748 156.252 72.3527 156.338 72.3383 156.395Z" fill="#263238"/>
<path d="M73.6751 157C73.6751 157.061 73.4123 157.158 73.1892 157.42C72.966 157.683 72.894 157.96 72.8292 157.957C72.7644 157.953 72.7356 157.597 73.02 157.273C73.3044 156.949 73.6787 156.938 73.6751 157Z" fill="#263238"/>
<path d="M74.4021 158.647C74.3445 158.647 74.2653 158.338 74.4381 158C74.6109 157.661 74.9133 157.528 74.9385 157.582C74.9636 157.636 74.7729 157.816 74.6361 158.097C74.4993 158.377 74.4669 158.644 74.4021 158.647Z" fill="#263238"/>
<path d="M72.2697 154.866C72.2409 154.924 71.9529 154.827 71.5966 154.841C71.2402 154.855 70.9559 154.96 70.9235 154.902C70.8911 154.845 71.1682 154.632 71.5894 154.622C72.0105 154.611 72.3021 154.82 72.2697 154.866Z" fill="#263238"/>
<g opacity="0.3">
<path opacity="0.3" d="M72.4792 151.114L72.4 152.301L66.0361 152.049L66.0613 150.981L72.4792 151.114Z" fill="black"/>
</g>
<path d="M72.3334 153.521C72.1193 153.572 71.8956 153.564 71.6854 153.499C71.4526 153.45 71.2265 153.373 71.0123 153.269C70.8872 153.209 70.7669 153.139 70.6524 153.06C70.5801 153.019 70.5156 152.966 70.4616 152.902C70.4211 152.856 70.3972 152.798 70.3939 152.736C70.3907 152.675 70.4082 152.614 70.4436 152.564C70.4772 152.522 70.5198 152.487 70.5684 152.464C70.617 152.44 70.6703 152.427 70.7244 152.427C70.8065 152.429 70.8879 152.443 70.9656 152.47C71.1033 152.508 71.2372 152.558 71.3651 152.622C71.5814 152.726 71.7795 152.864 71.9518 153.032C72.2434 153.319 72.3406 153.557 72.3118 153.568C72.283 153.578 72.1426 153.388 71.8438 153.147C71.6702 153.008 71.4789 152.893 71.2751 152.805C71.159 152.753 71.0386 152.711 70.9152 152.679C70.7784 152.64 70.6632 152.632 70.6236 152.679C70.584 152.726 70.6236 152.711 70.6236 152.751C70.6651 152.796 70.7123 152.836 70.764 152.87C70.8768 152.946 70.9883 153.015 71.0987 153.075C71.2967 153.18 71.5039 153.267 71.7178 153.334C71.9267 153.383 72.1323 153.446 72.3334 153.521V153.521Z" fill="#263238"/>
<path d="M72.2468 153.611C72.1324 153.42 72.0796 153.199 72.0956 152.978C72.0888 152.598 72.1886 152.224 72.3835 151.898C72.4205 151.814 72.4787 151.74 72.5525 151.685C72.6263 151.629 72.7132 151.594 72.8047 151.582C72.8628 151.584 72.919 151.604 72.9663 151.637C73.0137 151.671 73.05 151.718 73.071 151.772C73.1019 151.849 73.1225 151.928 73.1322 152.01C73.1548 152.204 73.1387 152.401 73.0849 152.59C73.0312 152.778 72.9409 152.954 72.8191 153.107C72.5563 153.438 72.2899 153.503 72.2863 153.467C72.2828 153.431 72.4915 153.319 72.6931 153.003C72.8103 152.821 72.8865 152.616 72.9163 152.402C72.9343 152.277 72.9343 152.15 72.9163 152.024C72.9163 151.888 72.8515 151.776 72.8011 151.787C72.7507 151.798 72.6247 151.884 72.5671 151.992C72.5004 152.107 72.4427 152.228 72.3943 152.352C72.3168 152.557 72.2683 152.773 72.2504 152.992C72.2216 153.363 72.2828 153.6 72.2468 153.611Z" fill="#263238"/>
<path d="M44.471 46.0585C44.471 46.0585 43.0636 53.7213 41.9514 58.3585C41.0731 61.9561 38.8054 68.7123 42.9124 70.673C47.0194 72.6336 52.5266 64.7154 52.5266 64.7154L54.8699 46.6773C53.2393 46.9831 51.3892 48.8754 49.4203 51.6563L49.7802 44.821L44.471 46.0585Z" fill="#677A8E"/>
<path d="M100.989 57.3798L98.8294 58.4087L96.8389 55.2896L98.0015 52.8829C98.1131 52.6598 98.2319 52.4116 98.3614 52.1238C98.5055 51.7868 98.5918 51.4281 98.617 51.0625C98.6671 50.6122 98.6562 50.1572 98.5846 49.7098C98.4766 49.3069 98.9014 48.9903 99.1893 49.2134C99.4773 49.4364 99.8012 50.5445 99.5889 51.872C99.3765 53.1995 100.917 51.7928 101.489 51.2892C102.062 50.7855 103.901 49.3177 104.193 49.3753C104.614 49.458 104.603 49.9401 104.02 50.4257C103.437 50.9114 101.792 52.5051 102.062 52.8001C102.399 52.8381 102.716 52.9801 102.969 53.2064C103.222 53.4326 103.398 53.732 103.473 54.0629C103.617 54.714 103.735 55.617 103.368 55.9156C102.608 56.4543 101.813 56.9434 100.989 57.3798V57.3798Z" fill="#FFBE9D"/>
<path d="M59.1191 28.3044L59.0615 47.0512L67.1027 47.447L67.3367 42.8889C67.3367 42.8889 70.1947 43.4573 70.9362 40.8023C71.4077 39.1078 71.2961 26.0092 71.2961 26.0092L59.1191 28.3044Z" fill="#FFBE9D"/>
<path d="M73.1017 27.844C72.5582 28.9629 69.9773 31.0135 69.9773 31.0135L68.8111 34.1362C67.7997 33.3447 66.4391 33.3915 66.1835 35.1687C65.9963 36.4566 67.5945 36.7156 67.5945 36.7156C66.6622 38.2985 66.0323 39.5936 64.6789 41.083C63.2103 42.7163 62.3897 42.8818 60.7987 42.907H59.0422C59.0422 42.907 55.4427 39.9066 56.1626 32.01C56.8825 24.1134 63.977 26.4194 65.6724 24.4551C68.4332 21.2317 74.9122 24.1062 73.1017 27.844Z" fill="#263238"/>
<path d="M56.5615 38.6114H56.7847C56.9989 38.6076 57.2122 38.5835 57.4218 38.5395C58.1913 38.3644 58.902 37.9925 59.4843 37.4602C60.3193 36.6408 61.0234 35.698 61.572 34.6649C61.9319 34.1001 62.2703 33.4993 62.7022 32.9201C63.1373 32.3114 63.6714 31.78 64.2824 31.348C64.9111 30.9411 65.6051 30.6454 66.3341 30.4738C67.0324 30.2939 67.7199 30.1824 68.3678 30.0564C69.6636 29.8154 70.8262 29.4556 71.6073 28.8405C72.2466 28.3731 72.7095 27.7038 72.9211 26.941C72.9722 26.7337 72.9988 26.5212 73.0003 26.3078C73.0003 26.1603 73.0003 26.0811 73.0003 26.0811C73.0003 26.0811 73.0003 26.1603 73.0255 26.3078C73.0302 26.5231 73.0085 26.7382 72.9607 26.9482C72.756 27.7231 72.2941 28.4055 71.6505 28.8836C70.8514 29.5096 69.678 29.8802 68.3822 30.1212C67.7307 30.2507 67.0468 30.3622 66.3521 30.5457C65.6315 30.7169 64.945 31.0088 64.322 31.4091C63.7203 31.839 63.1927 32.3639 62.7598 32.9633C62.3315 33.5389 61.9751 34.1361 61.6332 34.7009C61.0778 35.7374 60.3651 36.6816 59.5203 37.4998C58.9305 38.0373 58.209 38.4097 57.429 38.579C57.2168 38.6205 57.001 38.641 56.7847 38.6402C56.6371 38.6222 56.5615 38.6114 56.5615 38.6114Z" fill="#455A64"/>
<path d="M56.1475 32.1899C56.1475 32.1899 56.2734 32.1395 56.5074 32.0604C56.8655 31.9344 57.2359 31.8464 57.6124 31.7977C58.2118 31.7065 58.8239 31.8342 59.3366 32.1575C59.495 32.2628 59.6309 32.3984 59.7365 32.5564C59.8422 32.7145 59.9155 32.8919 59.9521 33.0785C59.995 33.289 59.9846 33.5069 59.9217 33.7124C59.8589 33.9179 59.7456 34.1044 59.5922 34.2549C59.4173 34.4085 59.1949 34.4975 58.9622 34.5067C58.7205 34.5103 58.4825 34.4468 58.2747 34.3232C57.834 34.0619 57.5058 33.6466 57.3533 33.1576C57.18 32.6423 57.1563 32.0885 57.2849 31.5603C57.4174 31.0022 57.7206 30.4992 58.1524 30.1213C58.6041 29.7165 59.1723 29.4647 59.7757 29.4018C60.4007 29.3628 61.0275 29.4434 61.6223 29.6392C62.2341 29.8355 62.8597 29.9858 63.494 30.0889C64.1486 30.1753 64.8118 30.1753 65.4665 30.0889C66.1218 30.011 66.7614 29.8339 67.3634 29.5637C67.6579 29.4451 67.9235 29.265 68.1427 29.0354C68.3618 28.8058 68.5293 28.5321 68.634 28.2326C68.7198 27.9393 68.726 27.6285 68.652 27.332C68.578 27.0355 68.4265 26.764 68.2129 26.5453C67.9958 26.3492 67.7254 26.2216 67.4359 26.1787C67.1464 26.1358 66.8506 26.1795 66.5859 26.3043C66.3283 26.4174 66.1173 26.6155 65.9884 26.8655C65.8657 27.1113 65.8205 27.3885 65.8588 27.6606C65.8956 27.921 65.9874 28.1705 66.1283 28.3926C66.2692 28.6147 66.4559 28.8042 66.6759 28.9485C67.0993 29.2081 67.5866 29.3451 68.0833 29.3442C68.5413 29.3524 68.9975 29.2844 69.4331 29.1428C70.1878 28.9054 70.8734 28.4881 71.4308 27.9268C71.8548 27.5096 72.2042 27.0229 72.4639 26.4878C72.6277 26.1424 72.7544 25.7806 72.8418 25.4085C72.8886 25.1567 72.921 25.0236 72.921 25.0236L72.8562 25.4121C72.7763 25.784 72.6556 26.1459 72.4963 26.4914C72.2422 27.0363 71.8937 27.532 71.4668 27.9556C70.9082 28.5255 70.2187 28.9503 69.4583 29.1931C69.0165 29.3357 68.5547 29.4061 68.0905 29.4018C67.5828 29.405 67.0842 29.2667 66.6507 29.0025C66.4222 28.8541 66.2282 28.6585 66.0817 28.4289C65.9351 28.1993 65.8395 27.941 65.8012 27.6714C65.7587 27.3861 65.8052 27.0946 65.9344 26.8367C66.071 26.5732 66.2931 26.3639 66.5643 26.2431C66.8417 26.1117 67.1519 26.0654 67.4556 26.1102C67.7594 26.1551 68.0429 26.289 68.2705 26.495C68.493 26.7223 68.6512 27.0046 68.729 27.313C68.8067 27.6214 68.8013 27.9449 68.7132 28.2506C68.6052 28.5604 68.4325 28.8438 68.2066 29.082C67.9807 29.3201 67.7068 29.5076 67.403 29.632C66.7937 29.9042 66.147 30.0837 65.4845 30.1645C64.8225 30.249 64.1524 30.249 63.4904 30.1645C62.8539 30.0605 62.226 29.9102 61.6115 29.7148C61.0246 29.5222 60.4069 29.4404 59.7901 29.4737C59.3717 29.5183 58.9685 29.656 58.6104 29.8769C58.2522 30.0977 57.9482 30.396 57.7206 30.7498C57.493 31.1036 57.3477 31.5038 57.2954 31.9212C57.243 32.3385 57.2849 32.7622 57.4181 33.1612C57.5661 33.6358 57.8839 34.0392 58.3107 34.2945C58.5087 34.4129 58.7352 34.4751 58.9658 34.4743C59.1864 34.4661 59.3974 34.3823 59.5634 34.2369C59.7092 34.0914 59.8167 33.9121 59.8763 33.715C59.936 33.5179 59.9459 33.3091 59.9053 33.1073C59.833 32.7441 59.6211 32.4237 59.315 32.2151C58.8103 31.895 58.2072 31.7673 57.616 31.8553C57.2414 31.9004 56.8724 31.9836 56.5146 32.1035L56.1475 32.1899Z" fill="#455A64"/>
<path d="M50.8419 83.2246L40.1299 153.55L49.0278 154.676L61.5791 95.6937L64.7431 155.075L74.386 154.906L72.7879 83.3901L50.8419 83.2246Z" fill="#394657"/>
<path d="M64.5704 155.255V155.082L61.482 97.061L49.1682 154.877L39.9248 153.704L50.6872 83.0629L72.9643 83.2284L74.5697 155.1L64.5704 155.255ZM61.6908 94.3232L64.9303 154.892L74.2206 154.73L72.6296 83.5702L50.9968 83.4227L40.3351 153.391L48.8839 154.471L61.6908 94.3232Z" fill="#171E25"/>
<path d="M71.5206 154.791C71.4665 154.791 71.4268 140.703 71.4268 123.326C71.4268 105.95 71.4665 91.8551 71.5206 91.8551C71.5748 91.8551 71.6145 105.943 71.6145 123.326C71.6145 140.71 71.5712 154.791 71.5206 154.791Z" fill="#455A64"/>
<path d="M47.0693 154.535C47.0718 154.485 47.079 154.434 47.0909 154.384C47.0909 154.273 47.1377 154.125 47.1737 153.938C47.2493 153.539 47.3609 152.963 47.5013 152.229C47.8036 150.736 48.2212 148.596 48.7647 145.952C49.8445 140.653 51.3743 133.342 53.1308 125.284C54.8874 117.225 56.5395 109.937 57.7634 104.673C58.3789 102.047 58.8792 99.921 59.2283 98.4388C59.4047 97.7193 59.5451 97.1437 59.6387 96.748C59.6855 96.5609 59.7251 96.417 59.7503 96.3091C59.7625 96.2589 59.7781 96.2096 59.7971 96.1616C59.7971 96.1616 59.7971 96.212 59.7683 96.3127C59.7395 96.4134 59.7179 96.5681 59.6783 96.7552C59.5883 97.1545 59.4623 97.7265 59.3003 98.4568C58.9656 99.939 58.4869 102.054 57.8929 104.702C56.7015 109.976 55.071 117.265 53.3144 125.323C51.5579 133.382 50.0065 140.688 48.8943 145.977C48.3364 148.617 47.8864 150.754 47.5733 152.244C47.4185 152.963 47.2961 153.546 47.2133 153.945L47.1125 154.388C47.1031 154.438 47.0886 154.488 47.0693 154.535V154.535Z" fill="#455A64"/>
<path d="M64.7426 95.6291C64.61 95.6646 64.4732 95.6828 64.3359 95.6831L63.2237 95.7622C62.2842 95.8234 60.9848 95.8881 59.5594 96.0285C58.134 96.1688 56.849 96.363 55.9167 96.4853L54.8117 96.6256C54.6766 96.6516 54.5387 96.66 54.4014 96.6508C54.5305 96.6036 54.6645 96.571 54.8009 96.5537C55.0565 96.4997 55.4308 96.4314 55.8807 96.3522C56.8094 96.1975 58.0944 95.9925 59.527 95.8414C60.9596 95.6903 62.2626 95.6579 63.2021 95.6291C63.6736 95.6291 64.0551 95.6111 64.3179 95.6111C64.4597 95.6016 64.6021 95.6077 64.7426 95.6291V95.6291Z" fill="#455A64"/>
<path d="M72.9738 91.0636C72.8861 91.1022 72.7923 91.1253 72.6967 91.1319C72.4393 91.1692 72.1789 91.1813 71.9192 91.1679C71.0551 91.1218 70.2224 90.8283 69.5204 90.3225C68.8184 89.8167 68.2767 89.1199 67.9598 88.3151C67.864 88.0734 67.7929 87.8227 67.7474 87.5668C67.715 87.3869 67.7114 87.2862 67.7258 87.2826C67.7402 87.279 67.8194 87.6783 68.0858 88.2611C68.4308 89.0221 68.9663 89.6813 69.6407 90.175C70.3221 90.657 71.1172 90.9534 71.948 91.0348C72.5671 91.0996 72.9666 91.0276 72.9738 91.0636Z" fill="#455A64"/>
<path d="M49.0107 84.606L73.6599 84.5269L72.3101 68.2695C72.1625 64.5497 72.1841 64.1036 72.0905 60.6715C72.0905 60.6715 75.5892 64.8986 78.3428 67.8666C79.1542 68.7387 80.2224 69.3298 81.3925 69.5543C82.5627 69.7787 83.7739 69.6248 84.8507 69.115L99.2485 59.0742L96.5525 52.1777L83.4685 60.1822C82.8673 59.8225 77.7741 52.5446 74.2538 49.0011C72 46.733 68.9598 45.4178 65.7627 45.328C63.1094 45.2659 60.4548 45.3728 57.815 45.6481C55.8921 45.8539 54.1011 46.7229 52.7498 48.1056C51.3985 49.4883 50.5715 51.2984 50.4109 53.2246C50.1554 56.2645 50.3605 59.7937 50.3605 65.7908L49.0107 84.606Z" fill="#677A8E"/>
<path d="M50.168 54.8688C50.168 54.8688 50.168 54.9371 50.168 55.0594C50.168 55.1818 50.168 55.3868 50.168 55.6027C50.168 56.0775 50.168 56.7611 50.168 57.6065C50.168 59.2974 50.2438 61.6286 50.3196 64.208C50.3955 66.7875 50.4063 69.1259 50.3413 70.8131C50.3124 71.6585 50.2727 72.3421 50.233 72.8134C50.233 73.0328 50.2005 73.2127 50.1896 73.3566C50.1788 73.5005 50.168 73.5437 50.168 73.5437C50.168 73.5437 50.168 73.4789 50.168 73.3566C50.168 73.2343 50.186 73.0292 50.1969 72.8134C50.2294 72.3421 50.2583 71.6585 50.2799 70.8131C50.3305 69.1223 50.3088 66.7875 50.2366 64.208C50.1644 61.6286 50.103 59.2974 50.1066 57.6065C50.1066 56.7611 50.1066 56.0775 50.1319 55.6027C50.1319 55.3832 50.1319 55.2069 50.1499 55.0594C50.168 54.9119 50.168 54.8688 50.168 54.8688Z" fill="#263238"/>
<path d="M82.9287 62.5099C82.9329 62.3956 82.9498 62.2822 82.9791 62.1717C83.0223 61.963 83.0835 61.6752 83.1591 61.3622C83.2347 61.0492 83.3031 60.7614 83.357 60.56C83.3783 60.447 83.4133 60.337 83.4614 60.2326C83.457 60.3471 83.4388 60.4606 83.4074 60.5708C83.3679 60.7794 83.3031 61.0636 83.2311 61.3802C83.1591 61.6968 83.0871 61.9774 83.0331 62.1825C83.0103 62.2951 82.9753 62.4049 82.9287 62.5099V62.5099Z" fill="#263238"/>
<path d="M84.243 62.7114C84.1053 62.2869 83.9935 61.8544 83.9083 61.4163C83.7974 60.9836 83.7097 60.5452 83.6455 60.1032C83.7813 60.5283 83.893 60.9607 83.9803 61.3983C84.0912 61.831 84.1789 62.2693 84.243 62.7114Z" fill="#263238"/>
<path d="M72.6984 61.2796L72.5652 61.1573L72.1873 60.7976C71.8633 60.481 71.3954 60.0169 70.8339 59.4233C70.1755 58.7332 69.5623 58.0014 68.9981 57.2324C68.3001 56.291 67.7368 55.2569 67.3244 54.1601C66.9073 53.0609 66.7199 51.888 66.7737 50.7136C66.7916 49.7546 67.0022 48.8089 67.3928 47.9327C67.6724 47.3466 68.0883 46.8359 68.6058 46.4433C68.7445 46.3379 68.89 46.2418 69.0413 46.1555L69.2033 46.0656C69.2033 46.0656 68.9801 46.1879 68.6238 46.4649C68.1186 46.8627 67.7132 47.3726 67.4396 47.9543C67.0596 48.8267 66.8565 49.7658 66.8421 50.7172C66.7917 51.8823 66.9804 53.0454 67.3964 54.1349C67.8066 55.2247 68.3636 56.2535 69.0521 57.1928C69.6136 57.9609 70.2219 58.6938 70.8735 59.3873C71.4278 59.9845 71.8885 60.4666 72.2089 60.7796L72.5688 61.1393C72.6588 61.2329 72.6984 61.2796 72.6984 61.2796Z" fill="#263238"/>
<path d="M56.678 54.5916C56.3525 54.329 56.0674 54.0199 55.8321 53.6743C55.5511 53.3665 55.316 53.02 55.1338 52.6454C55.4587 52.9072 55.7437 53.215 55.9797 53.5591C56.262 53.8671 56.4973 54.215 56.678 54.5916V54.5916Z" fill="#FAFAFA"/>
<path d="M62.2752 60.945C61.934 61.4172 61.543 61.8514 61.109 62.2401C60.7183 62.6735 60.2828 63.0642 59.8096 63.4057C60.5416 62.5002 61.3681 61.6753 62.2752 60.945V60.945Z" fill="#FAFAFA"/>
<path d="M67.6992 70.0649C67.6488 70.0649 67.4509 69.5253 67.0837 68.9029C66.7166 68.2805 66.335 67.8236 66.3638 67.7984C66.7351 68.0563 67.0348 68.4041 67.2349 68.8093C67.4921 69.1826 67.6517 69.6142 67.6992 70.0649V70.0649Z" fill="#FAFAFA"/>
<path d="M53.6469 69.0323C53.0992 67.8837 52.8752 66.6076 52.999 65.3412C53.0566 65.3412 53.071 66.1831 53.2546 67.1976C53.4382 68.2121 53.7189 69.0107 53.6469 69.0323Z" fill="#FAFAFA"/>
<path d="M61.1073 73.0472C60.6588 72.0817 60.562 70.9898 60.8337 69.9605C60.8877 69.9605 60.8085 70.6621 60.8877 71.5111C60.9669 72.3601 61.1613 73.0293 61.1073 73.0472Z" fill="#FAFAFA"/>
<path d="M58.1545 78.8789C57.5606 78.6203 56.9939 78.3034 56.4627 77.9327C55.8974 77.6158 55.3635 77.246 54.8682 76.8283C55.463 77.0872 56.0309 77.4041 56.5635 77.7744C57.1278 78.0911 57.6605 78.461 58.1545 78.8789V78.8789Z" fill="#FAFAFA"/>
<path d="M69.7595 77.1557C69.7847 77.2061 68.9497 77.6198 67.9814 78.235C67.0131 78.8501 66.2753 79.4222 66.2393 79.379C66.7179 78.865 67.2712 78.426 67.8806 78.0767C68.4563 77.6758 69.0899 77.3652 69.7595 77.1557Z" fill="#FAFAFA"/>
<path d="M55.1589 83.7501C54.5516 83.7217 53.9487 83.6325 53.3592 83.4838C52.7524 83.3945 52.1565 83.2426 51.5811 83.0305C52.1886 83.0592 52.7916 83.1496 53.3808 83.3004C53.9872 83.3896 54.583 83.5403 55.1589 83.7501V83.7501Z" fill="#FAFAFA"/>
<path d="M62.9458 82.4836C62.259 81.8179 61.793 80.9578 61.6104 80.0193C61.6607 80.0193 61.8839 80.5877 62.2547 81.264C62.6254 81.9404 62.989 82.4476 62.9458 82.4836Z" fill="#FAFAFA"/>
<path d="M71.714 83.0915C71.5789 83.396 71.3885 83.6729 71.1525 83.9082C70.7926 84.3255 70.4902 84.6277 70.4326 84.6061C70.5649 84.2979 70.7556 84.0181 70.9941 83.7823C71.3541 83.3721 71.66 83.0627 71.714 83.0915Z" fill="#FAFAFA"/>
<path d="M55.6876 58.3621C55.7164 58.4053 55.396 58.6715 54.9677 58.9521C54.7245 59.1512 54.4443 59.3003 54.1434 59.391C54.1146 59.3479 54.4385 59.0816 54.8633 58.7974C55.1061 58.5986 55.3864 58.4506 55.6876 58.3621V58.3621Z" fill="#FAFAFA"/>
<path d="M61.7627 51.5807C61.474 50.991 61.2565 50.3691 61.1148 49.728C60.9201 49.1026 60.7993 48.4567 60.7549 47.8033C60.981 48.4157 61.1638 49.0432 61.302 49.6812C61.5004 50.3027 61.6544 50.9374 61.7627 51.5807V51.5807Z" fill="#FAFAFA"/>
<path d="M67.5997 57.7542C67.5745 57.8045 67.049 57.6031 66.3759 57.4772C65.7028 57.3512 65.1377 57.3404 65.1377 57.2829C65.9884 57.1348 66.864 57.3024 67.5997 57.7542V57.7542Z" fill="#FAFAFA"/>
<path d="M71.6073 52.5087C71.1602 52.6393 70.6873 52.6554 70.2323 52.5555C69.7686 52.5156 69.3227 52.3583 68.9365 52.0986C68.9581 52.0482 69.5268 52.2605 70.2611 52.3684C70.9954 52.4764 71.6001 52.4548 71.6073 52.5087Z" fill="#FAFAFA"/>
<path d="M75.7086 58.3585C75.641 57.6964 75.675 57.028 75.8094 56.3762C75.8863 55.7144 76.0661 55.0687 76.3421 54.4623C76.3925 54.4623 76.1657 55.3329 75.9822 56.405C75.7986 57.4771 75.7662 58.3621 75.7086 58.3585Z" fill="#FAFAFA"/>
<path d="M80.5305 65.2513C79.6333 64.5019 78.8199 63.6575 78.1045 62.733C78.9994 63.4849 79.8126 64.329 80.5305 65.2513V65.2513Z" fill="#FAFAFA"/>
<path d="M84.5384 64.7154C84.1664 65.5287 83.6817 66.2856 83.0986 66.9639C83.2585 66.5434 83.4766 66.1474 83.7465 65.7875C83.9588 65.3948 84.2254 65.0339 84.5384 64.7154V64.7154Z" fill="#FAFAFA"/>
<path d="M89.1954 62.4524C88.8819 62.0246 88.6209 61.5608 88.4179 61.0709C88.1589 60.6068 87.9548 60.1142 87.8096 59.6031C88.1225 60.0325 88.3835 60.4974 88.5871 60.9881C88.8456 61.4511 89.0498 61.9425 89.1954 62.4524Z" fill="#FAFAFA"/>
<path d="M95.5284 59.8334C94.418 59.764 93.3191 59.5685 92.2529 59.2506C92.8106 59.2562 93.3659 59.3238 93.9087 59.4521C94.4613 59.5176 95.0047 59.6455 95.5284 59.8334V59.8334Z" fill="#FAFAFA"/>
<path d="M45.208 66.5717C45.5925 65.4544 46.0969 64.3821 46.7126 63.3735C46.5481 63.9413 46.3237 64.49 46.0431 65.0104C45.8206 65.5588 45.5407 66.0822 45.208 66.5717Z" fill="#FAFAFA"/>
<path d="M48.5659 60.6501C48.1635 60.3354 47.8009 59.973 47.4861 59.5708C47.1229 59.2096 46.8028 58.8076 46.5322 58.3728C46.9359 58.6861 47.2986 59.0487 47.6121 59.4521C47.9771 59.8116 48.2974 60.2138 48.5659 60.6501V60.6501Z" fill="#FAFAFA"/>
<path d="M48.2859 70.1583C48.3183 70.1979 48.0699 70.4605 47.7315 70.7447C47.3932 71.0289 47.0872 71.2232 47.0512 71.1836C47.0152 71.144 47.2708 70.8814 47.6092 70.6008C47.9475 70.3202 48.2535 70.1115 48.2859 70.1583Z" fill="#FAFAFA"/>
<path d="M49.4198 54.358C49.4629 54.3903 49.3118 54.6458 49.085 54.93C48.8582 55.2142 48.6387 55.4156 48.5991 55.3833C48.5595 55.3509 48.7107 55.0955 48.9374 54.8113C49.1642 54.5271 49.3982 54.3256 49.4198 54.358Z" fill="#FAFAFA"/>
<g opacity="0.3">
<path opacity="0.3" d="M68.2354 55.9913C69.7579 60.7724 70.9314 65.791 72.4539 70.5722L72.094 60.6717C70.6134 59.2824 69.3166 57.7095 68.2354 55.9913V55.9913Z" fill="black"/>
</g>
<path d="M43.4658 62.2472C43.4783 62.2077 43.494 62.1692 43.5126 62.1321L43.6566 61.7975C43.7862 61.5097 43.9769 61.0996 44.2217 60.5924C44.7112 59.5778 45.4167 58.1928 46.2662 56.6962C47.1157 55.1996 47.94 53.8829 48.5591 52.944C48.8686 52.4727 49.1242 52.0949 49.3042 51.8395L49.5129 51.5445C49.5633 51.4762 49.5885 51.4402 49.5921 51.4438L49.5273 51.5517L49.3294 51.8539L48.6095 52.9727C48.0011 53.9189 47.1697 55.2392 46.3382 56.7322C45.5067 58.2252 44.776 59.6102 44.2793 60.6139L43.6926 61.8119C43.6314 61.9342 43.5774 62.0422 43.5342 62.1357C43.5154 62.1752 43.4925 62.2126 43.4658 62.2472V62.2472Z" fill="#263238"/>
<path d="M45.8964 57.6677C45.7681 57.7313 45.6359 57.7866 45.5005 57.8331C45.1876 57.9696 44.8887 58.1359 44.6078 58.3296C44.3286 58.5256 44.0694 58.7485 43.8339 58.9952C43.6503 59.1858 43.5495 59.3117 43.5423 59.3046C43.5351 59.2974 43.5423 59.2686 43.5999 59.2074C43.6597 59.1208 43.7246 59.0379 43.7943 58.9592C44.0208 58.6973 44.2796 58.4652 44.5646 58.2685C44.8496 58.0708 45.1579 57.9089 45.4825 57.7864C45.5801 57.7483 45.6799 57.7159 45.7812 57.6892C45.8184 57.6768 45.8572 57.6695 45.8964 57.6677V57.6677Z" fill="#263238"/>
<path d="M46.2341 50.2891C45.9259 50.8784 45.5644 51.4384 45.1543 51.962C44.7885 52.5209 44.3702 53.0437 43.9053 53.5233C44.215 52.936 44.5764 52.3774 44.9851 51.8541C45.3515 51.2945 45.7697 50.7706 46.2341 50.2891Z" fill="#FAFAFA"/>
<path d="M48.833 44.4394C49.0114 44.4709 49.1951 44.4463 49.3589 44.3689C49.5227 44.2916 49.6584 44.1654 49.7473 44.0077C49.9488 43.7055 50.0424 43.3457 50.2188 43.0291C50.7551 42.0902 51.9717 41.68 52.4613 40.7159C52.5297 40.5792 52.5693 40.3921 52.4613 40.2986C52.3533 40.2051 52.1913 40.2698 52.0653 40.331L48.8618 41.9355" fill="#FFBE9D"/>
<path d="M48.8539 41.9356C48.9528 41.8511 49.063 41.7809 49.1814 41.727C49.3974 41.6047 49.7178 41.4356 50.1137 41.2269L51.5031 40.5074L51.9098 40.3024C52.061 40.1947 52.248 40.1496 52.4317 40.1764C52.4881 40.198 52.5367 40.2358 52.5714 40.2852C52.606 40.3346 52.6251 40.3932 52.6261 40.4535C52.6278 40.5532 52.6056 40.6518 52.5613 40.7413C52.4833 40.8997 52.3866 41.0482 52.2734 41.1838C51.8227 41.6391 51.3416 42.0633 50.8336 42.4537C50.6301 42.6318 50.4542 42.8391 50.3117 43.0689C50.1821 43.2883 50.0993 43.515 49.9985 43.72C49.9348 43.8933 49.8338 44.0505 49.7025 44.1805C49.5713 44.3104 49.413 44.4099 49.239 44.4719C49.1757 44.4971 49.1075 44.5076 49.0395 44.5027C48.9716 44.4977 48.9056 44.4773 48.8467 44.4431C48.9684 44.4475 49.09 44.4317 49.2066 44.3964C49.3589 44.3271 49.4955 44.2275 49.6081 44.1039C49.7207 43.9802 49.807 43.8349 49.8617 43.6769C49.9483 43.4476 50.0468 43.2231 50.1569 43.0041C50.3019 42.755 50.484 42.5294 50.6968 42.335C51.2011 41.9426 51.6818 41.521 52.1366 41.0722C52.2369 40.948 52.3249 40.8142 52.3994 40.6729C52.4641 40.5398 52.4641 40.3995 52.3994 40.3815C52.3346 40.3635 52.169 40.4247 52.0394 40.493L51.6327 40.6945L50.2217 41.378C49.8185 41.5687 49.5018 41.7378 49.2606 41.8205C49.1318 41.8796 48.9946 41.9184 48.8539 41.9356Z" fill="#EB996E"/>
<path d="M144.423 11.0655C144.423 11.1197 142.008 11.1486 139.024 11.1341C136.04 11.1197 133.625 11.0619 133.625 11.0114C133.625 10.9608 136.04 10.9283 139.024 10.9427C142.008 10.9572 144.423 11.015 144.423 11.0655Z" fill="#677A8E"/>
<path d="M139.064 16.4289C139.014 16.4289 138.949 14.0186 138.916 11.0326C138.884 8.04662 138.916 5.63626 138.956 5.63626C138.996 5.63626 139.075 8.04662 139.104 11.0326C139.133 14.0186 139.118 16.4289 139.064 16.4289Z" fill="#677A8E"/>
<path d="M150.098 91.5818C148.968 91.1107 147.863 90.5823 146.786 89.9989C145.677 89.4701 144.596 88.8842 143.547 88.2433C143.568 88.2001 145.051 88.9088 146.858 89.8298C148.665 90.7508 150.123 91.5386 150.098 91.5818Z" fill="#677A8E"/>
<path d="M145.209 93.2078C145.663 92.0701 146.176 90.9569 146.746 89.8729C147.257 88.7651 147.826 87.6844 148.449 86.6351C147.993 87.7721 147.48 88.8852 146.912 89.97C146.399 91.0773 145.831 92.158 145.209 93.2078V93.2078Z" fill="#677A8E"/>
<path d="M20.8911 66.2514C20.8911 66.3018 19.185 67.0321 17.0433 67.8847C14.9016 68.7373 13.1451 69.3921 13.1271 69.3453C13.1091 69.2985 14.8296 68.5646 16.9749 67.712C19.1202 66.8594 20.8696 66.2046 20.8911 66.2514Z" fill="#677A8E"/>
<path d="M16.9168 63.9131C16.9168 63.9131 16.8556 63.8088 16.726 63.6433C16.5425 63.4142 16.2901 63.2503 16.0061 63.1756C15.7779 63.1148 15.5373 63.1186 15.3111 63.1865C15.0849 63.2544 14.8821 63.3838 14.7252 63.5602C14.5684 63.7367 14.4636 63.9533 14.4228 64.1857C14.3819 64.4182 14.4065 64.6575 14.4937 64.8768C14.581 65.0961 14.7276 65.2869 14.917 65.4278C15.1065 65.5687 15.3314 65.6543 15.5667 65.6748C15.802 65.6954 16.0383 65.6502 16.2494 65.5443C16.4605 65.4384 16.6379 65.276 16.762 65.0751C16.9189 64.8252 16.9896 64.5308 16.9636 64.2369C16.9636 64.0282 16.9024 63.9167 16.9168 63.9095C16.9826 64.0046 17.0234 64.1147 17.0356 64.2297C17.0934 64.5434 17.0373 64.8675 16.8772 65.1435C16.7588 65.3531 16.589 65.5292 16.3837 65.6551C16.1784 65.781 15.9444 65.8525 15.7038 65.863C15.4069 65.8739 15.1138 65.7928 14.8649 65.6307C14.6159 65.4687 14.4233 65.2336 14.3133 64.9577C14.2033 64.6819 14.1813 64.3788 14.2505 64.09C14.3196 63.8012 14.4765 63.5409 14.6995 63.3447C14.8795 63.1864 15.097 63.0766 15.3312 63.0256C15.5655 62.9746 15.8089 62.9842 16.0385 63.0533C16.3448 63.1417 16.6092 63.337 16.7836 63.6037C16.8519 63.6949 16.8975 63.8009 16.9168 63.9131V63.9131Z" fill="#677A8E"/>
<path d="M19.6156 70.6799C19.5976 70.6799 19.5544 70.5755 19.4248 70.4101C19.2423 70.1798 18.9895 70.0156 18.7049 69.9424C18.4982 69.8894 18.2817 69.8884 18.0744 69.9392C17.8672 69.99 17.6758 70.0912 17.5171 70.2338C17.3244 70.4075 17.1896 70.636 17.1307 70.8886C17.0718 71.1412 17.0918 71.4058 17.1878 71.6467C17.2838 71.8876 17.4514 72.0934 17.6679 72.2363C17.8844 72.3793 18.1395 72.4525 18.399 72.4463C18.6148 72.4443 18.8268 72.3882 19.0154 72.2833C19.204 72.1783 19.3633 72.0278 19.4788 71.8455C19.634 71.5948 19.7046 71.301 19.6804 71.0073C19.6804 70.7986 19.6156 70.6871 19.6336 70.6799C19.6989 70.7739 19.7398 70.8827 19.7524 70.9965C19.8091 71.3118 19.7516 71.637 19.5904 71.9138C19.4729 72.1234 19.3037 72.2995 19.099 72.4255C18.8942 72.5514 18.6607 72.6229 18.4206 72.6333C18.1237 72.6443 17.8306 72.5631 17.5817 72.4011C17.3327 72.239 17.1401 72.0039 17.0301 71.7281C16.9201 71.4522 16.8981 71.1492 16.9673 70.8604C17.0364 70.5716 17.1933 70.3112 17.4163 70.1151C17.5974 69.9585 17.8146 69.8495 18.0484 69.798C18.2822 69.7465 18.5252 69.7541 18.7553 69.8201C19.0609 69.912 19.3245 70.108 19.5004 70.3741C19.5628 70.4653 19.6023 70.5702 19.6156 70.6799V70.6799Z" fill="#677A8E"/>
</svg>
