<?xml version="1.0" encoding="UTF-8"?>
<svg width="292px" height="199px" viewBox="0 0 292 199" version="1.1" xmlns="http://www.w3.org/2000/svg" xmlns:xlink="http://www.w3.org/1999/xlink">
    <!-- Generator: Sketch 52.6 (67491) - http://www.bohemiancoding.com/sketch -->
    <title>illustration 01</title>
    <desc>Created with Sketch.</desc>
    <g id="Page-1" stroke="none" stroke-width="1" fill="none" fill-rule="evenodd">
        <g id="profile-with-pic-copy-2" transform="translate(-846.000000, -179.000000)">
            <g id="Group-2" transform="translate(258.000000, 168.000000)">
                <g id="illustration-01" transform="translate(588.000000, 11.000000)">
                    <path d="M187.696783,86.3237762 C186.345092,88.0879025 184.880311,89.7624254 183.311678,91.3367832 C180.929394,93.7190676 178.656014,96.2102564 176.491538,98.8103497 C169.063916,107.713287 163.055455,117.698462 158.011818,128.132867 C154.091259,136.244545 151.814476,144.922867 147.863287,152.988601 C147.546783,153.636923 147.22007,154.275035 146.883147,154.913147 C138.818691,170.412993 125.63658,182.642702 109.576573,189.524336 C90.8926573,197.692168 68.9569231,199.05007 49.9207692,192.337133 L49.5123776,192.189091 C29.6032867,185.042238 20.9811189,171.177343 17.4638462,158.353846 C15.0206423,149.070759 14.5890033,139.372807 16.1978322,129.909371 C16.1978322,129.909371 26.7700699,92.5313287 41.4976923,77.037972 C44.7188811,73.6534266 49.252028,70.6823776 54.5917483,67.9614685 C73.6942657,58.2162238 103.052517,51.6258042 118.826643,40.2878322 C137.204266,27.1120979 157.950559,21.2057343 175.644126,29.1387413 C175.792168,29.2051049 175.945315,29.2714685 176.088252,29.348042 C177.716937,30.093573 179.294405,30.9462585 180.81028,31.9004895 C181.157413,32.1251049 181.499441,32.3446154 181.831259,32.5794406 L182.050769,32.7274825 C185.584262,35.1731167 188.610976,38.2795724 190.963916,41.8754545 C192.410458,44.0643962 193.596041,46.4150011 194.496503,48.8793706 C195.083867,50.4867827 195.553064,52.134942 195.90035,53.8106993 C198.029091,64.1685315 195.64,75.9455245 187.696783,86.3237762 Z" id="Path" fill-opacity="0.8" fill="#E2EEF5"></path>
                    <path d="M150.972168,23.7734965 C144.896581,24.9861723 138.974375,26.8694988 133.314336,29.3888811 C133.08972,29.4858741 133.314336,29.8227972 133.513427,29.7206993 C139.142652,27.2206262 145.032469,25.3543762 151.074266,24.1563636 C151.319301,24.1002098 151.217203,23.7275524 150.972168,23.7734965 Z" id="Path" fill="#B9CEEB"></path>
                    <path d="M187.696783,86.3237762 C186.345092,88.0879025 184.880311,89.7624254 183.311678,91.3367832 C180.929394,93.7190676 178.656014,96.2102564 176.491538,98.8103497 C169.063916,107.713287 163.055455,117.698462 158.011818,128.132867 C154.091259,136.244545 151.814476,144.922867 147.863287,152.988601 C147.546783,153.636923 147.22007,154.275035 146.883147,154.913147 C138.818691,170.412993 125.63658,182.642702 109.576573,189.524336 C90.8926573,197.692168 68.9569231,199.05007 49.9207692,192.337133 L49.5123776,192.189091 C30.0372028,185.19028 21.363986,171.76951 17.6986713,159.191049 C17.616993,158.91028 17.5404196,158.634615 17.4638462,158.353846 C16.590948,155.141683 15.9814456,151.863687 15.6413986,148.552448 C15.5852448,148.067483 15.5393007,147.587622 15.4984615,147.107762 C14.9756081,141.364021 15.2107495,135.576451 16.1978322,129.894056 C16.1978322,129.894056 26.7700699,92.516014 41.4976923,77.0226573 C44.7188811,73.6381119 49.252028,70.6670629 54.5917483,67.9461538 C60.0527839,72.437071 66.0139055,76.2826796 72.3567832,79.4066434 C84.6442657,85.5325175 97.9731469,89.2897203 111.353077,92.3781818 C116.871469,93.6595105 137.668811,95.1144056 142.217273,94.2414685 C181.014476,86.8138462 189.115944,56.0364336 195.885035,53.7953846 C198.029091,64.1685315 195.64,75.9455245 187.696783,86.3237762 Z" id="Path" fill-opacity="0.8" fill="#83A2C6" opacity="0.4" style="mix-blend-mode: multiply;"></path>
                    <path d="M156.347622,139.491259 C154.382893,146.425774 151.130625,152.928578 146.760629,158.66014 C146.607483,158.859231 146.944406,159.053217 147.097552,158.854126 C151.485486,153.094677 154.749913,146.560628 156.72028,139.593357 C156.737958,139.494571 156.677373,139.39861 156.580585,139.372093 C156.483797,139.345576 156.382762,139.397257 156.347622,139.491259 Z" id="Path" fill="#B9CEEB"></path>
                    <path d="M142.625664,41.2424476 C142.625664,41.3088112 142.625664,41.364965 142.625664,41.4262238 C142.554169,43.1929944 141.449486,44.7521717 139.806371,45.4054448 C138.163257,46.0587179 136.289568,45.6836886 135.024476,44.4483217 C134.891748,44.3104895 134.769231,44.1777622 134.646713,44.0297203 C134.263616,43.5397092 133.984005,42.9770128 133.824825,42.3757343 L134.049441,42.2685315 L133.84014,41.7988811 L133.722727,41.855035 C133.69608,41.6519175 133.682439,41.4473048 133.681888,41.2424476 C133.685637,39.2090583 135.059248,37.4335716 137.026526,36.919274 C138.993805,36.4049764 141.060603,37.2810506 142.059021,39.0524476 L141.85993,39.129021 L142.074336,39.6037762 C142.135594,39.5731469 142.207063,39.5476224 142.283636,39.516993 C142.46445,39.9424098 142.576455,40.393876 142.615455,40.8544755 C142.620559,40.9872028 142.625664,41.1148252 142.625664,41.2424476 Z" id="Path" fill-opacity="0.8" fill="#FCEFC0"></path>
                    <path d="M134.044336,42.2685315 L133.81972,42.3757343 C133.775331,42.2078073 133.741235,42.0373271 133.717622,41.8652448 L133.835035,41.8090909 L134.044336,42.2685315 Z" id="Path" fill="#C7F0DB"></path>
                    <path d="M142.278531,39.516993 C142.201958,39.5476224 142.13049,39.5731469 142.069231,39.6037762 L141.854825,39.129021 L142.053916,39.0524476 C142.136944,39.203218 142.211921,39.3582841 142.278531,39.516993 Z" id="Path" fill="#C7F0DB"></path>
                    <path d="M144.80035,39.516993 C144.856503,40.0274825 143.958042,40.7064336 142.620559,41.4262238 C140.187021,42.6693172 137.642118,43.6811254 135.019371,44.4483217 C134.57014,44.5759441 134.166853,44.678042 133.814615,44.7597203 C133.352583,44.8710685 132.880596,44.9360522 132.405664,44.9537063 C131.895175,44.9537063 131.634825,44.820979 131.542937,44.5504196 C131.109021,43.2231469 133.186713,42.1153846 133.717622,41.855035 C133.741235,42.0271173 133.775331,42.1975975 133.81972,42.3655245 C133.084615,42.7381818 131.777762,43.5958042 132.043217,44.4074825 C132.237203,44.581049 133.242867,44.4074825 134.641608,44.045035 C136.917198,43.3904535 139.13647,42.5539585 141.277972,41.5436364 C141.788462,41.2986014 142.232587,41.073986 142.595035,40.8697902 C143.952937,40.1295804 144.274545,39.7058741 144.264336,39.5935664 C144.265615,39.4690618 144.199134,39.3536975 144.090769,39.2923776 C143.718112,39.077972 142.85028,39.2923776 142.263217,39.5323077 C142.196607,39.3735988 142.12163,39.2185327 142.038601,39.0677622 C142.513357,38.8737762 143.697692,38.4704895 144.351119,38.8431469 C144.601694,38.981169 144.769319,39.2326079 144.80035,39.516993 Z" id="Path" fill-opacity="0.8" fill="#6076C2"></path>
                    <circle id="Oval" fill="#FFFFFF" cx="116.100629" cy="51.1765734" r="1"></circle>
                    <circle id="Oval" fill="#FFFFFF" cx="159.058322" cy="42.4114685" r="1"></circle>
                    <circle id="Oval" fill="#FFFFFF" cx="146.689161" cy="54.3722378" r="1"></circle>
                    <circle id="Oval" fill="#FFFFFF" cx="136.872448" cy="134.947902" r="1"></circle>
                    <circle id="Oval" fill="#FFFFFF" cx="138.990979" cy="100.280559" r="1"></circle>
                    <circle id="Oval" fill="#FFFFFF" cx="149.961399" cy="125.217972" r="1"></circle>
                    <path d="M104.497203,61.6824476 C104.497203,61.995396 104.243508,62.2490909 103.930559,62.2490909 C103.617611,62.2490909 103.363916,61.995396 103.363916,61.6824476 C103.363916,61.3694991 103.617611,61.1158042 103.930559,61.1158042 C104.243508,61.1158042 104.497203,61.3694991 104.497203,61.6824476 Z" id="Path" fill="#FFFFFF"></path>
                    <path d="M157.623846,66.720979 C157.623846,67.0339275 157.370151,67.2876224 157.057203,67.2876224 C156.744254,67.2876224 156.490559,67.0339275 156.490559,66.720979 C156.490559,66.4080305 156.744254,66.1543357 157.057203,66.1543357 C157.370151,66.1543357 157.623846,66.4080305 157.623846,66.720979 Z" id="Path" fill="#FFFFFF"></path>
                    <circle id="Oval" fill="#FFFFFF" cx="131.844126" cy="120.225385" r="1"></circle>
                    <circle id="Oval" fill="#FFFFFF" cx="161.937483" cy="101.842657" r="1"></circle>
                    <circle id="Oval" fill="#FFFFFF" cx="155.929021" cy="31.6095105" r="1"></circle>
                    <path d="" id="Path" fill="#C7F0DB" opacity="0.44" style="mix-blend-mode: multiply;"></path>
                    <path d="M79.033986,54.9746154 C79.033986,54.9746154 77.1043357,49.6042657 71.3766434,49.7727273 C65.648951,49.9411888 51.3807692,50.1045455 47.1896503,56.8225874 C42.9985315,63.5406294 41.8601399,68.2371329 33.2839161,67.7368531 C24.7076923,67.2365734 20.6952448,79.2688112 23.8858042,83.4088811 C18.5103497,79.8354545 6.92734266,88.8864336 13.3084615,98.9634965 C1.22006993,102.822797 -4.4872028,121.460769 12.797972,133.549161 C30.0831469,145.637552 45.3672028,132.875315 45.3672028,132.875315 L81.126993,121.797692 L96.9113287,112.562937 L110.184056,120.786923 L120.761399,107.738811 L114.211818,83.8325874 L100.612378,73.4645455 C100.612378,73.4645455 98.453007,62.9790909 88.1921678,65.551958 C88.6873427,59.1708392 86.1706294,53.2951049 79.033986,54.9746154 Z" id="Path" fill="#EF907B"></path>
                    <path d="M33.3809091,66.333007 C29.981049,66.8434965 26.6424476,67.5530769 24.1920979,70.131049 C22.0990909,72.321049 20.9913287,75.2359441 20.3276923,78.1253147 C20.2715385,78.3652448 20.6441958,78.4724476 20.7003497,78.2274126 C21.3486713,75.3890909 22.4206993,72.5405594 24.4677622,70.4016084 C26.8823776,67.8746853 30.1801399,67.2212587 33.4881119,66.7056643 C33.728042,66.6648252 33.6259441,66.2921678 33.3809091,66.333007 Z" id="Path" fill="#EF907B"></path>
                    <path d="M11.143986,96.5131469 C9.10202797,93.8943357 9.85755245,91.153007 10.6334965,88.233007 C10.6591842,88.1315055 10.5996895,88.0279343 10.4990686,87.9989886 C10.3984478,87.9700429 10.2930129,88.0261685 10.2608392,88.1258042 C9.41342657,91.2448951 8.69874126,94.0474825 10.853007,96.8041259 C11.0265734,96.993007 11.2971329,96.7071329 11.143986,96.5131469 Z" id="Path" fill="#EF907B"></path>
                    <path d="M6.12587413,101.388322 C2.67496503,103.818252 0.148041958,106.646364 0.398181818,111.087622 C0.398181818,111.337762 0.801468531,111.337762 0.786153846,111.087622 C0.541118881,106.753566 2.97104895,104.063287 6.31986014,101.704825 C6.50874126,101.587413 6.31475524,101.245385 6.12587413,101.388322 Z" id="Path" fill="#EF907B"></path>
                    <path d="M53.6013986,103.241399 C53.6013986,103.241399 64.7811189,96.7377622 79.8967133,99.1574825 L81.2852448,107.749021 C81.2852448,107.749021 80.9176923,119.138042 55.8832867,115.406364 C54.9115905,111.393824 54.1499257,107.333316 53.6013986,103.241399 Z" id="Path" fill="#D6BD8D"></path>
                    <path d="M83.756014,88.963007 C82.9239161,93.8177622 75.2818881,95.9158741 75.2818881,95.9158741 L76.5734266,103.874406 L76.7878322,105.216993 C70.2688811,110.515874 57.6648951,105.819371 57.6648951,105.819371 L51.7993706,78.3397203 C55.3727972,77.38 67.986993,73.2705594 69.2376923,62.6779021 C71.9126573,66.6495105 78.5592308,68.4821678 81.9999301,69.1866434 C82.5512587,74.5978322 84.4809091,84.7412587 83.756014,88.963007 Z" id="Path" fill="#EFC3A5"></path>
                    <path d="M73.3624476,75.4146154 L76.5734266,82.2909091 L76.8031469,81.7293706 L74.0822378,82.5308392 C73.89595,82.6001993 73.7937285,82.8005859 73.8469311,82.9921151 C73.9001337,83.1836443 74.0910615,83.3026006 74.2864336,83.2659441 L77.0073427,82.4695804 C77.1194841,82.4347807 77.2101966,82.3516708 77.2546545,82.242996 C77.2991124,82.1343212 77.2926599,82.011462 77.2370629,81.908042 L74.020979,75.041958 C73.8116783,74.5978322 73.1531469,74.9858042 73.3624476,75.4299301 L73.3624476,75.4146154 Z" id="Path" fill="#AA2643"></path>
                    <path d="M65.6438462,83.0004895 C66.5372028,86.0634266 69.446993,87.6357343 72.515035,87.160979 C73,87.0844056 72.7906993,86.3441958 72.3108392,86.4207692 C69.6961076,86.9221441 67.1290738,85.3522958 66.3840559,82.7962937 C66.3276688,82.5918904 66.1162564,82.4718996 65.9118531,82.5282867 C65.7074499,82.5846738 65.587459,82.7960862 65.6438462,83.0004895 Z" id="Path" fill="#AA2643"></path>
                    <path d="M63.6529371,75.868951 L66.7975524,75.868951 C67.0090041,75.868951 67.1804196,75.6975356 67.1804196,75.4860839 C67.1804196,75.2746322 67.0090041,75.1032168 66.7975524,75.1032168 L63.6529371,75.1032168 C63.4414854,75.1032168 63.2700699,75.2746322 63.2700699,75.4860839 C63.2700699,75.6975356 63.4414854,75.868951 63.6529371,75.868951 Z" id="Path" fill="#AA2643"></path>
                    <path d="M79.3913287,73.6483217 C79.3913287,74.5059441 79.0748252,75.1797902 78.6868531,75.1797902 C78.2988811,75.1797902 77.9772727,74.4855245 77.9772727,73.6483217 C77.9772727,72.8111189 78.2937762,72.0913287 78.6868531,72.0913287 C79.0799301,72.0913287 79.3913287,72.7906993 79.3913287,73.6483217 Z" id="Path" fill="#AA2643"></path>
                    <circle id="Oval" fill="#EFC3A5" cx="51.1357343" cy="82.9851748" r="4.76797203"></circle>
                    <path d="M47.9451748,83.4956643 C48.6579094,82.5699362 49.7131082,81.9698746 50.8730979,81.8306374 C52.0330877,81.6914002 53.2003203,82.0246965 54.1118881,82.7554545 C54.5100699,83.0515385 54.8929371,82.3879021 54.4998601,82.0969231 C52.2986457,80.3725991 49.1168855,80.756329 47.3887413,82.9545455 C47.0773427,83.3323077 47.6133566,83.8734266 47.9298601,83.4956643 L47.9451748,83.4956643 Z" id="Path" fill="#AA2643"></path>
                    <path d="M51.9167832,81.7191608 C52.3404895,83.0821678 50.8958042,84.0674126 49.8186713,84.4655944 C49.3592308,84.6340559 49.5583217,85.3742657 50.0228671,85.2058042 C51.4930769,84.6595804 53.2134266,83.316993 52.656993,81.514965 C52.508951,81.0453147 51.7687413,81.2444056 51.9167832,81.7191608 Z" id="Path" fill="#AA2643"></path>
                    <path d="M127.152727,116.274196 C126.31042,127.443706 125.039301,139.863916 114.068881,141.691469 C103.098462,143.519021 95.778042,135.642168 95.778042,135.642168 L106.181818,119.178881 L109.5,101.694615 L110.464825,96.5897203 L110.648601,95.6453147 L113.956573,78.2274126 L124.217413,80.2183217 C124.217413,80.2183217 125.565105,89.0140559 126.473776,98.4887413 C126.473776,98.6214685 126.499301,98.7541958 126.50951,98.8818182 C126.693287,100.791049 126.851538,102.725804 126.979161,104.614615 C127.295464,108.492995 127.353447,112.388119 127.152727,116.274196 Z" id="Path" fill="#EBCC91"></path>
                    <path d="M112.884545,110.092168 L111.353077,129.909371 C111.353077,130.154406 111.715524,130.154406 111.735944,129.909371 L113.267413,110.092168 C113.267413,109.842028 112.89986,109.847133 112.884545,110.092168 Z" id="Path" fill="#101B48"></path>
                    <path d="M126.958741,104.604406 C122.706364,105.569231 116.784685,104.752448 111.720629,101.842657 C110.827273,101.332168 110.041119,102.138741 109.47958,101.694615 L110.444406,96.5897203 C110.841195,96.4566584 111.245112,96.3458795 111.654266,96.2579021 C111.654266,96.2579021 117.703566,99.667972 126.458462,98.4887413 C126.458462,98.6214685 126.483986,98.7541958 126.494196,98.8818182 C126.672867,100.780839 126.831119,102.715594 126.958741,104.604406 Z" id="Path" fill="#FFF0DE"></path>
                    <path d="M126.489091,98.8716084 C120.102867,100.71958 113.839161,97.6566434 110.628182,95.6351049 L113.936154,78.2172028 L124.196993,80.2081119 C124.196993,80.2081119 125.58042,89.2437762 126.489091,98.8716084 Z" id="Path" fill="#EF907B"></path>
                    <path d="M130.302448,81.611958 C130.126445,81.8303361 129.851232,81.9438856 129.572448,81.9131469 C126.565664,81.5813287 110.173846,79.7690909 97.1665734,78.1202098 L93.1643357,77.6097203 C90.5659441,77.2676923 88.2023776,76.9358741 86.236993,76.6397902 C85.655035,76.5581119 85.1088112,76.4713287 84.6034266,76.3947552 C82.2041259,76.0067832 80.6726573,75.6902797 80.4684615,75.4911888 C79.9188801,74.8765926 79.7521168,74.0094233 80.0345455,73.2348252 C80.1911554,72.5849997 80.7511265,72.1118138 81.417972,72.0658042 C82.1683916,72.0045455 83.3272028,71.9228671 84.8127273,71.8156643 L86.721958,71.688042 L93.5829371,71.1775524 L97.8353147,70.8967832 C109.106923,70.131049 123.027972,69.2479021 130.399441,69.0181818 C130.746641,69.0055611 131.065556,69.208692 131.200909,69.5286713 C133.972867,75.5218182 131.599091,80.0702797 130.302448,81.611958 Z" id="Path" fill="#FFFFFF"></path>
                    <path d="M86.236993,76.6346853 C86.0685315,75.4707692 85.894965,73.193986 86.721958,71.6829371 L84.8127273,71.8105594 C84.3022378,72.6834965 83.8785315,74.1792308 84.6034266,76.404965 L86.236993,76.6346853 Z" id="Path" fill="#EDEDED"></path>
                    <path d="M97.1665734,78.1048951 L93.1643357,77.5944056 C92.1433566,74.266014 92.806993,72.2904196 93.5829371,71.1826573 L97.8353147,70.9018881 C96.7326573,73 96.993007,76.4713287 97.1665734,78.1048951 Z" id="Path" fill="#EDEDED"></path>
                    <path d="M130.174825,82.1888112 L130.113566,82.2245455 L130.016573,82.2755944 L125.697832,81.8876224 L121.317832,81.4945455 C117.157343,74.7816084 121.736434,68.9722378 121.736434,68.9722378 L126.51972,68.8497203 L131.211119,68.7323077 L131.849231,68.7323077 C134.927483,78.6153846 131.012028,81.6783217 130.174825,82.1888112 Z" id="Path" fill="#BCBCBC"></path>
                    <path d="M130.174825,82.1888112 C129.72049,81.4077622 129.179371,79.9477622 129.031329,77.3034266 C128.760769,72.463986 130.16972,69.7583916 130.16972,69.7583916 C130.570826,69.207519 131.175553,68.8399043 131.849231,68.7374126 C134.927483,78.6153846 131.012028,81.6783217 130.174825,82.1888112 Z" id="Path" fill="#9E9E9E"></path>
                    <path d="M131.844126,75.1542657 C131.844126,78.2172028 130.312657,80.9738462 129.837902,80.9738462 C129.363147,80.9738462 129.026224,78.3499301 129.026224,75.4758741 C129.026224,72.6018182 129.843007,69.6767133 130.307552,69.6767133 C130.772098,69.6767133 131.844126,71.8871329 131.844126,75.1542657 Z" id="Path" fill="#101B48"></path>
                    <path d="M126.514615,68.8497203 C125.33028,70.3454545 122.762517,74.7152448 125.692727,81.8876224 L130.011469,82.2755944 L130.108462,82.2245455 C129.383566,79.7435664 127.959301,73.2297203 131.206014,68.7323077 L126.514615,68.8497203 Z" id="Path" fill="#FFFFFF"></path>
                    <path d="M125.53958,69.8400699 L121.348462,69.8094406 C121.241326,69.8094406 121.154476,69.8962911 121.154476,70.0034266 C121.154476,70.1105621 121.241326,70.1974126 121.348462,70.1974126 L125.53958,70.228042 C125.646716,70.228042 125.733566,70.1411915 125.733566,70.0340559 C125.733566,69.9269204 125.646716,69.8400699 125.53958,69.8400699 Z" id="Path" fill="#101B48"></path>
                    <path d="M124.681958,71.5502098 C123.320653,71.5706294 121.950839,71.5246853 120.572517,71.4123776 C120.322378,71.4123776 120.322378,71.7799301 120.572517,71.8003497 C121.933823,71.9126573 123.303636,71.9586014 124.681958,71.9381818 C124.789094,71.9381818 124.875944,71.8513313 124.875944,71.7441958 C124.875944,71.6370603 124.789094,71.5502098 124.681958,71.5502098 Z" id="Path" fill="#101B48"></path>
                    <path d="M124.115315,73.7606294 C122.66042,73.7606294 121.210629,73.7095804 119.760839,73.6636364 C119.510699,73.6636364 119.510699,74.0413986 119.760839,74.0516084 C121.210629,74.0975524 122.66042,74.1332867 124.115315,74.1486014 C124.22245,74.1486014 124.309301,74.0617509 124.309301,73.9546154 C124.309301,73.8474799 124.22245,73.7606294 124.115315,73.7606294 Z" id="Path" fill="#101B48"></path>
                    <path d="M124.196993,76.3181818 C122.699557,76.3828438 121.207226,76.3930536 119.72,76.3488112 C119.612864,76.3488112 119.526014,76.4356617 119.526014,76.5427972 C119.526014,76.6499327 119.612864,76.7367832 119.72,76.7367832 C121.210629,76.7810256 122.70296,76.7708159 124.196993,76.7061538 C124.442028,76.6959441 124.447133,76.307972 124.196993,76.3181818 Z" id="Path" fill="#101B48"></path>
                    <path d="M124.845315,79.2892308 L120.455105,79.2892308 C120.347969,79.2892308 120.261119,79.3760813 120.261119,79.4832168 C120.261119,79.5903523 120.347969,79.6772028 120.455105,79.6772028 L124.845315,79.6772028 C124.95245,79.6772028 125.039301,79.5903523 125.039301,79.4832168 C125.039301,79.3760813 124.95245,79.2892308 124.845315,79.2892308 Z" id="Path" fill="#101B48"></path>
                    <path d="M53.6013986,103.241399 C53.6013986,103.241399 70.1259441,105.079161 79.8967133,99.1574825 L81.0759441,106.457483 C81.0759441,106.457483 57.3943357,115.921958 55.2962238,112.93049 C54.1425175,111.235664 53.6013986,103.241399 53.6013986,103.241399 Z" id="Path" fill="#FFF0DE"></path>
                    <path d="M120.077343,80.8462238 C119.925028,87.1276281 118.969457,93.3637147 117.233916,99.4025175 C117.126713,99.8058042 117.014406,100.209091 116.891888,100.607273 C116.662168,101.408741 116.417133,102.21021 116.161888,102.996364 C110.842587,119.73021 101.791608,133.247972 100.22951,135.034685 C99.9640559,135.340979 100.867622,138.388601 100.944196,138.873566 C101.24028,140.680699 101.495524,142.498042 101.73035,144.315385 C102.659441,151.462238 103.348601,158.63972 103.991818,165.822308 C104.604406,172.698601 105.722378,179.748462 105.625385,186.655385 C105.625385,188.186853 105.788741,190.989441 104.604406,192.189091 C84.2716084,207.432308 48.961049,192.189091 48.961049,192.189091 C48.961049,192.189091 53.6116084,176.91014 59.8753147,170.059371 C60.8962937,168.966923 60.7227273,167.506923 60.932028,166.746294 C61.0201797,166.468591 61.0817156,166.183133 61.1158042,165.893776 C59.9927273,165.618112 57.424965,165.128042 57.67,164.581818 C57.4517099,164.482303 57.2387206,164.371549 57.0318881,164.25 C48.8640559,159.737273 38.2611888,140.292727 36.7654545,129.766434 C34.8511189,116.274196 85.0271329,96.8245455 95.9822378,109.51021 C97.9118881,107.07007 100.142727,103.072937 102.194895,98.9737063 C102.589674,98.1807459 102.975944,97.3911888 103.353706,96.605035 C103.66,95.9771329 103.956084,95.3492308 104.241958,94.7315385 C106.876084,89.1161538 108.836364,84.2971329 108.836364,84.2971329 C105.533497,83.4190909 105.262937,75.8536364 107.202797,73.4645455 C108.642378,71.688042 108.693427,77.7577622 108.693427,77.7577622 C108.693427,77.7577622 109.48979,72.6783916 111.506224,72.1423776 C113.522657,71.6063636 112.093287,77.2472727 112.016713,77.6046154 C112.149441,77.283007 112.838601,73.8525175 115.421678,73.8525175 C116.534545,73.8525175 115.727972,76.0476224 116.243566,78.2325175 C116.759161,80.4174126 120.077343,80.8462238 120.077343,80.8462238 Z" id="Path" fill="#FCD997"></path>
                    <path d="M57.5270629,164.714545 C59.0585315,165.975455 61.4220979,166.184755 63.2904895,166.052028 C69.6307692,165.592587 75.2155245,161.197273 79.7741958,157.16951 C88.8815753,149.065132 97.038752,139.952317 104.088811,130.006364 C104.231748,129.802168 103.89993,129.613287 103.756993,129.812378 C97.528752,138.519659 90.4770176,146.607357 82.6993007,153.963636 C77.6301399,158.767343 71.6574126,164.346993 64.4697203,165.526224 C62.392028,165.863147 59.5230769,165.888671 57.7874126,164.443986 C57.5985315,164.285734 57.327972,164.556294 57.5168531,164.714545 L57.5270629,164.714545 Z" id="Path" fill="#101B48"></path>
                    <path d="M95.8290909,109.413217 C92.2725671,114.053168 88.4403903,118.475172 84.3532867,122.655315 C77.1196503,130.154406 69.0130769,137.50035 59.4056643,141.798671 C59.181049,141.900769 59.375035,142.232587 59.5996503,142.13049 C69.2274825,137.821958 77.3748951,130.44028 84.6136364,122.925874 C88.722507,118.719509 92.5751259,114.270245 96.1506993,109.602098 C96.2987413,109.408112 95.9669231,109.214126 95.8188811,109.413217 L95.8290909,109.413217 Z" id="Path" fill="#101B48"></path>
                    <path d="M56.8838462,128.132867 C59.6558042,131.706294 62.4532867,135.601329 65.8786713,138.587692 C66.0624476,138.745944 66.3381119,138.475385 66.1492308,138.317133 C62.7238462,135.330769 59.9263636,131.445944 57.1544056,127.862308 C57.0063636,127.668322 56.7358042,127.943986 56.8838462,128.132867 Z" id="Path" fill="#101B48"></path>
                    <path d="M78.788951,100.295091 L79.7741958,105.519234 C79.8099301,105.722491 80.1774825,105.635999 80.1417483,105.432741 L79.1616084,100.208599 C79.1207692,100.005341 78.7532168,100.091834 78.788951,100.295091 Z" id="Path" fill="#101B48"></path>
                    <path d="M74.653986,101.823542 L75.674965,106.366703 C75.7158042,106.539776 76.0833566,106.464056 76.0425175,106.294589 L75.0215385,101.751429 C74.9858042,101.581962 74.6131469,101.654075 74.653986,101.823542 Z" id="Path" fill="#101B48"></path>
                    <path d="M70.1004196,103.109219 L71.0754545,107.227628 C71.1111888,107.39587 71.4838462,107.325769 71.443007,107.161033 L70.4730769,103.039119 C70.4322378,102.870877 70.0646853,102.940978 70.1004196,103.109219 Z" id="Path" fill="#101B48"></path>
                    <path d="M64.724965,103.79874 L65.6846853,107.855429 C65.7255245,108.022859 66.0930769,107.949608 66.0573427,107.785666 L65.0925175,103.728977 C65.0567832,103.565035 64.6841259,103.634798 64.724965,103.79874 Z" id="Path" fill="#101B48"></path>
                    <path d="M59.7834266,103.986713 L60.7482517,109.811399 C60.7890909,110.056434 61.1566434,109.949231 61.1158042,109.709301 L60.1713986,103.884615 C60.1356643,103.63958 59.763007,103.741678 59.8038462,103.986713 L59.7834266,103.986713 Z" id="Path" fill="#101B48"></path>
                    <path d="M55.2962238,103.874406 L56.2559441,109.811399 C56.2967832,110.056434 56.6643357,109.949231 56.6286014,109.709301 L55.6433566,103.772308 C55.6025175,103.532378 55.234965,103.634476 55.2758042,103.874406 L55.2962238,103.874406 Z" id="Path" fill="#101B48"></path>
                    <path d="M120.077343,80.8462238 C119.90799,87.5447506 118.836526,94.1898885 116.891888,100.602168 C110.669021,101.760979 105.957203,98.8562937 103.363916,96.605035 C106.426853,90.2341259 108.861888,84.2971329 108.861888,84.2971329 C105.553916,83.4190909 105.288462,75.8536364 107.223217,73.4645455 C107.606084,72.9897902 108.131888,72.6988112 108.596434,73.2501399 C108.957114,73.6814731 109.165278,74.2198304 109.188601,74.7816084 C109.147762,73.5870629 110.495455,72.3976224 111.531748,72.1168531 C113.492028,71.6063636 112.552727,74.8428671 112.450629,75.1797902 C112.71569,73.9533927 113.448143,72.8785183 114.492587,72.1832168 C115.138181,71.8228905 115.901294,71.7364656 116.611119,71.9432867 C116.867492,72.0219464 117.08684,72.1905361 117.228811,72.418042 C117.703566,73.2501399 117.116503,74.311958 116.794895,75.0879021 C116.391608,76.0425175 116.029161,77.1553846 116.284406,78.1967832 C116.764266,80.396993 120.077343,80.8462238 120.077343,80.8462238 Z" id="Path" fill="#EFC3A5"></path>
                    <path d="M113.328671,79.9732867 C111.618531,78.7736364 111.797203,76.1241958 112.792657,74.556993 C112.925385,74.3425874 112.588462,74.1486014 112.455734,74.363007 C111.353077,76.1293007 111.250979,78.9931469 113.12958,80.3102098 C113.328671,80.4531469 113.522657,80.1162238 113.328671,79.9732867 Z" id="Path" fill="#EF907B"></path>
                    <path d="M110.653706,80.3408392 C108.453497,79.1411888 108.545385,76.9103497 109.178392,74.7969231 C109.204079,74.6954216 109.144585,74.5918504 109.043964,74.5629047 C108.943343,74.5339589 108.837908,74.5900846 108.805734,74.6897203 C108.116573,77.0022378 108.096154,79.3862238 110.45972,80.6777622 C110.679231,80.7951748 110.873217,80.4633566 110.653706,80.3408392 Z" id="Path" fill="#EF907B"></path>
                    <path d="M117.233916,99.4025175 C117.126713,99.8058042 117.014406,100.209091 116.891888,100.607273 C116.662168,101.408741 116.417133,102.21021 116.161888,102.996364 C108.713846,104.308322 104.088811,100.836993 102.205105,98.9737063 C102.599883,98.1807459 102.986154,97.3911888 103.363916,96.605035 C103.67021,95.9771329 103.966294,95.3492308 104.252168,94.7315385 C108.402448,98.4172727 114.34965,99.2340559 117.233916,99.4025175 Z" id="Path" fill="#FFF0DE"></path>
                    <path d="M103.792727,163.657832 L103.629371,163.867133 L103.328182,164.168322 C101.972523,165.450094 100.44304,166.53448 98.7848252,167.38951 C98.6776224,167.450769 98.5653147,167.512028 98.4427972,167.568182 C96.2462321,168.677524 93.9307905,169.533826 91.540979,170.120629 L91.1632168,170.217622 C88.6826379,170.816454 86.1605007,171.227709 83.6181818,171.447902 L83.2097902,171.483636 C80.7190137,171.68693 78.2192367,171.758498 75.7209091,171.698042 L75.3329371,171.698042 C73,171.636783 70.4883916,171.478531 67.793007,171.187552 L67.4101399,171.146713 C65.6098135,170.956131 63.722704,170.704289 61.7488112,170.391189 L61.3608392,170.335035 C60.8503497,170.253357 60.3755944,170.176783 59.8753147,170.084895 C60.344965,168.686154 60.7227273,167.532448 60.932028,166.771818 L62.1827273,166.945385 L62.5706993,166.996434 C64.143007,167.195524 65.9501399,167.384406 67.9053147,167.532448 L68.2932867,167.557972 C70.4781818,167.706014 72.8468531,167.797902 75.3023077,167.772378 L75.6902797,167.772378 C77.8853846,167.741748 80.1468531,167.624336 82.4083217,167.379301 L82.7911888,167.333357 C85.140055,167.07566 87.468321,166.656061 89.7593706,166.077552 C89.886993,166.077552 90.0095105,166.016294 90.1371329,165.985664 C92.4414672,165.390927 94.67757,164.557735 96.8092308,163.49958 L97.1563636,163.320909 C98.7073272,162.527586 100.165955,161.565439 101.505734,160.451958 C101.607832,160.37028 101.715035,160.283497 101.812028,160.196713 C102.347134,159.734743 102.85829,159.245738 103.343497,158.731608 C103.455804,160.344755 103.563007,161.717972 103.792727,163.657832 Z" id="Path" fill="#FFF0DE"></path>
                    <path d="M62.5604895,166.970909 C62.3358741,168.114406 62.05,169.242587 61.7386014,170.365664 L61.3506294,170.30951 C61.6773427,169.191538 61.9479021,168.063357 62.1725175,166.91986 L62.5604895,166.970909 Z" id="Path" fill="#BCBCBC"></path>
                    <path d="M68.2830769,167.532448 C68.0788811,168.737203 67.9104196,169.941958 67.7725874,171.162028 L67.3897203,171.121189 C67.5190443,169.909627 67.6892075,168.704872 67.9002098,167.506923 L68.2830769,167.532448 Z" id="Path" fill="#BCBCBC"></path>
                    <path d="M75.7106993,171.677622 L75.3227273,171.677622 C75.2818881,170.370769 75.2716783,169.069021 75.2920979,167.757063 L75.6800699,167.757063 C75.6596503,169.063916 75.6698601,170.370769 75.7106993,171.677622 Z" id="Path" fill="#BCBCBC"></path>
                    <path d="M83.607972,171.427483 L83.1995804,171.463217 C83.0769001,170.988819 82.9898742,170.505911 82.9392308,170.018531 C82.7605594,169.135385 82.5767832,168.242028 82.3981119,167.353776 L82.780979,167.307832 L83.1995804,169.34979 C83.2564852,170.0556 83.3934966,170.752645 83.607972,171.427483 Z" id="Path" fill="#BCBCBC"></path>
                    <path d="M91.5307692,170.10021 L91.153007,170.197203 C90.7480186,168.795058 90.2800699,167.413333 89.7491608,166.052028 C89.8767832,166.052028 89.9993007,165.990769 90.1269231,165.96014 C90.6578322,167.318042 91.1223776,168.701469 91.5307692,170.10021 Z" id="Path" fill="#BCBCBC"></path>
                    <path d="M98.7746154,167.363986 C98.6674126,167.425245 98.5551049,167.486503 98.4325874,167.542657 C97.8404196,166.205175 97.2941958,164.852378 96.799021,163.458741 L97.1461538,163.28007 C97.6362238,164.668601 98.1824476,166.031608 98.7746154,167.363986 Z" id="Path" fill="#BCBCBC"></path>
                    <path d="M103.629371,163.867133 C103.118881,162.611329 102.363357,161.447413 101.812028,160.196713 C101.715035,160.283497 101.607832,160.37028 101.505734,160.451958 C102.082587,161.712867 102.827902,162.892098 103.328182,164.168322 L103.629371,163.867133 Z" id="Path" fill="#BCBCBC"></path>
                    <path d="M187.696783,86.3237762 C186.1885,86.6608939 184.647875,86.8320744 183.102378,86.8342657 C171.862981,86.584486 162.881916,77.4016121 162.881916,66.1594406 C162.881916,54.917269 171.862981,45.7343952 183.102378,45.4846154 L183.173846,45.4846154 C183.766014,45.4846154 184.347972,45.5152448 184.924825,45.5662937 L185.052448,45.5662937 C186.888205,45.7313718 188.692146,46.1505734 190.412587,46.8118881 C191.847991,47.3437204 193.218131,48.0373538 194.496503,48.8793706 C198.662098,60.3041259 196.931538,74.2558042 187.696783,86.3237762 Z" id="Path" fill-opacity="0.9" fill="#4A63A0"></path>
                    <path d="M187.528322,69.9779021 C185.389371,75.7974825 180.891958,80.3765734 176.496643,84.7820979 C176.256713,85.0169231 176.016783,85.261958 175.766643,85.4967832 C166.442583,81.9476539 160.981709,72.2475627 162.78347,62.434914 C164.585231,52.6222652 173.135895,45.4949191 183.112587,45.4897203 L183.184056,45.4897203 C185.363846,48.1544755 186.88,52.0801399 187.650839,54.4692308 C189.320313,59.5110136 189.277241,64.9631243 187.528322,69.9779021 Z" id="Path" fill-opacity="0.8" fill="#6076C2"></path>
                    <path d="M168.242028,54.1986713 C167.963462,54.6167408 167.990387,55.1676597 168.308392,55.5565734 C168.570252,55.7596378 168.910127,55.8328707 169.232378,55.7556643 C169.587453,55.6763422 169.930671,55.5510674 170.253357,55.383007 C170.763846,55.1532867 171.238601,54.9184615 171.713357,54.653007 C172.009441,54.4896503 172.331049,54.265035 172.361678,53.9281119 C172.453566,53.0296503 170.916993,52.9939161 170.31972,52.9632867 C169.454856,52.969578 168.660618,53.4418279 168.242028,54.1986713 Z" id="Path" fill="#283965"></path>
                    <path d="M172.831329,55.040979 C172.758897,55.157501 172.720034,55.2917551 172.719021,55.428951 C172.74818,55.6303191 172.879528,55.8022303 173.066154,55.8832867 C173.249601,55.9623599 173.44853,55.9990048 173.648112,55.9904895 C174.24028,55.9904895 176.414965,55.48 175.383776,54.5202797 C174.679301,53.8617483 173.265245,54.2854545 172.831329,55.040979 Z" id="Path" fill="#283965"></path>
                    <path d="M169.799021,56.843007 C169.876833,56.9496897 169.988339,57.0270244 170.115524,57.0625175 C170.707692,57.2769231 172.964056,56.7511189 172.024755,55.9139161 C171.694223,55.6126498 171.248516,55.4709186 170.804685,55.5259441 C170.35035,55.6433566 169.482517,56.2916783 169.799021,56.843007 Z" id="Path" fill="#283965"></path>
                    <path d="M180.754126,42.2072727 C179.850559,42.0847552 178.952098,41.9265035 178.048531,41.7886713 C178.048531,41.2067133 178.048531,40.6196503 178.002587,40.0274825 C178.002587,39.7824476 177.594196,39.7824476 177.614615,40.0274825 C177.655455,40.5992308 177.665664,41.1658741 177.660559,41.7325175 C176.924683,41.6235426 176.18334,41.5553732 175.43993,41.5283217 C175.332795,41.5283217 175.245944,41.6151722 175.245944,41.7223077 C175.245944,41.8294432 175.332795,41.9162937 175.43993,41.9162937 C176.18334,41.9433452 176.924683,42.0115147 177.660559,42.1204895 C177.641784,42.9967542 177.571898,43.8711771 177.451259,44.7393007 C177.415524,44.9843357 177.788182,45.0915385 177.823916,44.8413986 C177.950263,43.9583305 178.023564,43.0684831 178.043427,42.1766434 C178.946993,42.3144755 179.850559,42.4727273 180.754126,42.5952448 C180.999161,42.630979 180.999161,42.243007 180.754126,42.2072727 Z" id="Path" fill="#C6ECAE"></path>
                    <path d="M146.883147,154.913147 C138.818691,170.412993 125.63658,182.642702 109.576573,189.524336 C109.288954,187.928325 109.131884,186.311528 109.106923,184.69 C108.815944,166.822867 124.932098,152.845664 139.225804,153.493986 C140.527917,153.550127 141.824409,153.698541 143.105524,153.938112 C144.386555,154.171794 145.649044,154.497652 146.883147,154.913147 Z" id="Path" fill-opacity="0.8" fill="#6076C2"></path>
                    <path d="M145.78049,154.571119 C145.733427,154.540746 145.681687,154.518325 145.627343,154.504755 C145.372098,154.438392 145.116853,154.372028 144.825874,154.310769 C144.259231,154.172937 143.692587,154.045315 143.110629,153.938112 L143.110629,153.968741 C141.819091,153.739021 140.731748,153.596084 140.731748,153.596084 L140.16,157.838252 L139.991538,158.083287 L132.614965,162.136573 L137.796434,161.314685 C133.921818,166.894336 129.562238,172.167692 124.35014,176.501748 C120.54972,179.709623 116.250993,182.27541 111.623636,184.097832 C110.799672,184.36043 109.958836,184.566801 109.106923,184.715524 C109.131884,186.337052 109.288954,187.953849 109.576573,189.54986 C125.63658,182.668227 138.818691,170.438518 146.883147,154.938671 C146.51049,154.790629 146.153147,154.678322 145.78049,154.571119 Z" id="Path" fill-opacity="0.8" fill="#6076C2" opacity="0.13" style="mix-blend-mode: multiply;"></path>
                    <circle id="Oval" fill="#FFFFFF" cx="185.241329" cy="106.135874" r="1"></circle>
                    <path d="M250.395105,71.8513986 C250.395105,72.1643471 250.14141,72.418042 249.828462,72.418042 C249.515513,72.418042 249.261818,72.1643471 249.261818,71.8513986 C249.261818,71.5384501 249.515513,71.2847552 249.828462,71.2847552 C250.14141,71.2847552 250.395105,71.5384501 250.395105,71.8513986 Z" id="Path" fill="#FFFFFF"></path>
                    <path d="M244.105874,59.7272727 C244.105874,60.0402212 243.852179,60.2939161 243.539231,60.2939161 C243.226282,60.2939161 242.972587,60.0402212 242.972587,59.7272727 C242.972587,59.4143242 243.226282,59.1606294 243.539231,59.1606294 C243.689514,59.1606294 243.833642,59.2203291 243.939908,59.3265954 C244.046174,59.4328616 244.105874,59.5769896 244.105874,59.7272727 Z" id="Path" fill="#FFFFFF"></path>
                    <circle id="Oval" fill="#FFFFFF" cx="185.241329" cy="140.078322" r="1"></circle>
                    <path d="M174,109.701442 C164.811189,120.28389 164.193846,144.80035 169.298741,157.373706 C175.511399,172.688392 190.555524,184.281608 206.753357,187.053566 C223.431049,189.912308 241.941399,185.363846 254.514755,173.780839 C256.12508,172.298372 257.628004,170.703328 259.012168,169.007762 C272.238951,152.712937 271.773229,133.763111 267.857774,114.303251 C266.438613,107.299335 235.946038,80.9288716 213.082051,85.7991557 C192.546732,90.1734075 177.490385,105.686896 174,109.701442 Z" id="Path" fill-opacity="0.8" fill="#E2EEF5"></path>
                    <path d="M262.315035,142.692028 C259.939883,165.969548 239.145887,182.915333 215.868041,180.543375 C192.590196,178.171418 175.641557,157.379747 178.01032,134.101577 C180.379083,110.823406 201.168428,93.8719142 224.446923,96.2374825 C226.091426,96.4033288 227.724515,96.6675551 229.337413,97.0287413 C250.320521,101.682599 264.49517,121.309881 262.315035,142.692028 Z" id="Path" fill-opacity="0.9" fill="#4A63A0"></path>
                    <path d="M246.826783,134.769231 C245.499634,147.787905 237.997586,159.375864 226.662673,165.915509 C215.327761,172.455154 201.540847,173.1498 189.606014,167.782587 C177.288077,154.972054 174.273642,135.83575 182.056848,119.858796 C189.840053,103.881841 206.766706,94.4598786 224.446923,96.263007 C226.091426,96.4288533 227.724515,96.6930796 229.337413,97.0542657 C241.634794,105.473834 248.344604,119.943209 246.826783,134.769231 Z" id="Path" fill-opacity="0.8" fill="#6076C2"></path>
                    <polygon id="Path" fill-opacity="0.8" fill="#4A63A0" points="223.798601 128.898601 251.084266 125.937762 245.356573 114.855035"></polygon>
                    <path d="M184.363287,120.899231 C184.396975,121.003954 184.441456,121.104893 184.496014,121.20042 C184.842266,121.687479 185.440201,121.928646 186.027483,121.818112 C187.325893,121.540656 188.414262,120.660859 188.957692,119.449441 C189.333081,118.664391 189.17811,117.728451 188.56972,117.106294 C188.122674,116.757024 187.530192,116.655401 186.992308,116.835734 C185.751818,117.218601 183.908951,119.413706 184.363287,120.899231 Z" id="Path" fill="#4A63A0"></path>
                    <path d="M190.826084,121.220839 C190.800457,121.165338 190.769693,121.112357 190.734196,121.062587 C190.512017,120.816863 190.167023,120.723136 189.851049,120.822657 C189.158899,121.053674 188.617236,121.599124 188.391049,122.292867 C188.236704,122.746594 188.378943,123.248493 188.748392,123.553776 C189.015334,123.712639 189.34288,123.731682 189.626434,123.604825 C190.29007,123.318951 191.163007,122.006993 190.826084,121.220839 Z" id="Path" fill="#4A63A0"></path>
                    <path d="M234.866014,157.741259 C234.824991,157.647356 234.773625,157.558321 234.712867,157.475804 C234.338835,157.052569 233.750041,156.89035 233.212028,157.062308 C232.033152,157.457487 231.114654,158.393065 230.741259,159.579021 C230.474493,160.348831 230.71717,161.203299 231.348741,161.717972 C231.800309,161.998781 232.363462,162.031455 232.844476,161.804755 C233.957343,161.314685 235.442867,159.083846 234.866014,157.741259 Z" id="Path" fill="#4A63A0"></path>
                    <path d="M237.295944,153.912587 C237.272403,153.852848 237.241538,153.796261 237.204056,153.744126 C236.971417,153.483875 236.607912,153.384011 236.274965,153.488881 C235.546865,153.736311 234.978859,154.313784 234.743497,155.045874 C234.582384,155.522275 234.732781,156.048667 235.121259,156.368042 C235.399877,156.542007 235.74761,156.56314 236.045245,156.424196 C236.734406,156.123007 237.658392,154.73958 237.295944,153.912587 Z" id="Path" fill="#4A63A0"></path>
                    <path d="M229.082168,160.411119 C229.056743,160.352852 229.024162,160.297977 228.985175,160.247762 C228.753254,159.986355 228.389004,159.886287 228.056084,159.992517 C227.332439,160.232592 226.76469,160.800341 226.524615,161.523986 C226.358416,162.000789 226.507184,162.530645 226.897273,162.851259 C227.177761,163.025214 227.526966,163.046319 227.826364,162.907413 C228.520629,162.626643 229.43951,161.243217 229.082168,160.411119 Z" id="Path" fill="#4A63A0"></path>
                    <path d="M187.201608,123.288322 C187.177705,123.234585 187.148641,123.183295 187.114825,123.135175 C186.893117,122.888746 186.548664,122.793175 186.231678,122.89014 C185.537025,123.120037 184.994315,123.668441 184.771678,124.365455 C184.616614,124.817599 184.759144,125.318488 185.129021,125.621259 C185.394315,125.785415 185.724532,125.804614 186.007063,125.672308 C186.670699,125.386434 187.543636,124.074476 187.201608,123.288322 Z" id="Path" fill="#4A63A0"></path>
                    <path d="M111.021259,44.2288112 C110.510769,44.2288112 110.00028,44.1726573 109.459161,44.1216084 L109.505105,43.6111189 C110.015594,43.6621678 110.526084,43.6979021 111.036573,43.7183217 L111.021259,44.2288112 Z" id="Path" fill="#283965"></path>
                    <path d="M102.465455,158.113916 L101.444476,158.113916 L101.444476,157.603427 L102.526713,157.603427 C103.200559,157.603427 103.874406,157.603427 104.568671,157.577902 L104.568671,158.088392 C103.87951,158.108811 103.175035,158.113916 102.465455,158.113916 Z M98.3509091,158.011818 C97.3299301,157.965874 96.2783217,157.89951 95.242028,157.817832 L95.2828671,157.307343 C96.3038462,157.389021 97.3554545,157.455385 98.3764336,157.501329 L98.3509091,158.011818 Z M107.708182,157.955664 L107.672448,157.445175 C108.693427,157.378811 109.745035,157.297133 110.760909,157.18993 L110.817063,157.70042 C109.790979,157.807622 108.734266,157.889301 107.713287,157.955664 L107.708182,157.955664 Z M92.1382517,157.516643 C91.1172727,157.404336 90.0707692,157.271608 89.0446853,157.128671 L89.1161538,156.618182 C90.1371329,156.761119 91.1581119,156.893846 92.1790909,157.011259 L92.1382517,157.516643 Z M113.910629,157.317552 L113.839161,156.807063 L114.410909,156.72028 C115.232797,156.592657 116.07,156.44972 116.896993,156.291469 L116.993986,156.801958 C116.161888,156.96021 115.31958,157.103147 114.487483,157.230769 L113.910629,157.317552 Z M85.9664336,156.648811 C85.0781818,156.495664 84.195035,156.334009 83.316993,156.163846 L82.8983916,156.082168 L83.0004895,155.571678 L83.413986,155.648252 C84.292028,155.821818 85.1700699,155.98007 86.0532168,156.133217 L85.9664336,156.648811 Z M120.051818,156.163846 L119.934406,155.653357 C120.924755,155.423636 121.940629,155.168392 122.941189,154.897832 L123.073916,155.408322 C122.068252,155.699301 121.047273,155.929021 120.051818,156.163846 Z M79.8507692,155.433846 C78.8297902,155.204126 77.8088112,154.959091 76.8184615,154.698741 L76.9460839,154.188252 C77.9670629,154.448601 78.9625175,154.698741 79.9630769,154.918252 L79.8507692,155.433846 Z M126.090909,154.525175 L125.937762,154.014685 C126.912797,153.708392 127.898042,153.381678 128.878182,153.03965 L129.051748,153.524615 C128.046084,153.892168 127.050629,154.218881 126.090909,154.525175 Z M73.8320979,153.881958 C72.8366434,153.596084 71.8360839,153.294895 70.8457343,152.978392 L71.003986,152.467902 C71.9892308,152.779301 72.9846853,153.08049 73.975035,153.366364 L73.8320979,153.881958 Z M131.971748,152.467902 L131.787972,151.982937 C132.737483,151.615385 133.702308,151.222308 134.656923,150.819021 L134.861119,151.293776 C133.880979,151.702168 132.905944,152.095245 131.951329,152.467902 L131.971748,152.467902 Z M67.8951049,151.988042 C66.914965,151.646014 65.9297203,151.283566 64.97,150.916014 L65.1537762,150.431049 C66.1134965,150.798601 67.0936364,151.161049 68.0686713,151.503077 L67.8951049,151.988042 Z M137.714755,150.037972 L137.50035,149.568322 C138.429441,149.144615 139.373846,148.695385 140.302937,148.241049 L140.532657,148.705594 C139.572937,149.15993 138.623427,149.609161 137.689231,150.037972 L137.714755,150.037972 Z M62.0755245,149.752098 C61.126014,149.359021 60.1662937,148.935315 59.2167832,148.506503 L59.4311888,148.036853 C60.3755944,148.465664 61.3302098,148.879161 62.2746154,149.277343 L62.0755245,149.752098 Z M143.30972,147.301748 L143.06979,146.842308 C143.988671,146.367552 144.897343,145.877483 145.806014,145.382308 L146.056154,145.836643 C145.116853,146.336923 144.203077,146.821888 143.284196,147.301748 L143.30972,147.301748 Z M56.403986,147.174126 C55.4697902,146.714685 54.5406993,146.234825 53.6269231,145.74986 L53.871958,145.295524 C54.7755245,145.775385 55.7046154,146.25014 56.6286014,146.70958 L56.403986,147.174126 Z M148.771958,144.31028 L148.511608,143.866154 C149.41007,143.355664 150.303427,142.845175 151.191678,142.293846 L151.457133,142.737972 C150.541655,143.275688 149.638089,143.79979 148.746434,144.31028 L148.771958,144.31028 Z M50.9009091,144.238811 C49.9973427,143.728322 49.0988811,143.182098 48.2259441,142.640979 L48.5016084,142.201958 C49.3643357,142.737972 50.2576923,143.273986 51.1612587,143.794685 L50.9009091,144.238811 Z M154.116783,141.124825 L153.846224,140.685804 C154.724266,140.141282 155.600606,139.589953 156.475245,139.031818 L156.750909,139.470839 C155.852448,140.027273 154.969301,140.578601 154.091259,141.124825 L154.116783,141.124825 Z M45.6071329,140.951259 C44.7393007,140.374406 43.8816783,139.777133 43.0546853,139.174755 L43.360979,138.756154 C44.187972,139.353427 45.0455944,139.945594 45.9134266,140.522448 L45.6071329,140.951259 Z M159.364615,137.781119 L159.083846,137.347203 C159.951678,136.785664 160.816107,136.215618 161.677133,135.637063 L161.963007,136.065874 C161.081562,136.644429 160.206923,137.216177 159.339091,137.781119 L159.364615,137.781119 Z M40.5226573,137.321678 C39.7058741,136.683566 38.8890909,136.025035 38.0978322,135.361399 L38.4296503,134.963217 C39.2158042,135.621748 40.0274825,136.28028 40.8442657,136.913287 L40.5226573,137.321678 Z M164.520559,134.345524 L164.22958,133.916713 L166.782028,132.165734 L167.073007,132.589441 L164.520559,134.345524 Z M35.7495804,133.324545 C34.9787413,132.63028 34.2181119,131.91049 33.4779021,131.185594 L33.8403497,130.818042 C34.5754545,131.537832 35.330979,132.252517 36.0967133,132.941678 L35.7495804,133.324545 Z M169.650979,130.838462 L169.354895,130.40965 L171.907343,128.638252 L172.203427,129.061958 L169.650979,130.838462 Z M31.3083217,128.95986 C30.5936364,128.199231 29.8891608,127.428392 29.2204196,126.642238 L29.6083916,126.305315 C30.2771329,127.076154 30.9765035,127.836783 31.6860839,128.602517 L31.3083217,128.95986 Z M174.755874,127.28035 L174.45979,126.856643 L177.012238,125.075035 L177.303217,125.503846 L174.755874,127.28035 Z M27.2244056,124.242937 C26.5811888,123.436364 25.9430769,122.599161 25.3355944,121.761958 L25.7541958,121.455664 C26.3565734,122.287762 26.9895804,123.11986 27.6327972,123.921329 L27.2244056,124.242937 Z M179.860769,123.732448 L179.56979,123.308741 L181.892517,121.710909 L182.132448,121.547552 L182.423427,121.976364 L182.183497,122.134615 L179.860769,123.732448 Z M185.011608,120.261119 L184.730839,119.827203 C185.675245,119.21972 186.548182,118.688811 187.395594,118.198741 L187.655944,118.647972 C186.839161,119.097203 185.950909,119.623007 185.016713,120.225385 L185.011608,120.261119 Z M23.5335664,119.199301 C23.36,118.938951 23.1864336,118.688811 23.0230769,118.413147 C22.6351049,117.810769 22.2471329,117.182867 21.8744755,116.554965 L22.3186014,116.294615 C22.6912587,116.912308 23.0741259,117.535105 23.456993,118.132378 L23.9674825,118.913427 L23.5335664,119.199301 Z M190.412587,117.152238 L190.182867,116.687692 C191.163007,116.207832 192.127832,115.784126 193.056923,115.426783 L193.240699,115.911748 C192.301399,116.258881 191.351888,116.677483 190.412587,117.152238 Z M196.170909,114.972448 L196.043287,114.461958 C197.060585,114.201518 198.0966,114.0206 199.141958,113.920839 L199.193007,114.431329 C198.164954,114.534684 197.14618,114.715572 196.145385,114.972448 L196.170909,114.972448 Z M20.3736364,113.798322 C19.8631469,112.88965 19.419021,111.95035 18.9748951,111.005944 L19.3986014,110.776224 C19.8376224,111.71042 20.3021678,112.644615 20.782028,113.548182 L20.3736364,113.798322 Z M17.7190909,108.147203 C17.326014,107.192587 16.9482517,106.212448 16.6011189,105.232308 L17.0860839,105.058741 C17.4332168,106.028671 17.8058741,107.003706 18.198951,107.948112 L17.7190909,108.147203 Z M15.6158741,102.271469 C15.3146853,101.25049 15.0288112,100.26014 14.7735664,99.2646853 L15.2840559,99.1370629 C15.5341958,100.122308 15.7945455,101.127972 16.1161538,102.118322 L15.6158741,102.271469 Z M14.0844056,96.2221678 C13.8751049,95.2011888 13.6862238,94.1802098 13.527972,93.1592308 L14.0384615,93.0775524 C14.1967133,94.0985315 14.3855944,95.1195105 14.5897902,96.1404895 L14.0844056,96.2221678 Z M13.1144755,90.0554545 C13.0021678,89.0344755 12.9153846,87.9777622 12.849021,86.9465734 L13.3595105,86.9159441 C13.4258741,87.9369231 13.5126573,88.9579021 13.624965,89.9788811 L13.1144755,90.0554545 Z M12.7367133,83.8274825 C12.7367133,83.5671329 12.7367133,83.316993 12.7367133,83.0464336 C12.7367133,82.2551748 12.7367133,81.469021 12.7775524,80.7032867 L13.288042,80.7032867 C13.2574126,81.4639161 13.2420979,82.2347552 13.2420979,83.026014 C13.2420979,83.2812587 13.2420979,83.5365035 13.2420979,83.7968531 L12.7367133,83.8274825 Z M13.4871329,77.6352448 L12.9766434,77.5893007 C13.0685315,76.5683217 13.1859441,75.5065035 13.3288811,74.4855245 L13.8393706,74.556993 C13.6606993,75.5524476 13.5381818,76.6040559 13.4513986,77.6352448 L13.4871329,77.6352448 Z M14.3498601,71.5093706 L13.8393706,71.4123776 C14.0384615,70.3913986 14.2681818,69.3704196 14.5234266,68.3494406 L15.0339161,68.4770629 C14.7429371,69.4776224 14.5132168,70.4934965 14.2937063,71.5042657 L14.3498601,71.5093706 Z M15.8813287,65.5162238 L15.3708392,65.357972 C15.6822378,64.3676224 16.0242657,63.3772727 16.3918182,62.4073427 L16.8767832,62.5911189 C16.4888112,63.5457343 16.1467832,64.5258741 15.8251748,65.5111189 L15.8813287,65.5162238 Z M18.0406993,59.7272727 L17.5659441,59.5128671 C17.9947552,58.5633566 18.4541958,57.618951 18.9391608,56.7051748 L19.3934965,56.9451049 C18.9187413,57.8537762 18.4593007,58.7930769 18.0406993,59.7272727 Z M20.9300699,54.2599301 L20.4859441,53.9893706 C21.0270629,53.1011189 21.6039161,52.2230769 22.2011888,51.3756643 L22.6248951,51.6717483 C22.0276224,52.508951 21.4405594,53.3818881 20.9300699,54.2599301 Z M24.5034965,49.200979 L24.1002098,48.8793706 C24.7485315,48.0676923 25.4325874,47.2713287 26.1421678,46.5106993 L26.525035,46.8578322 C25.795035,47.6133566 25.1160839,48.4046154 24.5034965,49.200979 Z M28.6895105,44.6576224 L28.3321678,44.2798601 C29.0825874,43.5702797 29.8636364,42.8709091 30.6651049,42.2021678 L30.9969231,42.6003497 C30.1801399,43.2588811 29.4041958,43.9531469 28.663986,44.6576224 L28.6895105,44.6576224 Z M106.380909,43.6366434 C105.400769,43.4375524 104.37979,43.1823077 103.348601,42.876014 L103.491538,42.3655245 C104.512517,42.6667133 105.533497,42.921958 106.488112,43.1159441 L106.380909,43.6366434 Z M100.382657,41.8856643 C99.4586713,41.5436364 98.5142657,41.1607692 97.4881818,40.7217483 L97.6872727,40.246993 C98.7082517,40.6809091 99.6475524,41.0586713 100.561329,41.4006993 L100.382657,41.8856643 Z M33.431958,40.6758042 L33.1256643,40.2572028 C33.9577622,39.6446154 34.8204895,39.0524476 35.6781119,38.4858042 L35.9588811,38.9197203 C35.0859441,39.4965734 34.2283217,40.0836364 33.4064336,40.6911189 L33.431958,40.6758042 Z M94.6396503,39.4455245 C93.7003497,39.0116084 92.7661538,38.5623776 91.8268531,38.108042 L92.0514685,37.6434965 C92.9856643,38.0927273 93.924965,38.541958 94.8591608,38.9758741 L94.6396503,39.4455245 Z M38.6287413,37.3218881 L38.3734965,36.8726573 C39.2770629,36.3621678 40.2061538,35.8772028 41.1403497,35.4177622 L41.3700699,35.8874126 C40.4154545,36.351958 39.4965734,36.8369231 38.6032168,37.3372028 L38.6287413,37.3218881 Z M89.0293706,36.7603497 C88.0900699,36.3162238 87.1558741,35.8720979 86.2165734,35.4432867 L86.4258741,34.9736364 C87.3702797,35.4024476 88.3146853,35.8465734 89.2488811,36.2958042 L89.0293706,36.7603497 Z M44.187972,34.6111888 L43.9888811,34.1313287 C44.9434965,33.7331469 45.9236364,33.3604895 46.9037762,33.0133566 L47.0773427,33.5238462 C46.0818881,33.8607692 45.1068531,34.2334266 44.1624476,34.6265035 L44.187972,34.6111888 Z M83.368042,34.213007 C82.5206294,33.8658741 81.6936364,33.5442657 80.9074825,33.2634965 L80.4786713,33.1103497 L80.6471329,32.5998601 L81.0861538,32.753007 C81.8774126,33.0388811 82.7146154,33.3604895 83.5671329,33.7127273 L83.368042,34.213007 Z M50.0228671,32.5641259 L49.885035,32.0536364 C50.906014,31.7677622 51.926993,31.5074126 52.9071329,31.2776923 L53.0245455,31.7881818 C51.9984615,32.0332168 50.9876923,32.2935664 49.9973427,32.5794406 L50.0228671,32.5641259 Z M77.5229371,32.1914685 C76.5376923,31.9209091 75.5269231,31.680979 74.5161538,31.4716783 L74.6233566,30.9611888 C75.6443357,31.1704895 76.6653147,31.4155245 77.6607692,31.6860839 L77.5229371,32.1914685 Z M56.0823776,31.1704895 L55.9955944,30.66 C57.0165734,30.4915385 58.0630769,30.3486014 59.0891608,30.2413986 L59.1453147,30.7518881 C58.0783916,30.905035 57.0472028,31.0428671 56.0364336,31.2113287 L56.0823776,31.1704895 Z M71.488951,30.9254545 C70.467972,30.7876224 69.446993,30.6753147 68.426014,30.5987413 L68.4617483,30.0882517 C69.4827273,30.1648252 70.5445455,30.2771329 71.5706294,30.4200699 L71.488951,30.9254545 Z M62.2286713,30.5170629 L62.2286713,30.0065734 C63.2496503,29.9555245 64.3165734,29.9402098 65.3528671,29.9504196 L65.3528671,30.4609091 C64.2502098,30.4915385 63.2139161,30.5068531 62.1827273,30.5579021 L62.2286713,30.5170629 Z" id="Shape" fill="#283965" fill-rule="nonzero"></path>
                    <path d="M203.797622,114.625315 C203.287133,114.538531 202.776643,114.467063 202.266154,114.421119 L202.306993,113.910629 C202.832821,113.951756 203.356004,114.021627 203.874196,114.11993 L203.797622,114.625315 Z" id="Path" fill="#283965"></path>
                    <path d="M258.256643,150.298322 C257.235664,150.272797 256.178951,150.206434 255.142657,150.094126 L255.198811,149.583636 C256.21979,149.695944 257.240769,149.762308 258.261748,149.787832 L258.256643,150.298322 Z M261.385944,150.242168 L261.35021,149.731678 C262.029161,149.690839 262.713217,149.62958 263.392168,149.553007 L264.413147,149.41007 L264.48972,149.920559 C264.142587,149.971608 263.79035,150.017552 263.468741,150.058392 C262.764266,150.14007 262.07,150.201329 261.370629,150.242168 L261.385944,150.242168 Z M252.054196,149.644895 C251.033217,149.456014 250.012238,149.226294 248.991259,148.960839 L249.118881,148.45035 C250.13986,148.710699 251.160839,148.960839 252.130769,149.124196 L252.054196,149.644895 Z M267.562867,149.307972 L267.435245,148.797483 C268.425594,148.552448 269.421049,148.256364 270.385874,147.919441 L270.559441,148.42993 C269.574196,148.756643 268.563427,149.062937 267.562867,149.307972 Z M246.015105,148.041958 C245.04007,147.71014 244.05993,147.337483 243.10021,146.934196 L243.299301,146.454336 C244.248811,146.852517 245.218741,147.225175 246.183566,147.551888 L246.015105,148.041958 Z M273.459021,147.235385 L273.244615,146.765734 C274.178811,146.342028 275.097692,145.872378 275.991049,145.366993 L276.246294,145.816224 C275.342727,146.347133 274.403427,146.826993 273.459021,147.250699 L273.459021,147.235385 Z M240.277203,145.627343 C239.353217,145.167902 238.434336,144.667622 237.530769,144.141818 L237.791119,143.692587 C238.684476,144.203077 239.598252,144.713566 240.506923,145.162797 L240.277203,145.627343 Z M278.900839,144.146923 L278.604755,143.723217 C279.447063,143.136154 280.268951,142.508252 281.044895,141.844615 L281.376713,142.242797 C280.580762,142.923935 279.751017,143.564559 278.890629,144.162238 L278.900839,144.146923 Z M234.891538,142.477622 C234.033916,141.900769 233.181399,141.283077 232.339091,140.65007 L232.655594,140.241678 C233.467273,140.86958 234.30958,141.477063 235.162098,142.048811 L234.891538,142.477622 Z M283.658601,140.098741 L283.285944,139.741399 C284.007735,139.006099 284.689376,138.232437 285.327902,137.423776 L285.736294,137.74028 C285.081457,138.566789 284.384571,139.359093 283.648392,140.114056 L283.658601,140.098741 Z M287.507692,135.177622 L287.068671,134.901958 C287.605358,134.035016 288.092796,133.138539 288.528671,132.216783 L288.993217,132.441399 C288.546949,133.386062 288.047572,134.304711 287.497483,135.192937 L287.507692,135.177622 Z M290.177552,129.521399 L289.667063,129.352937 C289.994516,128.381194 290.270562,127.392878 290.494056,126.392098 L291.004545,126.504406 C290.780543,127.529577 290.501065,128.541835 290.167343,129.536713 L290.177552,129.521399 Z M291.540559,123.421049 L291.03007,123.35979 C291.147483,122.338811 291.213846,121.317832 291.239371,120.296853 L291.74986,120.296853 C291.729463,121.346379 291.6562,122.394211 291.53035,123.436364 L291.540559,123.421049 Z M291.167902,117.208392 C291.101538,116.187413 290.989231,115.166434 290.841189,114.145455 L291.351678,114.068881 C291.504825,115.08986 291.617133,116.161888 291.683497,117.177762 L291.167902,117.208392 Z M290.28986,111.082517 C290.080559,110.102378 289.825315,109.091608 289.544545,108.091049 L290.055035,107.948112 C290.340909,108.969091 290.596154,109.99007 290.810559,110.975315 L290.28986,111.082517 Z M288.61035,105.160839 C288.283636,104.206224 287.921189,103.231189 287.533217,102.261259 L288.013077,102.067273 C288.401049,103.047413 288.768601,104.027552 289.095315,104.992378 L288.61035,105.160839 Z M286.318252,99.4178322 C285.904755,98.498951 285.455524,97.5545455 284.990979,96.6203497 L285.45042,96.3906294 C285.925175,97.3299301 286.374406,98.2794406 286.793007,99.2034266 L286.318252,99.4178322 Z M283.551399,93.8841259 C283.173636,93.1847552 282.785664,92.5006993 282.387483,91.8421678 L282.01993,91.2142657 L282.469161,90.9488112 L282.836713,91.5818182 C283.234895,92.2624709 283.624569,92.9533333 284.005734,93.6544056 L283.551399,93.8841259 Z M280.452727,88.5086713 C279.855455,87.4570629 279.385804,86.5841259 278.982517,85.7571329 L279.447063,85.5325175 C279.845245,86.3441958 280.30979,87.2069231 280.901958,88.2534266 L280.452727,88.5086713 Z M277.752238,82.8932867 C277.553147,82.3317483 277.37958,81.7702098 277.241748,81.223986 C277.124336,80.7798601 277.022238,80.3204196 276.935455,79.8660839 L277.445944,79.7690909 C277.527622,80.2132168 277.62972,80.6573427 277.742028,81.0912587 C277.884965,81.6272727 278.053427,82.1734965 278.252517,82.7197203 L277.752238,82.8932867 Z M276.567902,76.7674126 C276.567902,76.3794406 276.567902,75.9965734 276.567902,75.6086014 C276.567902,74.9755944 276.567902,74.311958 276.639371,73.6381119 L277.14986,73.6687413 C277.103916,74.3323776 277.083497,74.9858042 277.083497,75.6086014 C277.083497,75.9863636 277.083497,76.3641259 277.083497,76.7418881 L276.567902,76.7674126 Z M277.461259,70.6058042 L276.950769,70.5292308 C277.083497,69.595035 277.262168,68.5893706 277.461259,67.4662937 L277.971748,67.5632867 C277.767552,68.6608392 277.599091,69.6562937 277.461259,70.5853846 L277.461259,70.6058042 Z M278.62007,64.5258741 L278.10958,64.4135664 L278.272937,63.658042 C278.441399,62.8974126 278.604755,62.1265734 278.783427,61.3812587 L279.293916,61.4884615 C279.133963,62.2507925 278.9638,63.0114219 278.783427,63.7703497 L278.62007,64.5258741 Z M279.870769,58.4306294 L279.36028,58.3438462 C279.554266,57.2360839 279.702308,56.2355245 279.80951,55.2809091 L280.32,55.3421678 C280.217902,56.2865734 280.06986,57.2922378 279.870769,58.4102098 L279.870769,58.4306294 Z M280.534406,52.2281818 L280.023916,52.2281818 C280.023916,52.0597203 280.023916,51.8912587 280.023916,51.7176923 C280.02435,50.8651406 279.980046,50.0131534 279.891189,49.1652448 L280.401678,49.1090909 C280.490859,49.9791698 280.53516,50.8532651 280.534406,51.7279021 C280.53951,51.8606294 280.53951,52.0341958 280.534406,52.2077622 L280.534406,52.2281818 Z M279.33986,46.138042 C279.075418,45.1514203 278.734046,44.1870448 278.318881,43.2537762 L278.788531,43.0444755 C279.208711,44.0020535 279.550167,44.9922762 279.80951,46.0053147 L279.33986,46.138042 Z M223.594406,40.9616783 L223.313636,40.5277622 C224.151273,39.9738879 224.87551,39.2652444 225.447483,38.4398601 L225.871189,38.7359441 C225.26221,39.6171609 224.489203,40.3728362 223.594406,40.9616783 Z M276.843566,40.5481818 C276.289479,39.6888007 275.677159,38.8683946 275.010909,38.0927273 L275.398881,37.7558042 C276.084817,38.5478679 276.714268,39.3871362 277.282587,40.2674126 L276.843566,40.5481818 Z M221.874056,39.1800699 C221.874056,39.032028 221.874056,38.8788811 221.874056,38.7257343 C221.88053,37.8058236 222.039225,36.8933282 222.343706,36.0252448 L222.854196,36.1937063 C222.567567,37.0143526 222.419209,37.8769013 222.415175,38.7461538 C222.415175,38.883986 222.415175,39.0218182 222.415175,39.1647552 L221.874056,39.1800699 Z M113.767692,38.7053147 L113.354196,38.399021 C113.966783,37.5669231 114.58958,36.7399301 115.207273,35.9078322 L115.625874,36.2192308 C115.023497,37.0462238 114.405804,37.8783217 113.788112,38.7053147 L113.767692,38.7053147 Z M272.861748,35.8976224 C272.098378,35.2109131 271.299195,34.5650912 270.467552,33.9628671 L270.768741,33.5442657 C271.616662,34.1571321 272.431205,34.814901 273.208881,35.5147552 L272.861748,35.8976224 Z M227.254615,35.8976224 L226.744126,35.7444755 C227.044517,34.7786297 227.204407,33.774594 227.218881,32.7632168 L227.729371,32.7632168 C227.723215,33.8172702 227.570302,34.8653312 227.275035,35.8772028 L227.254615,35.8976224 Z M117.499371,33.7637762 L117.085874,33.4472727 C117.713776,32.6253846 118.341678,31.8034965 118.97979,30.9867133 L119.388182,31.3032168 C118.77049,32.0995804 118.137483,32.9214685 117.514685,33.7433566 L117.499371,33.7637762 Z M224.242727,33.5646853 L223.829231,33.2532867 C224.177459,32.7932535 224.565203,32.3645147 224.988042,31.971958 C225.34358,31.6438165 225.716794,31.3353608 226.106014,31.047972 L226.412308,31.4665734 C226.038451,31.7403163 225.680526,32.0351783 225.34028,32.3497203 C224.94664,32.7168157 224.584615,33.1164096 224.258042,33.5442657 L224.242727,33.5646853 Z M267.88958,32.3088811 C267.016643,31.7983916 266.097762,31.3185315 265.158462,30.8795105 L265.377972,30.4098601 C266.332587,30.8590909 267.261678,31.3440559 268.14993,31.8596503 L267.88958,32.3088811 Z M229.051538,29.9402098 L228.837133,29.4705594 C229.790594,29.0410924 230.773174,28.6794482 231.777552,28.3883217 L231.925594,28.8988112 C230.950262,29.1727621 229.995065,29.5139039 229.066853,29.9197902 L229.051538,29.9402098 Z M226.912587,29.7462238 C226.684037,28.7520458 226.368004,27.7800303 225.968182,26.8415385 L226.442937,26.6424476 C226.856675,27.6084687 227.182992,28.6096306 227.417972,29.6339161 L226.912587,29.7462238 Z M262.315035,29.6798601 C261.36042,29.3225175 260.375175,29.0009091 259.384825,28.715035 L259.527762,28.2045455 C260.548741,28.4904196 261.528881,28.8222378 262.493706,29.1795804 L262.315035,29.6798601 Z M121.307622,28.8681818 L120.904336,28.5465734 C121.550956,27.7365967 122.206084,26.9334266 122.86972,26.1370629 L123.267902,26.4688811 C122.617879,27.2482284 121.969557,28.0411888 121.322937,28.8477622 L121.307622,28.8681818 Z M234.917063,28.1381818 L234.80986,27.6276923 C235.830839,27.4132867 236.851818,27.2244056 237.872797,27.0712587 L237.954476,27.5817483 C236.959021,27.7144755 235.938042,27.9033566 234.932378,28.1177622 L234.917063,28.1381818 Z M256.393357,27.9748252 C255.882867,27.8676224 255.331538,27.7655245 254.800629,27.6787413 C254.26972,27.591958 253.835804,27.5255944 253.350839,27.4592308 L253.417203,26.9487413 C253.927692,27.0151049 254.397343,27.0865734 254.887413,27.1682517 C255.377483,27.2499301 255.959441,27.3571329 256.495455,27.4694406 L256.393357,27.9748252 Z M241.022517,27.203986 L240.976573,26.6934965 C241.997552,26.5965035 243.049161,26.525035 244.085455,26.4893007 L244.085455,26.9997902 C243.095105,27.0202098 242.058811,27.0865734 241.037832,27.1835664 L241.022517,27.203986 Z M250.277692,27.1274126 C249.256713,27.0508392 248.235734,26.9997902 247.214755,26.9742657 L247.214755,26.4637762 C248.235734,26.4637762 249.297552,26.5352448 250.328741,26.6169231 L250.277692,27.1274126 Z M125.274126,24.1053147 L124.886154,23.7683916 C125.58042,22.9669231 126.274685,22.1858741 126.958741,21.4456643 L127.336503,21.7927972 C126.677972,22.5125874 125.983706,23.2885315 125.289441,24.0848951 L125.274126,24.1053147 Z M224.57965,24.1053147 C224.283566,23.5948252 223.956853,23.0843357 223.604615,22.5381119 C223.374895,22.190979 223.145175,21.8540559 222.905245,21.5171329 L223.328951,21.221049 C223.568881,21.557972 223.803706,21.9 224.033427,22.242028 C224.390769,22.7525175 224.727692,23.3140559 225.054406,23.8347552 L224.57965,24.1053147 Z M129.465245,19.5415385 L129.092587,19.1841958 C129.827692,18.4286713 130.573007,17.6884615 131.303007,16.9890909 L131.66035,17.3617483 C130.950769,18.0355944 130.210559,18.7706993 129.480559,19.5211189 L129.465245,19.5415385 Z M221.041958,19.0514685 C220.393636,18.2704196 219.699371,17.52 219,16.7593706 L219.372657,16.3969231 C220.097552,17.1473427 220.796923,17.9283916 221.455455,18.7247552 L221.041958,19.0514685 Z M133.942238,15.2432168 L133.60021,14.8603497 C134.391469,14.160979 135.187832,13.482028 135.979091,12.8183916 L136.300699,13.2216783 C135.524755,13.8802098 134.733497,14.5540559 133.947343,15.2432168 L133.942238,15.2432168 Z M216.764056,14.6153147 C216.008531,13.9363636 215.232587,13.2727273 214.40049,12.6397203 L214.716993,12.2313287 C215.538881,12.8745455 216.345455,13.5432867 217.111189,14.2324476 L216.764056,14.6153147 Z M138.751049,11.3583916 L138.444755,10.9397902 C139.292168,10.3220979 140.154895,9.72482517 140.997203,9.16839161 L141.277972,9.5972028 C140.450979,10.1536364 139.593357,10.7458042 138.756154,11.3583916 L138.751049,11.3583916 Z M211.904196,10.8479021 C211.056783,10.2812587 210.178741,9.72482517 209.29049,9.19902098 L209.555944,8.7548951 C210.454406,9.26538462 211.337552,9.84734266 212.19007,10.4241958 L211.904196,10.8479021 Z M143.927413,7.98405594 L143.672168,7.53482517 C144.575734,7.02433566 145.49972,6.51384615 146.418601,6.06461538 L146.648322,6.52916084 C145.73965,6.97839161 144.825874,7.46846154 143.927413,7.98405594 Z M206.59,7.68797203 C205.686434,7.22342657 204.747133,6.7793007 203.802727,6.3606993 L204.012028,5.88594406 C204.966643,6.30965035 205.911049,6.75888112 206.824825,7.22853147 L206.59,7.68797203 Z M149.456014,5.24783217 L149.256923,4.76797203 C150.201329,4.3748951 151.181469,4.00223776 152.171818,3.66020979 L152.34028,4.1706993 C151.36014,4.4872028 150.39021,4.85986014 149.456014,5.24783217 Z M200.943986,5.18146853 C199.994476,4.81902098 199.014336,4.47699301 198.023986,4.16048951 L198.187343,3.65 C199.182797,3.97671329 200.173147,4.32384615 201.127762,4.67097902 L200.943986,5.18146853 Z M195.063147,3.26713287 C194.077902,3.00167832 193.067133,2.75664336 192.061469,2.52181818 L192.173776,2.01132867 C193.194755,2.24104895 194.215734,2.52181818 195.200979,2.76685315 L195.063147,3.26713287 Z M155.290909,3.22629371 L155.147972,2.7158042 C156.133217,2.44013986 157.149091,2.20531469 158.175175,1.95517483 L158.287483,2.46566434 C157.271608,2.70048951 156.260839,2.95573427 155.290909,3.22629371 Z M189.029161,1.90923077 C188.008182,1.73055944 186.987203,1.5672028 185.966224,1.42426573 L186.037692,0.913776224 C187.058671,1.05160839 188.105175,1.22006993 189.100629,1.39874126 L189.029161,1.90923077 Z M161.314685,1.86839161 L161.222797,1.3579021 C162.243776,1.17923077 163.264755,1.02608392 164.285734,0.888251748 L164.352098,1.39874126 C163.356643,1.53146853 162.335664,1.69482517 161.314685,1.86839161 Z M182.893077,1.06692308 C181.872098,0.96993007 180.851119,0.888251748 179.83014,0.826993007 L179.860769,0.316503497 C180.881748,0.377762238 181.938462,0.459440559 182.964545,0.556433566 L182.893077,1.06692308 Z M167.445664,1.06692308 L167.39972,0.556433566 C168.420699,0.464545455 169.441678,0.382867133 170.498392,0.321608392 L170.58007,0.832097902 L170.513706,0.832097902 C169.482517,0.898461538 168.461538,0.975034965 167.440559,1.06692308 L167.445664,1.06692308 Z M173.627692,0.714685315 L173.627692,0.204195804 C174.648671,0.183776224 175.684965,0.183776224 176.736573,0.204195804 L176.736573,0.714685315 C175.695175,0.694265734 174.660583,0.694265734 173.632797,0.714685315 L173.627692,0.714685315 Z" id="Shape" fill="#C7F0DB" fill-rule="nonzero"></path>
                    <path d="M266.638881,165.658951 C261.395597,174.633214 253.341886,181.630201 243.723007,185.568042 C243.498392,185.65993 243.595385,186.037692 243.83021,185.940699 C253.545363,181.971961 261.683115,174.91422 266.986014,165.858042 C267.040991,165.762184 267.007851,165.639908 266.911993,165.58493 C266.816135,165.529953 266.693859,165.563093 266.638881,165.658951 Z" id="Path" fill="#B9CEEB"></path>
                    <path d="M272.494196,160.896084 C271.333797,163.87706 269.759668,166.679904 267.818112,169.222168 C267.664965,169.421259 268.001888,169.615245 268.155035,169.416154 C270.110715,166.845602 271.696727,164.013806 272.866853,161.003287 C272.958741,160.768462 272.601399,160.666364 272.494196,160.896084 Z" id="Path" fill="#B9CEEB"></path>
                </g>
            </g>
        </g>
    </g>
</svg>