<?xml version="1.0" encoding="UTF-8"?>
<svg width="166px" height="146px" viewBox="0 0 166 146" version="1.1" xmlns="http://www.w3.org/2000/svg" xmlns:xlink="http://www.w3.org/1999/xlink">
    <title>Group 14</title>
    <g id="Page-1" stroke="none" stroke-width="1" fill="none" fill-rule="evenodd">
        <g id="AddEmp--Form" transform="translate(-965.000000, -190.000000)">
            <g id="Group-14" transform="translate(965.000000, 190.822275)">
                <g id="freepik--background-simple--inject-32" transform="translate(8.000000, 0.177725)" fill="#EDF3FF" fill-rule="nonzero">
                    <path d="M150.613623,80.5167326 C152.493349,52.2926326 138.260687,25.2738323 113.598676,11.5070504 C108.981602,8.93207092 104.100477,6.86416778 99.040195,5.33930615 C59.56594,-6.58813823 44.8414163,3.45602546 34.5029209,16.0112301 C24.1644256,28.5664347 33.8763455,49.9102825 21.9714114,58.6989258 C10.0664774,67.487569 -4.34475861,80.0427736 1.60770842,98.5617004 C7.56017545,117.080627 22.2846992,129.321952 36.0693596,128.066431 C49.8540201,126.810911 64.2652561,110.489145 73.977176,121.161069 C83.6890959,131.832993 114.704582,142.191036 135.068285,124.29987 C145.951901,114.739082 149.586039,95.9439403 150.613623,80.5167326 Z" id="Path"></path>
                    <path d="M150.613623,80.5167326 C152.493349,52.2926326 138.260687,25.2738323 113.598676,11.5070504 C108.981602,8.93207092 104.100477,6.86416778 99.040195,5.33930615 C59.56594,-6.58813823 44.8414163,3.45602546 34.5029209,16.0112301 C24.1644256,28.5664347 33.8763455,49.9102825 21.9714114,58.6989258 C10.0664774,67.487569 -4.34475861,80.0427736 1.60770842,98.5617004 C7.56017545,117.080627 22.2846992,129.321952 36.0693596,128.066431 C49.8540201,126.810911 64.2652561,110.489145 73.977176,121.161069 C83.6890959,131.832993 114.704582,142.191036 135.068285,124.29987 C145.951901,114.739082 149.586039,95.9439403 150.613623,80.5167326 Z" id="Path" opacity="0.7"></path>
                </g>
                <g id="Hello-bro" transform="translate(0.000000, 14.177725)">
                    <g id="freepik--Desk--inject-86" transform="translate(77.951591, 74.997835)" fill-rule="nonzero">
                        <polygon id="Path" fill="#5473E3" points="87.6605059 0.00877167658 85.8036815 0.00877167658 1.95316909 0.00877167658 0.0963446635 0.00877167658 0.0963446635 3.72796254 1.95316909 3.72796254 1.95316909 41.5338886 85.8036815 41.5338886 85.8036815 3.72796254 87.6605059 3.72796254"></polygon>
                        <polygon id="Path" fill="#FFFFFF" opacity="0.5" points="87.6605059 0.00877167658 85.8036815 0.00877167658 1.95316909 0.00877167658 0.0963446635 0.00877167658 0.0963446635 3.72796254 1.95316909 3.72796254 1.95316909 41.5338886 85.8036815 41.5338886 85.8036815 3.72796254 87.6605059 3.72796254"></polygon>
                        <path d="M4.19537217,19.7625873 L27.0684712,19.7625873 L27.0684712,7.5260985 L4.19537217,7.5260985 L4.19537217,19.7625873 Z M4.65957827,7.99099736 L26.604265,7.99099736 L26.604265,19.2976885 L4.65957827,19.2976885 L4.65957827,7.99099736 Z" id="Shape" fill="#FFFFFF"></path>
                        <path d="M32.5995307,19.7625873 L55.4682504,19.7625873 L55.4682504,7.5260985 L32.5995307,7.5260985 L32.5995307,19.7625873 Z M33.0637368,7.99099736 L55.0040443,7.99099736 L55.0040443,19.2976885 L33.0637368,19.2976885 L33.0637368,7.99099736 Z" id="Shape" fill="#FFFFFF"></path>
                        <path d="M60.9993099,7.5260985 L60.9993099,19.7625873 L83.8680296,19.7625873 L83.8680296,7.5260985 L60.9993099,7.5260985 Z M83.4038235,19.2976885 L61.463516,19.2976885 L61.463516,7.99099736 L83.4038235,7.99099736 L83.4038235,19.2976885 Z" id="Shape" fill="#FFFFFF"></path>
                        <path d="M4.19537217,36.1875517 L27.0684712,36.1875517 L27.0684712,23.946677 L4.19537217,23.946677 L4.19537217,36.1875517 Z M4.65957827,24.4115759 L26.604265,24.4115759 L26.604265,35.7226529 L4.65957827,35.7226529 L4.65957827,24.4115759 Z" id="Shape" fill="#FFFFFF"></path>
                        <path d="M32.5995307,36.1875517 L55.4682504,36.1875517 L55.4682504,23.946677 L32.5995307,23.946677 L32.5995307,36.1875517 Z M33.0637368,24.4115759 L55.0040443,24.4115759 L55.0040443,35.7226529 L33.0637368,35.7226529 L33.0637368,24.4115759 Z" id="Shape" fill="#FFFFFF"></path>
                        <path d="M60.9993099,36.1875517 L83.8680296,36.1875517 L83.8680296,23.946677 L60.9993099,23.946677 L60.9993099,36.1875517 Z M61.463516,24.4115759 L83.4038235,24.4115759 L83.4038235,35.7226529 L61.463516,35.7226529 L61.463516,24.4115759 Z" id="Shape" fill="#FFFFFF"></path>
                        <ellipse id="Oval" fill="#FFFFFF" cx="15.874973" cy="13.7978473" rx="3.71364885" ry="1.39469658"></ellipse>
                        <ellipse id="Oval" fill="#FFFFFF" cx="44.1389938" cy="13.7978473" rx="3.71364885" ry="1.39469658"></ellipse>
                        <ellipse id="Oval" fill="#FFFFFF" cx="73.2263236" cy="13.7978473" rx="3.71364885" ry="1.39469658"></ellipse>
                        <path d="M15.874973,28.8281151 C13.8254592,28.8281151 12.1657034,29.4509041 12.1657034,30.2228116 C12.1657034,30.9947192 13.8254592,31.6175082 15.874973,31.6175082 C17.9244867,31.6175082 19.5886218,30.9947192 19.5886218,30.2228116 C19.5886218,29.4509041 17.928866,28.8281151 15.874973,28.8281151 Z" id="Path" fill="#FFFFFF"></path>
                        <path d="M44.1389938,28.8281151 C42.0894801,28.8281151 40.4297243,29.4509041 40.4297243,30.2228116 C40.4297243,30.9947192 42.0894801,31.6175082 44.1389938,31.6175082 C46.1885076,31.6175082 47.8526427,30.9947192 47.8526427,30.2228116 C47.8526427,29.4509041 46.1928869,28.8281151 44.1389938,28.8281151 Z" id="Path" fill="#FFFFFF"></path>
                        <path d="M73.2263236,28.8281151 C71.1768098,28.8281151 69.5126748,29.4509041 69.5126748,30.2228116 C69.5126748,30.9947192 71.1768098,31.6175082 73.2263236,31.6175082 C75.2758374,31.6175082 76.9399725,30.9947192 76.9399725,30.2228116 C76.9399725,29.4509041 75.2758374,28.8281151 73.2263236,28.8281151 Z" id="Path" fill="#FFFFFF"></path>
                    </g>
                    <g id="freepik--Plants--inject-86" transform="translate(0.000000, 46.051302)" fill-rule="nonzero">
                        <path d="M46.1403352,25.709784 C44.4499243,28.2184835 42.0938594,31.4859331 40.8369994,34.1086644 C41.3143435,32.3806441 41.7829289,30.7491122 42.2077212,29.2842422 C42.8514788,28.0211208 44.5769241,24.8194589 46.5870241,22.7054848 C49.1138819,19.9950368 50.1955697,18.2582448 48.8336065,18.1047405 C47.8920564,17.9994803 45.1330956,21.6791987 43.4032709,25.3369878 C43.779891,24.0870239 44.0776836,23.1440686 44.257235,22.5739097 C44.3404417,22.3239169 44.4192692,22.0432232 44.4980967,21.7493721 C46.288714,19.2447346 47.9181949,16.6284007 49.3766401,13.9162649 C51.9297737,9.13570115 52.7530826,4.62705939 51.0495338,6.56998575 C49.4817433,8.35502194 46.7534376,17.2275728 44.590062,21.4072767 C44.7696134,20.6879992 44.9447855,19.8897766 45.0980611,19.1047116 C45.4046123,18.3459616 45.8075082,17.574054 46.035232,16.8723199 C46.3899555,15.7977895 46.700886,14.7057158 46.9505063,13.6004845 C47.3618637,11.8764112 47.570567,10.1100885 47.5723673,8.33747858 C47.6157877,6.25545269 47.0494482,4.20626956 45.9432666,2.44291193 C45.6498533,2.0043281 43.8587184,-0.679804935 43.3156849,0.688576611 C43.245684,0.917287598 43.2321589,1.15959708 43.2762711,1.39469658 C43.5390293,3.67971832 44.3667176,5.78053486 44.879096,8.00415487 C45.645474,11.3330061 45.1374749,16.92495 44.879096,19.3020743 C44.7827513,19.6748706 44.6601309,20.1441553 44.5156139,20.6836134 C44.8703374,16.5389962 43.0792025,11.6312431 41.4194467,10.7760047 C39.3655537,9.71463181 41.380033,13.8811782 42.9653406,17.5170381 C43.717977,19.1095541 44.0712392,20.8619407 43.9944768,22.6221539 C43.6704084,23.8194877 43.2981677,25.1615543 42.912789,26.5211641 C42.8383409,26.7097552 42.7638927,26.8939604 42.6938239,27.0781656 C42.8712393,26.1906473 42.9447238,25.285439 42.912789,24.380875 C42.7595134,22.0037507 40.0706214,17.2451161 38.2838659,17.9161494 C36.4971103,18.5871827 39.5232086,21.100268 41.1391713,24.0212363 C41.9651166,25.6230984 42.2800197,27.4403207 42.0413077,29.2272263 C42.0413077,29.3324865 42.0062733,29.4377466 41.9931354,29.5430067 C41.8092047,30.1614099 41.625274,30.7622697 41.4457225,31.3280429 C41.0077922,32.6437944 40.6355515,33.9069158 40.2633108,35.1261788 C40.7206843,33.3587154 40.9212753,31.5344534 40.858896,29.7096686 C40.6355515,26.2229271 38.5991757,22.9335484 36.9175234,22.4861929 C35.235871,22.0388374 38.4459001,27.718498 39.5232086,30.9113883 C40.1089675,32.7762197 40.2084686,34.7601513 39.8122426,36.6743798 C39.2911055,38.4024 38.8006236,40.1041053 38.2970038,41.9110707 C38.4393328,39.5498922 38.3895363,37.1810291 38.1481075,34.8279418 C37.8196597,30.9508608 35.5205257,28.4728622 33.9308388,28.5737364 C32.3411518,28.6746107 34.0009076,30.8763015 36.2869037,35.5910777 C37.4935646,38.0667276 38.0311094,40.8159265 37.8459356,43.5645317 C37.6401083,44.3276676 37.4080053,45.1083468 37.2153159,45.9241127 C36.970075,46.8539104 36.7773857,47.8626532 36.6065928,48.8977111 C36.3744898,47.976685 36.0329042,46.6258468 35.6343876,45.1346618 C35.1702871,43.4846816 34.8335482,41.8014066 34.6271479,40.0997195 C34.4125621,38.1217064 33.8914251,35.6568653 31.9557732,34.6261933 C31.690629,34.4388991 31.3559747,34.3795835 31.0427502,34.4643651 C30.7295258,34.5491467 30.470269,34.7692184 30.3354311,35.0647771 C30.1537022,35.4879522 30.1122594,35.9583373 30.2171899,36.4068436 C30.4743499,37.7509329 30.9164966,39.0527839 31.5309808,40.275153 C31.1476788,41.004363 30.9733717,41.8255881 31.027361,42.6478915 C31.027361,42.959286 31.0536368,43.2662947 31.0755333,43.5689175 C30.9047405,43.257523 30.7427063,42.9680577 30.5894307,42.6917499 C30.3122581,42.2272269 29.9701226,41.8048271 29.5734324,41.4374001 C29.672348,40.7106223 29.7220935,39.9779791 29.7223287,39.244481 C29.7223287,38.2795966 28.5968479,35.8322988 27.5808496,37.6480359 C27.1779537,38.3716992 27.2524019,39.8014825 27.2129881,40.7488235 C26.9370921,41.007588 26.8538853,41.5426603 27.0859884,42.389127 C26.8556634,44.5864435 26.9709262,46.8063439 27.427574,48.9678845 L27.0816091,48.3538671 C26.5840181,45.8173046 26.2911186,43.244743 26.2057485,40.6611068 C26.039335,36.4024578 26.7137476,32.8937872 25.5576117,31.5780357 C24.4014757,30.2622842 23.7489596,34.8893436 24.2438208,39.9111284 C24.4788602,42.2136349 25.091422,44.4615649 26.0568522,46.5644451 C24.9182334,44.5162586 23.7927526,42.4285996 22.728582,40.4242715 C22.2906517,39.3453553 21.2045846,36.4419303 21.4717221,33.494647 C21.8089284,29.7754561 22.0541693,26.7360702 20.6440338,24.6440253 C19.2338983,22.5519805 18.940485,23.9072045 19.6324148,28.2667278 C20.1053796,31.2622553 20.6089994,35.2621398 21.4804807,38.0383755 C20.6527924,36.4463162 19.8776558,34.933202 19.185726,33.5604346 C18.7915887,32.1964389 17.8719351,28.6789966 17.8719351,25.7624141 C17.8719351,22.0563807 17.4734185,20.0608243 16.3785928,20.8634327 C15.6165941,21.4335917 16.107076,26.008021 17.3332808,29.8587871 C16.7595922,28.6877682 16.3260412,27.7886714 16.0764209,27.257985 C15.962559,27.0167639 15.8355592,26.7623852 15.6910422,26.4904633 C15.2996621,23.4373702 14.7145714,20.4123319 13.9393211,17.4337072 C12.5510821,12.1707012 10.0811552,8.33747858 10.1556034,10.9163515 C10.2256722,13.2934758 14.2809067,21.6441119 15.5465253,26.1790687 C15.1874224,25.5299647 14.7713886,24.8282305 14.3509756,24.1484256 C14.0575623,23.3852897 13.8254592,22.5475946 13.5145287,21.8765614 C13.0371847,20.8502752 12.5248063,19.8371466 11.9511176,18.8591046 C11.0772685,17.3139623 10.0248324,15.8772158 8.81553671,14.5785265 C7.42751381,13.0268017 5.61565364,11.9167155 3.60416628,11.3856362 C3.08740854,11.2628327 -0.0481723318,10.5084685 0.486102621,11.9119368 C0.588398682,12.1245199 0.738256513,12.3106209 0.92403291,12.4557807 C2.67575406,13.9469658 4.70775061,14.916236 6.61712666,16.192515 C9.44615633,18.1003546 12.8839091,22.5344371 14.3028032,24.4554343 L14.9772159,25.7185557 C12.4153237,22.4467204 7.76012472,20.0827535 5.96461053,20.5915108 C3.73992467,21.2186856 8.05353801,22.88969 11.6883594,24.464206 C13.3244016,25.1133698 14.7768325,26.1538744 15.918766,27.4948202 C16.496834,28.586894 17.1405915,29.8237004 17.784349,31.0824359 C17.8587972,31.271027 17.928866,31.4552322 18.0076935,31.6350516 C17.5314546,30.8657359 16.9670759,30.154794 16.3260412,29.5166917 C14.57432,27.8851598 9.38484609,26.2448563 8.53964063,27.9553332 C7.69443518,29.6658102 11.6051527,29.4333607 14.7845266,30.4640327 C16.4979569,31.0615533 17.9838172,32.1772284 19.0368297,33.656923 L19.2163811,33.9244592 C19.5054151,34.5033898 19.7769318,35.0647771 20.0353107,35.6042352 C20.6308959,36.858585 21.2002053,38.0383755 21.7607561,39.1874651 C20.8917281,37.5757029 19.794278,36.0984344 18.5025547,34.8016268 C15.962559,32.4069591 12.231393,31.3938305 10.685499,32.2271397 C9.13960513,33.060449 15.3713531,35.0077612 18.3317619,36.612978 C20.0307194,37.5748772 21.455446,38.9564332 22.4702031,40.6260201 C23.2672362,42.2443944 24.0686487,43.827682 24.9313713,45.4899147 C23.4167231,43.6672759 21.7573997,41.9702749 19.9696212,40.4154998 C17.0880399,37.8103119 13.7159766,37.5734766 12.6255302,38.7269521 C11.5350838,39.8804275 14.2458723,40.3628698 19.1244157,42.2356227 C21.6913265,43.2224567 23.955904,44.8644576 25.69337,46.9986431 C26.0612315,47.6959914 26.4378515,48.410883 26.8407474,49.1520897 C27.3227545,50.042816 27.8504353,50.9079815 28.4216757,51.7441201 C27.6246426,51.2265912 26.4509894,50.472227 25.1459572,49.6564611 C23.6825163,48.768858 22.2900933,47.7688058 20.9812401,46.6653194 C19.4747599,45.3495679 17.4121083,43.9197846 15.2881464,44.4724002 C14.968799,44.5206038 14.6869942,44.7075537 14.5181118,44.9832429 C14.3492294,45.258932 14.3105009,45.595231 14.4122858,45.9021835 C14.5669592,46.3359515 14.8572299,46.7081755 15.2399741,46.9635564 C17.2369362,48.5161431 19.9214488,49.2617356 22.2468587,50.17399 C24.3779714,51.0146094 26.5621495,51.7134759 28.7851579,52.2660349 C29.3369501,53.0598716 29.915018,53.8405508 30.4887067,54.5905292 L29.4464326,54.62123 C28.2114692,54.6563167 22.6409959,52.1300739 19.8119663,51.314308 C16.9829366,50.498542 14.3378377,52.0423571 17.3026257,53.6388023 C20.2674138,55.2352474 28.3297104,54.8799945 28.3297104,54.8799945 L30.6551202,54.8229786 C31.2025331,55.5247127 31.7411873,56.1869743 32.2448072,56.7966058 L21.2002053,56.7966058 L21.2002053,59.8666926 L23.3898567,59.8666926 L25.1415779,70.7786583 L39.8516563,70.7786583 L41.6033774,59.8754643 L43.7930289,59.8754643 L43.7930289,56.8053775 L36.4708345,56.8053775 C36.4116789,55.4800346 36.446802,54.1521556 36.5759377,52.831808 C37.0637625,52.334079 37.6058071,51.8927347 38.1919005,51.5160565 C41.4063088,49.2924365 46.8541616,49.1082313 48.3037109,44.8276531 C48.6540551,43.7925953 48.2599178,42.4680721 47.0249544,42.525088 C46.1490938,42.5689464 45.1987851,43.3452398 44.6469929,43.9855722 C42.8076857,46.1127038 41.423826,48.3187804 39.0327266,49.9283831 C38.9232441,50.0029423 37.4167639,51.204662 36.6679031,51.9502545 C36.7511098,51.2529062 36.8562131,50.5073137 36.9919715,49.7047053 C37.5697658,48.6784203 38.2287716,47.7001696 38.9626578,46.7793512 C40.9202062,44.3495968 43.8981322,42.9241993 46.0133355,40.6040909 C46.6614723,39.8935851 47.5154363,37.3410272 45.5359914,37.9725879 C44.6601309,38.2576674 43.6178568,39.5909622 42.9303062,40.2049796 C40.9858957,41.9593149 38.9889336,43.827682 37.7189358,46.1346329 C37.7714874,45.9065694 37.8284184,45.6960491 37.88097,45.4460563 C39.247627,43.2562399 40.7851829,41.1781751 42.479238,39.2313235 C45.2907505,36.0252757 48.1723318,33.928845 48.2205041,32.1788955 C48.2686764,30.428946 44.6426136,33.3630719 41.5639637,37.3804997 C40.1674044,39.2234966 39.0842867,41.2847877 38.358314,43.4812008 C38.9232441,41.2049507 39.5232086,38.9111573 40.1100352,36.7094665 C40.512931,35.6130069 41.7084807,32.762212 43.9112701,30.7841989 C46.6921274,28.2974286 48.9430891,26.2448563 49.3416056,23.7668577 C49.7401222,21.288859 48.6102621,22.0476091 46.1403352,25.709784 Z M30.5894307,53.9194959 C30.1748567,53.3522608 29.7369264,52.7323957 29.2756398,52.0599005 C28.9999191,50.9142717 28.8168553,49.7482487 28.7282269,48.573159 C28.6682552,47.5668102 28.7137565,46.5569378 28.8639853,45.5600881 C29.6103058,46.4865355 30.4040221,47.3736623 31.2419468,48.2179061 C31.2220065,49.0962254 31.1149167,49.970383 30.9222577,50.8274799 C30.9091198,50.9546692 30.6288444,52.8625089 30.5894307,53.9194959 L30.5894307,53.9194959 Z M32.9717714,56.8053775 C32.4068414,56.2045177 31.7893597,55.489626 31.1193263,54.6124584 C31.1361501,53.9167805 31.2316443,53.2252531 31.403981,52.5511144 C31.6721083,51.4884725 32.0569126,50.4588352 32.5513584,49.4810276 C33.5892532,50.4678412 34.3512519,51.1257169 34.3512519,51.1257169 L36.102973,52.6607603 C35.9672146,54.1958037 35.8883872,55.6299728 35.8402148,56.7966058 L32.9717714,56.8053775 Z M36.1248695,52.3932242 L35.3409743,51.7046476 C34.903044,51.3099221 34.1147695,49.7836504 33.2564261,48.0293151 C33.6251814,47.2889981 33.9498185,46.527452 34.2286314,45.7486792 C35.1570436,47.4723136 35.9803525,48.818766 36.4664552,49.5336576 C36.348214,50.4897704 36.2168349,51.4546548 36.1248695,52.3932242 Z" id="Shape" fill="#5473E3"></path>
                        <path d="M46.1403352,25.709784 C44.4499243,28.2184835 42.0938594,31.4859331 40.8369994,34.1086644 C41.3143435,32.3806441 41.7829289,30.7491122 42.2077212,29.2842422 C42.8514788,28.0211208 44.5769241,24.8194589 46.5870241,22.7054848 C49.1138819,19.9950368 50.1955697,18.2582448 48.8336065,18.1047405 C47.8920564,17.9994803 45.1330956,21.6791987 43.4032709,25.3369878 C43.779891,24.0870239 44.0776836,23.1440686 44.257235,22.5739097 C44.3404417,22.3239169 44.4192692,22.0432232 44.4980967,21.7493721 C46.288714,19.2447346 47.9181949,16.6284007 49.3766401,13.9162649 C51.9297737,9.13570115 52.7530826,4.62705939 51.0495338,6.56998575 C49.4817433,8.35502194 46.7534376,17.2275728 44.590062,21.4072767 C44.7696134,20.6879992 44.9447855,19.8897766 45.0980611,19.1047116 C45.4046123,18.3459616 45.8075082,17.574054 46.035232,16.8723199 C46.3899555,15.7977895 46.700886,14.7057158 46.9505063,13.6004845 C47.3618637,11.8764112 47.570567,10.1100885 47.5723673,8.33747858 C47.6157877,6.25545269 47.0494482,4.20626956 45.9432666,2.44291193 C45.6498533,2.0043281 43.8587184,-0.679804935 43.3156849,0.688576611 C43.245684,0.917287598 43.2321589,1.15959708 43.2762711,1.39469658 C43.5390293,3.67971832 44.3667176,5.78053486 44.879096,8.00415487 C45.645474,11.3330061 45.1374749,16.92495 44.879096,19.3020743 C44.7827513,19.6748706 44.6601309,20.1441553 44.5156139,20.6836134 C44.8703374,16.5389962 43.0792025,11.6312431 41.4194467,10.7760047 C39.3655537,9.71463181 41.380033,13.8811782 42.9653406,17.5170381 C43.717977,19.1095541 44.0712392,20.8619407 43.9944768,22.6221539 C43.6704084,23.8194877 43.2981677,25.1615543 42.912789,26.5211641 C42.8383409,26.7097552 42.7638927,26.8939604 42.6938239,27.0781656 C42.8712393,26.1906473 42.9447238,25.285439 42.912789,24.380875 C42.7595134,22.0037507 40.0706214,17.2451161 38.2838659,17.9161494 C36.4971103,18.5871827 39.5232086,21.100268 41.1391713,24.0212363 C41.9651166,25.6230984 42.2800197,27.4403207 42.0413077,29.2272263 C42.0413077,29.3324865 42.0062733,29.4377466 41.9931354,29.5430067 C41.8092047,30.1614099 41.625274,30.7622697 41.4457225,31.3280429 C41.0077922,32.6437944 40.6355515,33.9069158 40.2633108,35.1261788 C40.7206843,33.3587154 40.9212753,31.5344534 40.858896,29.7096686 C40.6355515,26.2229271 38.5991757,22.9335484 36.9175234,22.4861929 C35.235871,22.0388374 38.4459001,27.718498 39.5232086,30.9113883 C40.1089675,32.7762197 40.2084686,34.7601513 39.8122426,36.6743798 C39.2911055,38.4024 38.8006236,40.1041053 38.2970038,41.9110707 C38.4393328,39.5498922 38.3895363,37.1810291 38.1481075,34.8279418 C37.8196597,30.9508608 35.5205257,28.4728622 33.9308388,28.5737364 C32.3411518,28.6746107 34.0009076,30.8763015 36.2869037,35.5910777 C37.4935646,38.0667276 38.0311094,40.8159265 37.8459356,43.5645317 C37.6401083,44.3276676 37.4080053,45.1083468 37.2153159,45.9241127 C36.970075,46.8539104 36.7773857,47.8626532 36.6065928,48.8977111 C36.3744898,47.976685 36.0329042,46.6258468 35.6343876,45.1346618 C35.1702871,43.4846816 34.8335482,41.8014066 34.6271479,40.0997195 C34.4125621,38.1217064 33.8914251,35.6568653 31.9557732,34.6261933 C31.690629,34.4388991 31.3559747,34.3795835 31.0427502,34.4643651 C30.7295258,34.5491467 30.470269,34.7692184 30.3354311,35.0647771 C30.1537022,35.4879522 30.1122594,35.9583373 30.2171899,36.4068436 C30.4743499,37.7509329 30.9164966,39.0527839 31.5309808,40.275153 C31.1476788,41.004363 30.9733717,41.8255881 31.027361,42.6478915 C31.027361,42.959286 31.0536368,43.2662947 31.0755333,43.5689175 C30.9047405,43.257523 30.7427063,42.9680577 30.5894307,42.6917499 C30.3122581,42.2272269 29.9701226,41.8048271 29.5734324,41.4374001 C29.672348,40.7106223 29.7220935,39.9779791 29.7223287,39.244481 C29.7223287,38.2795966 28.5968479,35.8322988 27.5808496,37.6480359 C27.1779537,38.3716992 27.2524019,39.8014825 27.2129881,40.7488235 C26.9370921,41.007588 26.8538853,41.5426603 27.0859884,42.389127 C26.8556634,44.5864435 26.9709262,46.8063439 27.427574,48.9678845 L27.0816091,48.3538671 C26.5840181,45.8173046 26.2911186,43.244743 26.2057485,40.6611068 C26.039335,36.4024578 26.7137476,32.8937872 25.5576117,31.5780357 C24.4014757,30.2622842 23.7489596,34.8893436 24.2438208,39.9111284 C24.4788602,42.2136349 25.091422,44.4615649 26.0568522,46.5644451 C24.9182334,44.5162586 23.7927526,42.4285996 22.728582,40.4242715 C22.2906517,39.3453553 21.2045846,36.4419303 21.4717221,33.494647 C21.8089284,29.7754561 22.0541693,26.7360702 20.6440338,24.6440253 C19.2338983,22.5519805 18.940485,23.9072045 19.6324148,28.2667278 C20.1053796,31.2622553 20.6089994,35.2621398 21.4804807,38.0383755 C20.6527924,36.4463162 19.8776558,34.933202 19.185726,33.5604346 C18.7915887,32.1964389 17.8719351,28.6789966 17.8719351,25.7624141 C17.8719351,22.0563807 17.4734185,20.0608243 16.3785928,20.8634327 C15.6165941,21.4335917 16.107076,26.008021 17.3332808,29.8587871 C16.7595922,28.6877682 16.3260412,27.7886714 16.0764209,27.257985 C15.962559,27.0167639 15.8355592,26.7623852 15.6910422,26.4904633 C15.2996621,23.4373702 14.7145714,20.4123319 13.9393211,17.4337072 C12.5510821,12.1707012 10.0811552,8.33747858 10.1556034,10.9163515 C10.2256722,13.2934758 14.2809067,21.6441119 15.5465253,26.1790687 C15.1874224,25.5299647 14.7713886,24.8282305 14.3509756,24.1484256 C14.0575623,23.3852897 13.8254592,22.5475946 13.5145287,21.8765614 C13.0371847,20.8502752 12.5248063,19.8371466 11.9511176,18.8591046 C11.0772685,17.3139623 10.0248324,15.8772158 8.81553671,14.5785265 C7.42751381,13.0268017 5.61565364,11.9167155 3.60416628,11.3856362 C3.08740854,11.2628327 -0.0481723318,10.5084685 0.486102621,11.9119368 C0.588398682,12.1245199 0.738256513,12.3106209 0.92403291,12.4557807 C2.67575406,13.9469658 4.70775061,14.916236 6.61712666,16.192515 C9.44615633,18.1003546 12.8839091,22.5344371 14.3028032,24.4554343 L14.9772159,25.7185557 C12.4153237,22.4467204 7.76012472,20.0827535 5.96461053,20.5915108 C3.73992467,21.2186856 8.05353801,22.88969 11.6883594,24.464206 C13.3244016,25.1133698 14.7768325,26.1538744 15.918766,27.4948202 C16.496834,28.586894 17.1405915,29.8237004 17.784349,31.0824359 C17.8587972,31.271027 17.928866,31.4552322 18.0076935,31.6350516 C17.5314546,30.8657359 16.9670759,30.154794 16.3260412,29.5166917 C14.57432,27.8851598 9.38484609,26.2448563 8.53964063,27.9553332 C7.69443518,29.6658102 11.6051527,29.4333607 14.7845266,30.4640327 C16.4979569,31.0615533 17.9838172,32.1772284 19.0368297,33.656923 L19.2163811,33.9244592 C19.5054151,34.5033898 19.7769318,35.0647771 20.0353107,35.6042352 C20.6308959,36.858585 21.2002053,38.0383755 21.7607561,39.1874651 C20.8917281,37.5757029 19.794278,36.0984344 18.5025547,34.8016268 C15.962559,32.4069591 12.231393,31.3938305 10.685499,32.2271397 C9.13960513,33.060449 15.3713531,35.0077612 18.3317619,36.612978 C20.0307194,37.5748772 21.455446,38.9564332 22.4702031,40.6260201 C23.2672362,42.2443944 24.0686487,43.827682 24.9313713,45.4899147 C23.4167231,43.6672759 21.7573997,41.9702749 19.9696212,40.4154998 C17.0880399,37.8103119 13.7159766,37.5734766 12.6255302,38.7269521 C11.5350838,39.8804275 14.2458723,40.3628698 19.1244157,42.2356227 C21.6913265,43.2224567 23.955904,44.8644576 25.69337,46.9986431 C26.0612315,47.6959914 26.4378515,48.410883 26.8407474,49.1520897 C27.3227545,50.042816 27.8504353,50.9079815 28.4216757,51.7441201 C27.6246426,51.2265912 26.4509894,50.472227 25.1459572,49.6564611 C23.6825163,48.768858 22.2900933,47.7688058 20.9812401,46.6653194 C19.4747599,45.3495679 17.4121083,43.9197846 15.2881464,44.4724002 C14.968799,44.5206038 14.6869942,44.7075537 14.5181118,44.9832429 C14.3492294,45.258932 14.3105009,45.595231 14.4122858,45.9021835 C14.5669592,46.3359515 14.8572299,46.7081755 15.2399741,46.9635564 C17.2369362,48.5161431 19.9214488,49.2617356 22.2468587,50.17399 C24.3779714,51.0146094 26.5621495,51.7134759 28.7851579,52.2660349 C29.3369501,53.0598716 29.915018,53.8405508 30.4887067,54.5905292 L29.4464326,54.62123 C28.2114692,54.6563167 22.6409959,52.1300739 19.8119663,51.314308 C16.9829366,50.498542 14.3378377,52.0423571 17.3026257,53.6388023 C20.2674138,55.2352474 28.3297104,54.8799945 28.3297104,54.8799945 L30.6551202,54.8229786 C31.2025331,55.5247127 31.7411873,56.1869743 32.2448072,56.7966058 L21.2002053,56.7966058 L21.2002053,59.8666926 L23.3898567,59.8666926 L25.1415779,70.7786583 L39.8516563,70.7786583 L41.6033774,59.8754643 L43.7930289,59.8754643 L43.7930289,56.8053775 L36.4708345,56.8053775 C36.4116789,55.4800346 36.446802,54.1521556 36.5759377,52.831808 C37.0637625,52.334079 37.6058071,51.8927347 38.1919005,51.5160565 C41.4063088,49.2924365 46.8541616,49.1082313 48.3037109,44.8276531 C48.6540551,43.7925953 48.2599178,42.4680721 47.0249544,42.525088 C46.1490938,42.5689464 45.1987851,43.3452398 44.6469929,43.9855722 C42.8076857,46.1127038 41.423826,48.3187804 39.0327266,49.9283831 C38.9232441,50.0029423 37.4167639,51.204662 36.6679031,51.9502545 C36.7511098,51.2529062 36.8562131,50.5073137 36.9919715,49.7047053 C37.5697658,48.6784203 38.2287716,47.7001696 38.9626578,46.7793512 C40.9202062,44.3495968 43.8981322,42.9241993 46.0133355,40.6040909 C46.6614723,39.8935851 47.5154363,37.3410272 45.5359914,37.9725879 C44.6601309,38.2576674 43.6178568,39.5909622 42.9303062,40.2049796 C40.9858957,41.9593149 38.9889336,43.827682 37.7189358,46.1346329 C37.7714874,45.9065694 37.8284184,45.6960491 37.88097,45.4460563 C39.247627,43.2562399 40.7851829,41.1781751 42.479238,39.2313235 C45.2907505,36.0252757 48.1723318,33.928845 48.2205041,32.1788955 C48.2686764,30.428946 44.6426136,33.3630719 41.5639637,37.3804997 C40.1674044,39.2234966 39.0842867,41.2847877 38.358314,43.4812008 C38.9232441,41.2049507 39.5232086,38.9111573 40.1100352,36.7094665 C40.512931,35.6130069 41.7084807,32.762212 43.9112701,30.7841989 C46.6921274,28.2974286 48.9430891,26.2448563 49.3416056,23.7668577 C49.7401222,21.288859 48.6102621,22.0476091 46.1403352,25.709784 Z M30.5894307,53.9194959 C30.1748567,53.3522608 29.7369264,52.7323957 29.2756398,52.0599005 C28.9999191,50.9142717 28.8168553,49.7482487 28.7282269,48.573159 C28.6682552,47.5668102 28.7137565,46.5569378 28.8639853,45.5600881 C29.6103058,46.4865355 30.4040221,47.3736623 31.2419468,48.2179061 C31.2220065,49.0962254 31.1149167,49.970383 30.9222577,50.8274799 C30.9091198,50.9546692 30.6288444,52.8625089 30.5894307,53.9194959 L30.5894307,53.9194959 Z M32.9717714,56.8053775 C32.4068414,56.2045177 31.7893597,55.489626 31.1193263,54.6124584 C31.1361501,53.9167805 31.2316443,53.2252531 31.403981,52.5511144 C31.6721083,51.4884725 32.0569126,50.4588352 32.5513584,49.4810276 C33.5892532,50.4678412 34.3512519,51.1257169 34.3512519,51.1257169 L36.102973,52.6607603 C35.9672146,54.1958037 35.8883872,55.6299728 35.8402148,56.7966058 L32.9717714,56.8053775 Z M36.1248695,52.3932242 L35.3409743,51.7046476 C34.903044,51.3099221 34.1147695,49.7836504 33.2564261,48.0293151 C33.6251814,47.2889981 33.9498185,46.527452 34.2286314,45.7486792 C35.1570436,47.4723136 35.9803525,48.818766 36.4664552,49.5336576 C36.348214,50.4897704 36.2168349,51.4546548 36.1248695,52.3932242 Z" id="Shape" fill="#FFFFFF" opacity="0.5"></path>
                    </g>
                    <g id="freepik--Characters--inject-86" transform="translate(30.217190, 0.000000)">
                        <ellipse id="Oval" fill="#263238" fill-rule="nonzero" opacity="0.0916573661" cx="18.3886928" cy="123.939404" rx="18.3843135" ry="3.986727"></ellipse>
                        <ellipse id="Oval" fill="#263238" fill-rule="nonzero" opacity="0.0916573661" cx="85.0942344" cy="123.939404" rx="18.3843135" ry="3.986727"></ellipse>
                        <path d="M54.2376663,51.1520319 C54.9784359,51.6163828 55.6115246,52.2339673 56.0944907,52.9633832 C56.6462829,53.9677401 58.9585548,54.62123 58.9585548,54.62123 L59.8125189,54.62123 L60.1628631,58.6430437 C59.2824914,58.6717761 58.4048475,58.7567416 57.5352814,58.8974224 C57.0227063,59.0107164 56.5008515,59.0767796 55.9762495,59.0947851 C55.9762495,59.0947851 53.265461,55.6782171 52.8143928,55.0247272 C52.3633246,54.3712373 52.3151523,53.0160132 52.5166002,52.7616346 C52.7180482,52.507256 54.2376663,51.1520319 54.2376663,51.1520319 Z" id="Path" stroke="#263238" stroke-width="0.4" fill="#FFFFFF" fill-rule="nonzero" stroke-linecap="round" stroke-linejoin="round"></path>
                        <path d="M50.6247414,57.9895538 C50.6247414,57.9895538 49.1182612,58.4939252 49.7707773,58.8974224 C50.4584314,59.2036345 51.2641765,59.0418934 51.7808774,58.4939252 C52.0304976,58.0904281 51.2378438,57.7878053 50.6247414,57.9895538 Z" id="Path" stroke="#263238" stroke-width="0.4" fill="#FFFFFF" fill-rule="nonzero" stroke-linecap="round" stroke-linejoin="round"></path>
                        <path d="M48.9693649,53.3668803 C48.9693649,53.3668803 53.4362538,51.7572776 53.6377018,51.9063961 C53.8391497,52.0555146 54.1894939,53.4151245 54.1894939,53.4151245 C54.1894939,53.4151245 57.298799,55.2747199 57.5527986,55.9808399 C57.7541516,57.076873 57.7541516,58.2005005 57.5527986,59.2965336 C57.399523,59.5509123 56.5499382,59.8491493 56.2390077,59.9500236 C55.9255229,60.0278529 55.5978045,60.0278529 55.2843197,59.9500236 C55.1354234,59.9017793 52.7224275,58.1956882 52.7224275,58.1956882 C52.7224275,58.1956882 50.2656386,58.445681 49.7138464,58.445681 C49.1620542,58.445681 48.6058828,58.3974368 48.6058828,58.3974368 L48.9693649,53.3668803 Z" id="Path" stroke="#263238" stroke-width="0.4" fill="#FFFFFF" fill-rule="nonzero" stroke-linecap="round" stroke-linejoin="round"></path>
                        <path d="M54.5398382,55.2615624 C54.5398382,55.2615624 56.1952147,56.1694309 56.5499382,56.6694165 C56.9046617,57.1694021 57.2506267,59.3360062 57.2506267,59.3360062" id="Path" stroke="#263238" stroke-width="0.4" stroke-linecap="round" stroke-linejoin="round"></path>
                        <path d="M53.8391497,56.1825885 C53.8391497,56.1825885 55.7966981,57.2351897 55.9937667,57.7395611 C56.1811493,58.3830784 56.3274221,59.0378934 56.431697,59.7000308" id="Path" stroke="#263238" stroke-width="0.4" stroke-linecap="round" stroke-linejoin="round"></path>
                        <path d="M54.8420101,52.1081447 C54.8420101,52.1081447 52.6830138,54.5203558 52.1793939,54.7747344 C51.6757741,55.029113 51.5794294,54.7221043 51.3035333,54.5203558 C51.0276373,54.3186072 52.9107375,51.6081591 52.8625652,51.4064106 C53.4038818,51.0062392 54.1476139,51.0261257 54.666838,51.4546548" id="Path" stroke="#263238" stroke-width="0.4" fill="#FFFFFF" fill-rule="nonzero" stroke-linecap="round" stroke-linejoin="round"></path>
                        <path d="M51.6757741,57.4544816 L51.5969466,57.7264035 C51.4382879,58.2072326 51.3454767,58.7073905 51.3210506,59.2132027 C51.4217745,59.4149513 52.0261183,59.6166998 52.2275662,59.314077 C52.4290142,59.0114542 52.8275307,57.5071116 52.7268068,57.3053631 C52.6260828,57.1036145 52.2319456,56.2308327 51.6757741,57.4544816 Z" id="Path" stroke="#263238" stroke-width="0.4" fill="#FFFFFF" fill-rule="nonzero" stroke-linecap="round" stroke-linejoin="round"></path>
                        <path d="M53.5851501,57.2351897 C53.4274952,57.4325524 52.7092896,59.5991565 52.8844617,59.8666926 C53.0596338,60.1342288 53.7865981,60.2219455 53.988046,59.9193227 C54.1894939,59.6166998 54.8901824,57.7264035 54.6887345,57.2878197 C54.4872865,56.8492359 54.3033558,56.3799512 53.5851501,57.2351897 Z" id="Path" stroke="#263238" stroke-width="0.4" fill="#FFFFFF" fill-rule="nonzero" stroke-linecap="round" stroke-linejoin="round"></path>
                        <path d="M54.8420101,57.686931 L54.7675619,57.8623645 C54.5485968,58.3842793 53.9223565,59.9587952 54.08877,60.2526464 C54.2551835,60.5464976 55.2405266,60.6912302 55.4419746,60.2044022 C55.6434225,59.7175741 56.3484903,57.8404353 55.8799049,57.388694 C55.7297514,57.2098535 55.4886184,57.1361783 55.2643544,57.2006201 C55.0400905,57.2650619 54.8746431,57.4555672 54.8420101,57.686931 L54.8420101,57.686931 Z" id="Path" stroke="#263238" stroke-width="0.4" fill="#FFFFFF" fill-rule="nonzero" stroke-linecap="round" stroke-linejoin="round"></path>
                        <path d="M20.2936896,15.4118357 C20.2936896,15.4118357 20.5564478,17.0302101 20.2542759,17.6749283 C19.952104,18.3196465 19.5010358,19.6704847 19.5010358,19.6704847 L26.1663348,25.5913664 C26.1663348,25.5913664 28.1983313,23.025651 28.5749513,22.5212796 C28.9515714,22.0169082 29.4508119,21.3502608 29.4508119,21.3502608 C29.4508119,21.3502608 26.1750934,19.2757593 25.5094393,17.7670309 C24.8437853,16.2583025 25.172233,14.3373054 23.7577182,14.0346825 C22.3432033,13.7320597 20.7097234,14.5083531 20.2936896,15.4118357 Z" id="Path" stroke="#263238" stroke-width="0.4" fill="#FFFFFF" fill-rule="nonzero" stroke-linecap="round" stroke-linejoin="round"></path>
                        <path d="M32.9805301,5.42089612 C32.9805301,5.42089612 35.7657667,5.38142358 35.2008366,2.70606222 C34.6359065,0.030700868 28.1238832,-0.539458109 26.9195749,0.706119964 C25.7152666,1.95169804 25.9035766,2.46045528 25.9035766,2.46045528 C25.9035766,2.46045528 20.2936896,2.31133678 18.8616575,5.36388023 C17.4296255,8.41642367 18.073383,12.3812215 19.0149331,14.4513372 C19.9564833,16.5214528 21.5374116,16.7495164 22.3650999,16.4863661 C23.1927881,16.2232158 23.7927526,15.7320019 23.7927526,14.9776378 C23.7927526,14.2232736 24.3226482,12.4163082 24.9620265,12.8680495 C25.6014047,13.3197909 26.2758173,13.4689094 27.4100568,12.3768356 C28.5442962,11.2847619 30.1558797,9.92515204 29.5559152,8.83307831 C28.9559507,7.74100458 27.9355731,7.70153203 28.5005032,7.21031814 C29.0654333,6.71910426 32.2667037,6.33315049 32.5644963,6.00421262 C32.7303405,5.83072116 32.8704484,5.63427737 32.9805301,5.42089612 Z" id="Path" stroke="#263238" stroke-width="0.4" fill="#263238" fill-rule="nonzero" stroke-linecap="round" stroke-linejoin="round"></path>
                        <path d="M32.8447717,3.81567931 C32.8447717,3.81567931 33.2389089,4.60951604 29.4902257,5.59632965 C25.7415424,6.58314327 19.417829,6.78050599 19.229519,9.15324451" id="Path" stroke="#FFFFFF" stroke-width="0.4" stroke-linecap="round" stroke-linejoin="round"></path>
                        <path d="M25.5532324,8.36379361 C25.5532324,8.36379361 21.0162746,9.74533267 20.0265521,11.3286203 C19.0368297,12.9119079 20.4250687,14.2890611 20.4250687,14.2890611" id="Path" stroke="#FFFFFF" stroke-width="0.4" stroke-linecap="round" stroke-linejoin="round"></path>
                        <path d="M32.9805301,5.42089612 C32.9805301,5.42089612 34.0359421,8.99974017 34.0359421,9.71901765 C34.0359421,10.4382951 33.282702,11.1488009 33.6199083,11.9426377 C33.9571146,12.7364744 35.0869747,14.2802895 35.0869747,14.7715034 C35.0869747,15.2627172 33.4315983,15.7495453 33.4315983,15.7495453 C33.4315983,15.7495453 32.0389799,21.0125512 31.736808,21.670427 C31.4346361,22.3283027 30.4230172,22.4247912 29.2143296,22.1090108 C28.005642,21.7932305 24.8131302,20.1090685 23.9591661,18.7933171 C23.105202,17.4775656 23.7314424,15.2451739 23.7314424,15.2451739 C23.7314424,15.2451739 21.9797212,14.455723 21.6249977,12.7978761 C21.2702741,11.1400293 22.5665478,10.0435697 23.6964079,10.4207518 C24.3384831,10.6110169 24.8709657,11.0631086 25.1634744,11.6663298 C25.1634744,11.6663298 25.2773363,12.0785986 25.6014047,11.9689527 C25.9254731,11.8593067 26.2407829,11.175116 26.5429548,11.1356434 C26.8451267,11.0961709 28.9909851,10.3461925 28.7326063,9.51726908 C28.4742274,8.68834565 25.794094,8.64010143 25.982404,7.70591787 C26.1707141,6.77173432 32.9805301,5.42089612 32.9805301,5.42089612 Z" id="Path" stroke="#263238" stroke-width="0.4" fill="#FFFFFF" fill-rule="nonzero" stroke-linecap="round" stroke-linejoin="round"></path>
                        <line x1="29.6303633" y1="14.9951811" x2="28.5399169" y2="15.7495453" id="Path" stroke="#263238" stroke-width="0.4" fill="#FFFFFF" fill-rule="nonzero" stroke-linecap="round" stroke-linejoin="round"></line>
                        <path d="M29.2143296,15.486395 C29.2143296,15.486395 29.5559152,16.3898777 30.9660507,16.6925005" id="Path" stroke="#263238" stroke-width="0.4" fill="#FFFFFF" fill-rule="nonzero" stroke-linecap="round" stroke-linejoin="round"></path>
                        <path d="M29.2537433,15.7495453 C29.2537433,15.7495453 28.6143651,17.5038806 29.4026396,17.8986061 C30.1909141,18.2933315 30.5324997,16.6574138 30.5324997,16.6574138 L29.2537433,15.7495453 Z" id="Path" fill="#000000" fill-rule="nonzero"></path>
                        <path d="M33.5060464,12.2277171 C33.4622534,13.1443573 33.2301503,13.8767923 32.9892887,13.8636348 C32.748427,13.8504773 32.5951514,13.100499 32.6433237,12.1838588 C32.6914961,11.2672186 32.9192198,10.5391694 33.1600815,10.5479411 C33.4009431,10.5567128 33.5542187,11.3110769 33.5060464,12.2277171 Z" id="Path" stroke="#263238" stroke-width="0.4" fill="#FFFFFF" fill-rule="nonzero" stroke-linecap="round" stroke-linejoin="round"></path>
                        <line x1="32.6433237" y1="11.3023053" x2="24.9620265" y2="11.3023053" id="Path" stroke="#263238" stroke-width="0.4" fill="#FFFFFF" fill-rule="nonzero" stroke-linecap="round" stroke-linejoin="round"></line>
                        <path d="M32.1134281,10.2847908 C32.2297903,9.86774713 32.5369679,9.53081249 32.9411163,9.37692226 C33.5848739,9.18833121 33.6943564,9.5304266 33.6943564,9.5304266" id="Path" stroke="#263238" stroke-width="0.4" fill="#FFFFFF" fill-rule="nonzero" stroke-linecap="round" stroke-linejoin="round"></path>
                        <path d="M5.99964496,74.177683 L29.3413294,73.4759488 C29.3413294,73.4759488 30.7952579,89.6596921 30.4449137,90.014945 C30.0945695,90.3701979 6.95433299,91.3306965 6.95433299,91.3306965 C6.95433299,91.3306965 5.16319811,91.4578858 4.90919854,90.6552774 C4.65519897,89.852669 5.99964496,74.177683 5.99964496,74.177683 Z" id="Path" stroke="#263238" stroke-width="0.4" fill="#FFFFFF" fill-rule="nonzero" stroke-linecap="round" stroke-linejoin="round"></path>
                        <path d="M5.99964496,74.177683 C5.99964496,74.177683 3.80999351,90.2123077 4.19099286,90.6684349 C4.57199222,91.1245621 6.38064431,91.4535 6.95433299,91.3219248 C7.47984933,91.2254364 5.99964496,74.177683 5.99964496,74.177683 Z" id="Path" stroke="#263238" stroke-width="0.4" fill="#FFFFFF" fill-rule="nonzero" stroke-linecap="round" stroke-linejoin="round"></path>
                        <path d="M12.8751505,118.115011 C11.5920147,118.900076 10.9701537,120.224599 11.2723256,121.281586 C11.5744975,122.338573 11.6708422,122.439447 12.4766339,122.597338 C13.2824257,122.755228 16.8909712,122.193841 20.7973094,121.540351 C24.7036476,120.886861 25.2685777,120.737742 25.6145426,120.185127 C25.9605075,119.632511 26.5692306,119.079895 22.7023062,118.430791 C18.8353817,117.781687 18.4850375,117.071181 18.4850375,117.071181 C18.4850375,117.071181 14.9334229,116.856275 12.8751505,118.115011 Z" id="Path" stroke="#263238" stroke-width="0.4" fill="#5473E3" fill-rule="nonzero" stroke-linecap="round" stroke-linejoin="round"></path>
                        <path d="M25.5094393,119.15884 C25.2466812,119.698299 24.4233722,120.667569 21.8352042,120.978963 C19.0981399,121.307901 14.1451483,121.803501 11.5307045,122.027179 C11.7102559,122.399975 11.9292211,122.465763 12.4766339,122.588566 C13.2780464,122.737684 16.8909712,122.185069 20.7973094,121.531579 C24.7036476,120.878089 25.2685777,120.728971 25.6145426,120.176355 C25.837887,119.843031 26.1400589,119.509707 25.5094393,119.15884 Z" id="Path" stroke="#263238" stroke-width="0.4" fill="#263238" fill-rule="nonzero" stroke-linecap="round" stroke-linejoin="round"></path>
                        <path d="M19.8032077,119.470235 C19.8032077,119.470235 23.8190284,121.38246 26.0305764,121.834202 C28.2421243,122.285943 28.7895372,122.338573 28.5399169,123.040307 C28.2902967,123.742041 28.237745,123.948176 24.8744404,124.750784 C21.5111358,125.553393 17.8456593,124.64991 16.2384551,124.347287 C14.631251,124.044664 14.1320104,124.500791 13.431322,124.198169 C12.7306335,123.895546 12.9277021,122.386817 12.9277021,122.386817 L19.8032077,119.470235 Z" id="Path" stroke="#263238" stroke-width="0.4" fill="#5473E3" fill-rule="nonzero" stroke-linecap="round" stroke-linejoin="round"></path>
                        <path d="M24.8744404,124.750784 C27.6990908,124.075365 28.1851934,123.825372 28.4172964,123.34293 C25.3517844,124.658682 21.2877913,124.114838 18.1872449,123.759585 C16.1902828,123.527135 14.285286,123.321001 12.9320814,123.211355 C12.9176463,123.607659 13.1122231,123.982403 13.4444599,124.198169 C14.1451483,124.500791 14.6487682,124.04905 16.251593,124.347287 C17.8544179,124.645524 21.5111358,125.553393 24.8744404,124.750784 Z" id="Path" stroke="#263238" stroke-width="0.4" fill="#263238" fill-rule="nonzero" stroke-linecap="round" stroke-linejoin="round"></path>
                        <path d="M15.2881464,82.5239332 C15.2881464,82.5239332 14.5830786,88.251838 13.1773224,90.7166791 C11.7715662,93.1815203 9.86656941,94.8876114 9.56439751,98.4576837 C9.26222561,102.027756 10.265086,116.606283 10.3658099,117.865018 C10.4665339,119.123754 9.92787965,119.522865 10.4665339,120.325473 C10.8040143,120.817867 11.1726299,121.288113 11.5701182,121.733328 L13.229874,120.277229 C13.229874,120.277229 14.4341823,116.404534 14.1320104,109.014396 C13.8298385,101.624259 13.8823902,96.6507183 15.1874224,91.7210361 C16.4924547,86.7913539 16.7420749,85.4887599 16.1377311,83.5765344 C15.5333873,81.6643089 15.2881464,82.5239332 15.2881464,82.5239332 Z" id="Path" stroke="#263238" stroke-width="0.4" fill="#263238" fill-rule="nonzero" stroke-linecap="round" stroke-linejoin="round"></path>
                        <path d="M12.1262897,70.6470831 C12.1262897,70.6470831 13.7816662,73.7741858 14.1582862,74.5943376 C14.5349063,75.4144894 15.397629,84.9273726 14.7232163,88.0939478 C14.0488037,91.2605231 11.4212219,96.6419467 11.6577043,101.365495 C11.8941866,106.089042 12.0956346,118.610611 12.0956346,118.759729 C11.9446437,119.506515 11.9446437,120.276036 12.0956346,121.022822 C12.3452548,122.378046 13.0984949,122.777157 13.0984949,122.777157 C14.3764802,122.181356 15.7022439,121.694272 17.0617641,121.321059 C19.5229323,120.614939 20.2236207,119.610582 20.2236207,119.610582 C20.0088517,118.95942 19.7573675,118.320986 19.4703806,117.698356 C19.1200364,116.996622 18.5200719,115.891391 18.6207959,115.536138 C18.7215198,115.180885 19.374036,103.624201 20.6790682,99.8041361 C21.9841005,95.9840709 22.7329613,91.9622572 23.8409249,88.4404291 C24.9488886,84.9186009 27.5896082,75.4846628 27.5896082,73.0724517 L27.5896082,70.107625 L11.9292211,69.8050022 L12.1262897,70.6470831 Z" id="Path" stroke="#263238" stroke-width="0.4" fill="#263238" fill-rule="nonzero" stroke-linecap="round" stroke-linejoin="round"></path>
                        <path d="M13.4181841,93.1727486 C12.9802538,94.5192009 12.4941511,96.0279293 12.1262897,97.2252632 C11.2504291,100.076058 12.1262897,116.084368 12.1262897,116.084368 C12.2220737,117.251312 12.2498564,118.422856 12.2094965,119.593038 C12.1262897,121.044751 12.2094965,121.619296 12.5685993,122.009635" id="Path" stroke="#FFFFFF" stroke-width="0.4" stroke-linecap="round" stroke-linejoin="round"></path>
                        <path d="M14.5349063,89.7693381 C14.5349063,89.7693381 14.2108379,90.7386083 13.7772869,92.0675173" id="Path" stroke="#FFFFFF" stroke-width="0.4" stroke-linecap="round" stroke-linejoin="round"></path>
                        <path d="M19.0149331,18.3152607 C19.0149331,18.3152607 20.7666543,18.9161205 23.394236,21.2186856 C26.0218178,23.5212507 28.7019511,25.7053982 28.1370211,26.4816916 C27.572091,27.257985 26.516679,29.9903622 26.516679,29.9903622 C26.516679,29.9903622 25.5400944,28.367602 22.6409959,26.0431078 C19.7418974,23.7186135 17.5172116,21.6309544 17.5172116,21.6309544 C17.5172116,21.6309544 18.7127612,18.8064746 19.0149331,18.3152607 Z" id="Path" stroke="#263238" stroke-width="0.4" fill="#FFFFFF" fill-rule="nonzero" stroke-linecap="round" stroke-linejoin="round"></path>
                        <path d="M16.6807647,22.0081365 C16.6807647,22.0081365 11.0708777,26.0036352 10.1118104,29.8500154 C9.15274304,33.6963956 8.75422647,35.582306 8.83305393,42.932971 C8.91188138,50.283636 9.35857027,54.9238529 9.35857027,55.2615624 C9.35857027,55.599272 7.8827452,69.2523866 7.8827452,69.4015051 C7.8827452,69.5506236 10.5103269,71.9672205 17.8587972,72.116339 C22.8459608,72.148232 27.826895,71.7579656 32.748427,70.949706 L29.5471566,44.4811719 C29.5471566,44.4811719 28.3034346,33.2051817 27.0246781,31.0955935 C25.7459217,28.9860052 16.6807647,22.0081365 16.6807647,22.0081365 Z" id="Path" stroke="#263238" stroke-width="0.4" fill="#5473E3" fill-rule="nonzero" stroke-linecap="round" stroke-linejoin="round"></path>
                        <path d="M19.9170695,58.6956738 C19.9170695,58.6956738 24.5854064,59.638629 27.7998147,58.4676102" id="Path" stroke="#263238" stroke-width="0.4" stroke-linecap="round" stroke-linejoin="round"></path>
                        <path d="M19.9170695,60.0859845 C19.9170695,60.0859845 24.5854064,61.0289398 27.7998147,59.8623068" id="Path" stroke="#263238" stroke-width="0.4" stroke-linecap="round" stroke-linejoin="round"></path>
                        <polygon id="Path" stroke="#263238" stroke-width="0.4" fill="#FFFFFF" fill-rule="nonzero" stroke-linecap="round" stroke-linejoin="round" points="48.1635732 52.6125161 49.3197091 53.1651317 48.6146414 58.393051 47.4628847 58.1913024"></polygon>
                        <path d="M21.6600321,28.885131 C21.0030255,29.0928892 20.4143811,29.4747909 19.9564833,29.9903622 C19.2032432,30.8675299 15.1392501,35.9200156 15.4370427,38.1348639 C15.7348353,40.3497122 21.0206539,48.437198 22.772375,50.9546692 C24.9290181,54.1449224 28.0352584,56.5728482 31.649222,57.8930654 C36.0679386,59.502668 47.5636087,58.7000596 47.5636087,58.7000596 L48.1723318,52.4590118 C48.1723318,52.4590118 41.90117,50.4502978 37.5831774,49.143318 C35.1816179,48.4320504 32.8329109,47.5527188 30.5543963,46.511815 C30.5543963,46.511815 29.5515359,44.0469739 28.8464681,43.6478626 C28.1414004,43.2487514 28.0450557,42.9943727 28.0450557,42.9943727 C28.0450557,42.9943727 26.6918511,35.6042352 25.9867833,33.1876383 C25.2817156,30.7710414 24.3314068,30.1745674 24.3314068,30.1745674" id="Path" stroke="#263238" stroke-width="0.4" fill="#5473E3" fill-rule="nonzero" stroke-linecap="round" stroke-linejoin="round"></path>
                        <path d="M80.3426908,116.948378 C78.5521319,117.98378 76.6906585,118.89099 74.7722175,119.663212 C72.2103253,120.619325 71.6059815,120.978963 72.1096014,121.522807 C72.6132212,122.066651 76.9793862,122.47892 79.4361751,121.961391 C81.892964,121.443862 82.8520313,121.110538 83.9556157,121.158783 C85.0592,121.207027 86.5831974,121.50965 87.1174724,120.755286 C87.6517473,120.000921 87.8707125,119.851803 87.4678166,118.593067 C87.0649207,117.334332 80.3426908,116.948378 80.3426908,116.948378 Z" id="Path" stroke="#263238" stroke-width="0.4" fill="#5473E3" fill-rule="nonzero" stroke-linecap="round" stroke-linejoin="round"></path>
                        <path d="M79.4361751,121.974549 C81.8973433,121.474563 82.8520313,121.123696 83.9556157,121.17194 C85.0592,121.220184 86.5831974,121.522807 87.1174724,120.768443 C87.5116096,120.228985 87.7261955,119.996536 87.6692645,119.452692 C85.8825089,119.303573 82.4359976,119.869346 78.3282115,120.768443 C76.2492518,121.275428 74.093517,121.385533 71.973843,121.092995 C71.9248286,121.253239 71.9786763,121.4272 72.1096014,121.531579 C72.6132212,122.075423 76.9793862,122.47892 79.4361751,121.974549 Z" id="Path" stroke="#263238" stroke-width="0.4" fill="#263238" fill-rule="nonzero" stroke-linecap="round" stroke-linejoin="round"></path>
                        <path d="M89.8282609,120.268458 C88.8228719,121.357511 87.7507906,122.382855 86.6182318,123.338544 C84.958476,124.693768 82.0987913,126.55775 82.4009632,127.360358 C82.7031351,128.162966 84.7570281,128.917331 89.0750208,127.798942 C91.8384464,127.042437 94.4525315,125.818733 96.8044904,124.180625 C97.2868766,124.091103 97.717324,123.821476 98.0087986,123.426261 C98.3635222,122.821015 97.9606263,121.869288 97.9606263,121.869288 L89.8282609,120.268458 Z" id="Path" stroke="#263238" stroke-width="0.4" fill="#5473E3" fill-rule="nonzero" stroke-linecap="round" stroke-linejoin="round"></path>
                        <path d="M89.0750208,127.807714 C91.8384464,127.051209 94.4525315,125.827505 96.8044904,124.189397 C97.2868766,124.099874 97.717324,123.830247 98.0087986,123.435033 C98.2000396,122.971599 98.2000396,122.45114 98.0087986,121.987706 C91.7639127,126.720026 85.9219227,127.689296 82.8301348,127.829643 C83.6446852,128.39103 85.6504059,128.684881 89.0750208,127.807714 Z" id="Path" stroke="#263238" stroke-width="0.4" fill="#263238" fill-rule="nonzero" stroke-linecap="round" stroke-linejoin="round"></path>
                        <path d="M82.3308943,61.699973 C82.3308943,61.699973 79.6726575,62.0552259 77.7632814,61.349106 C75.8539053,60.642986 74.0496325,60.0947562 74.0496325,60.0947562 C74.0496325,60.0947562 72.9942205,73.8180442 74.1503565,79.3485863 C75.3064925,84.8791284 78.3676252,91.6289335 78.4157975,93.1727486 C78.4770548,95.0299523 78.6953411,96.8786177 79.0683137,98.6989048 C79.4186579,100.106759 81.126586,110.979252 81.22731,112.1722 C81.2943418,112.774118 81.2943418,113.381634 81.22731,113.983551 C81.22731,113.983551 80.0230017,114.387048 80.0230017,114.737915 L80.0230017,117.299245 C81.0161677,117.822235 82.0593047,118.243933 83.136686,118.557981 C84.9935105,119.110596 87.603575,119.562338 87.603575,119.562338 C87.8276566,118.549221 87.9943363,117.524222 88.1028155,116.492251 C88.1028155,115.790517 87.6648852,113.930921 87.6648852,112.922178 C87.6648852,111.913436 87.9188848,99.8523803 87.9188848,99.8523803 C87.9188848,99.8523803 90.3756737,110.1591 90.3756737,113.575668 C90.3756737,116.992236 90.3275014,118.101853 90.3275014,118.101853 C90.3275014,118.101853 89.2239171,117.750986 89.2239171,118.505351 C89.2239171,119.259715 89.1713654,121.06668 89.1713654,121.06668 C89.1713654,121.06668 93.0864622,122.071037 94.9432866,122.623653 C96.0503646,122.958178 97.2204776,123.027287 98.3591429,122.825401 C98.3591429,122.825401 99.3620032,119.005336 99.2612793,117.750986 C99.1605553,116.496637 97.9080747,115.435264 97.9080747,114.73353 C97.9080747,114.031795 98.5605908,107.093399 97.6059028,101.058486 C96.6512148,95.0235723 94.1418742,92.2604942 94.0411502,89.2956675 C93.9404263,86.3308409 94.4790805,75.6732538 94.5447701,73.9452335 C94.6104596,72.2172132 96.3490429,68.61644 96.6030424,67.0068374 C96.857042,65.3972347 96.6512148,60.6254426 96.6512148,60.6254426 C96.6512148,60.6254426 85.3964063,62.2525887 82.3308943,61.699973 Z" id="Path" stroke="#263238" stroke-width="0.4" fill="#263238" fill-rule="nonzero" stroke-linecap="round" stroke-linejoin="round"></path>
                        <line x1="77.5311783" y1="68.590125" x2="80.2419668" y2="70.3488461" id="Path" stroke="#FFFFFF" stroke-width="0.4" stroke-linecap="round" stroke-linejoin="round"></line>
                        <path d="M87.314541,98.3129511 C87.691161,99.290993 87.9232641,99.8567661 87.9232641,99.8567661" id="Path" stroke="#FFFFFF" stroke-width="0.4" stroke-linecap="round" stroke-linejoin="round"></path>
                        <path d="M79.3398304,69.8971048 C79.3398304,69.8971048 81.1441032,80.5020618 83.3030995,87.1378351 C84.4110632,90.5412456 85.5978543,93.8043093 86.4912321,96.1682761" id="Path" stroke="#FFFFFF" stroke-width="0.4" stroke-linecap="round" stroke-linejoin="round"></path>
                        <path d="M58.9585548,53.9194959 C59.0067271,54.0686144 59.2563474,59.5509123 59.2563474,59.5509123 L73.6642539,58.2351608 L73.3664613,51.1476461 L58.9585548,53.9194959 Z" id="Path" stroke="#263238" stroke-width="0.4" fill="#263238" fill-rule="nonzero" stroke-linecap="round" stroke-linejoin="round"></path>
                        <path d="M87.2181963,25.2054126 C87.2181963,25.2054126 83.9556157,26.3588881 83.3030995,27.1658824 C82.6505834,27.9728766 78.783659,41.5909045 77.5136611,45.6127182 C76.2436633,49.6345319 75.8582846,61.8008473 75.8582846,61.8008473 C76.5603429,62.0609829 77.282397,62.263401 78.017281,62.406093 C78.740428,62.5283387 79.473918,62.5782905 80.2069324,62.5552115 C80.2069324,62.5552115 84.4242011,48.3275521 86.4824734,43.4548858 C88.5407458,38.5822194 92.0003951,31.5911932 93.3098066,28.8763593 C94.6192182,26.1615254 95.7665956,25.657154 95.6176993,24.3501742 C95.468803,23.0431944 94.8644592,22.538823 94.1112191,22.4379487 C93.357979,22.3370744 87.2181963,25.2054126 87.2181963,25.2054126 Z" id="Path" stroke="#263238" stroke-width="0.4" fill="#FFFFFF" fill-rule="nonzero" stroke-linecap="round" stroke-linejoin="round"></path>
                        <path d="M87.6254715,24.8063014 C87.6254715,24.8063014 84.3628908,25.9597768 83.7103747,26.7667711 C83.0578586,27.5737653 79.1953134,41.1917932 77.9515914,45.2136069 C76.7078694,49.2354206 76.283077,61.401736 76.283077,61.401736 C76.9851353,61.6618716 77.7071894,61.8642898 78.4420733,62.0069817 C79.1655133,62.1267251 79.8987584,62.1766602 80.6317248,62.1561002 C80.6317248,62.1561002 84.8489935,47.9284408 86.9072658,43.0513886 C88.9655382,38.1743365 92.4295668,31.2096253 93.734599,28.4728622 C95.0396313,25.7360991 96.1913879,25.2580427 96.0424917,23.9510629 C95.8935954,22.6440831 95.2892516,22.1397117 94.5360115,22.0388374 C93.7827714,21.9379631 87.6254715,24.8063014 87.6254715,24.8063014 Z" id="Path" stroke="#263238" stroke-width="0.4" fill="#5473E3" fill-rule="nonzero" stroke-linecap="round" stroke-linejoin="round"></path>
                        <path d="M92.0354295,26.4597624 C89.9893962,29.9648406 88.1951835,33.6113847 86.6664042,37.371728 C84.6081318,42.7005216 82.9527553,47.4591561 80.8419313,54.5642141 C79.573272,58.9513038 79.1482455,63.5398086 79.5894507,68.0857536 C79.5894507,68.0857536 80.5923111,69.7962305 86.5175079,69.9979791 C92.4427047,70.1997276 99.8700024,68.2875021 99.8700024,68.2875021 C99.8700024,68.2875021 98.8627627,62.2525887 98.7620387,58.6869021 C98.6613148,55.1212156 101.525379,42.5996473 102.729687,39.3321978 C103.933995,36.0647482 106.54406,32.7972987 104.043478,29.6307235 C101.542896,26.4641482 95.5607683,22.8940759 95.5607683,22.8940759 C95.5607683,22.8940759 92.6879456,25.3545311 92.0354295,26.4597624 Z" id="Path" stroke="#263238" stroke-width="0.4" fill="#263238" fill-rule="nonzero" stroke-linecap="round" stroke-linejoin="round"></path>
                        <path d="M85.2606479,26.4115182 C85.2606479,26.4115182 83.7059954,28.3719879 82.3002392,32.5516918 C80.894483,36.7313957 78.2844184,47.8363382 77.0801101,52.559886 C75.8758018,57.2834339 75.271458,67.7919024 75.271458,67.7919024 C75.271458,67.7919024 74.6189419,67.7436582 73.2657373,67.7436582 C72.3741828,67.7171308 71.4994428,67.4940013 70.7038451,67.0901683 C70.7038451,67.0901683 71.6585332,56.7834483 72.5124972,51.9590262 C73.3664613,47.1346041 75.8758018,38.5339752 76.32687,35.1656514 C76.7779382,31.7973276 76.9268345,30.946475 77.5311783,30.4903478 C78.1355221,30.0342206 82.8520313,27.174654 83.8067194,26.5211641 C84.7614074,25.8676742 85.2606479,26.4115182 85.2606479,26.4115182 Z" id="Path" stroke="#263238" stroke-width="0.4" fill="#263238" fill-rule="nonzero" stroke-linecap="round" stroke-linejoin="round"></path>
                        <path d="M97.1066623,23.9993071 C97.1066623,23.9993071 94.2469775,29.6789677 93.4937374,30.7359547 C93.0570851,31.3392828 92.6704184,31.9773549 92.3376014,32.6437944 L89.8282609,33.5999071 L90.8311212,35.2095098 C90.8311212,35.2095098 85.7642678,44.2969667 84.4592355,47.3231951 C83.1542032,50.3494235 81.8316538,53.6081014 81.8316538,53.6081014" id="Path" stroke="#FFFFFF" stroke-width="0.4" stroke-linecap="round" stroke-linejoin="round"></path>
                        <path d="M76.4845249,49.5906735 C76.3925596,50.5950305 76.3750424,50.9941418 76.3750424,50.9941418" id="Path" stroke="#FFFFFF" stroke-width="0.4" stroke-linecap="round" stroke-linejoin="round"></path>
                        <path d="M82.7031351,28.1702393 L79.8916226,32.4946759 L80.5441387,33.4990328 L78.9851069,35.4112583 C78.9851069,35.4112583 77.3297304,42.2970244 76.8786622,46.0162153 C76.7910762,46.7398786 76.716628,47.3714393 76.6596971,47.9196691" id="Path" stroke="#FFFFFF" stroke-width="0.4" stroke-linecap="round" stroke-linejoin="round"></path>
                        <polygon id="Path" stroke="#263238" stroke-width="0.4" fill="#FFFFFF" fill-rule="nonzero" stroke-linecap="round" stroke-linejoin="round" points="83.2549272 26.3106439 82.7031351 28.9728477 85.5628198 27.0650081"></polygon>
                        <path d="M85.6635438,24.2010557 C85.6109922,24.3501742 83.2549272,26.3106439 83.2549272,26.3106439 L85.9131641,27.4158751 L86.4649562,25.2536569 L85.6635438,24.2010557 Z" id="Path" stroke="#263238" stroke-width="0.4" fill="#FFFFFF" fill-rule="nonzero" stroke-linecap="round" stroke-linejoin="round"></path>
                        <path d="M84.7088558,4.14023134 C83.5758374,4.84709264 82.6827771,5.88061355 82.1469636,7.10505803 C81.2448272,9.16640202 80.5441387,10.0216405 80.7455867,10.6751304 C80.8900777,11.1171988 80.9898431,11.5726907 81.0433793,12.0347403 C81.0433793,12.1838588 78.9369346,14.1969585 78.8843829,14.7978184 C78.8318313,15.3986782 80.2419668,16.5082953 80.2419668,16.5082953 C80.2419668,16.5082953 80.3908631,19.9774934 80.3908631,20.2801162 C80.3908631,20.5827391 80.4915871,22.1397117 81.949895,22.538823 C82.9417669,22.7678536 83.9744341,22.7512942 84.958476,22.4905787 L85.9131641,27.4158751 C85.9131641,27.4158751 92.591601,23.2931871 93.2922894,22.9423201 C93.9929779,22.591453 94.846942,22.1397117 94.8994936,21.5870961 C94.9520452,21.0344804 94.4965977,17.9643936 94.4965977,17.9643936 C94.4965977,17.9643936 98.0613503,14.6969441 98.00004,10.876879 C97.9387298,7.0568138 95.9067333,4.64460275 92.1887051,3.50867063 C88.470677,2.37273851 84.7088558,4.14023134 84.7088558,4.14023134 Z" id="Path" stroke="#263238" stroke-width="0.4" fill="#FFFFFF" fill-rule="nonzero" stroke-linecap="round" stroke-linejoin="round"></path>
                        <path d="M98.0087986,10.876879 C97.9606263,7.0568138 95.902354,4.64460275 92.1887051,3.48674144 C88.4750563,2.32888013 84.7088558,4.14023134 84.7088558,4.14023134 C84.4154132,4.31634925 84.1396901,4.52051262 83.8855468,4.74986287 C85.1117516,4.53057095 87.1306103,4.37706661 88.5757802,5.29809265 C90.7654317,6.70594674 89.3771927,8.11380083 88.6239526,8.86816502 C87.8707125,9.6225292 87.7218162,9.92076621 88.2736083,10.6225003 C88.8254005,11.3242345 89.8808125,11.3242345 89.6268129,11.9777244 C89.3728134,12.6312143 88.6239526,13.5390828 89.2282964,13.7890756 C89.8326402,14.0390684 90.380053,13.4864527 90.6340526,12.7320885 C90.8880522,11.9777244 92.1361535,11.9777244 92.6397733,13.5390828 C93.0135949,14.7421661 92.5909407,16.0506612 91.5843613,16.8065323 C91.1799189,17.1065292 90.6800807,17.2484394 90.1786051,17.2056436 C91.0409033,17.6441614 91.9503942,17.9826026 92.8893936,18.2143864 C93.4342725,18.2599863 93.9829291,18.2170354 94.5141149,18.0871971 C94.5141149,18.008252 94.5141149,17.9600078 94.5141149,17.9600078 C94.5141149,17.9600078 98.0613503,14.6969441 98.0087986,10.876879 Z" id="Path" stroke="#263238" stroke-width="0.4" fill="#263238" fill-rule="nonzero" stroke-linecap="round" stroke-linejoin="round"></path>
                        <path d="M83.4038235,12.8373487 C83.4038235,13.2276883 83.281203,13.5434686 83.1279274,13.5434686 C82.9746518,13.5434686 82.8520313,13.2276883 82.8520313,12.8373487 C82.8520313,12.4470091 82.9746518,12.1356145 83.1279274,12.1356145 C83.281203,12.1356145 83.4038235,12.4513949 83.4038235,12.8373487 Z" id="Path" fill="#000000" fill-rule="nonzero"></path>
                        <path d="M82.0987913,10.7277605 C82.0987913,10.7277605 82.3002392,10.0216405 83.4125821,10.0742705 C84.5249251,10.1269006 84.5687181,10.929509 84.5687181,10.929509" id="Path" stroke="#263238" stroke-width="0.4" fill="#FFFFFF" fill-rule="nonzero" stroke-linecap="round" stroke-linejoin="round"></path>
                        <path d="M80.2419668,16.5082953 C80.8645482,16.7335083 81.5577026,16.6401857 82.0987913,16.2583025 C82.9002037,15.6048126 82.2476876,15.0478112 82.2476876,15.0478112" id="Path" stroke="#263238" stroke-width="0.4" fill="#FFFFFF" fill-rule="nonzero" stroke-linecap="round" stroke-linejoin="round"></path>
                        <path d="M80.4434148,17.3109037 C80.4434148,17.3109037 83.1016516,15.9951522 84.3059599,15.9556797 C85.5102682,15.9162071 86.7671281,17.981937 86.2722669,19.7362723 C85.7774057,21.4906076 85.2212342,22.3677753 83.5133061,23.0563519 C81.805378,23.7449285 80.1981738,23.6089675 79.9003812,22.4511062 C79.6025886,21.2932449 80.9514139,19.6397839 81.60393,19.337161 C82.2564462,19.0345382 82.760066,18.9862939 82.659342,19.5389096 C82.5586181,20.0915252 82.2564462,20.4906365 83.5133061,20.2406437 C84.770166,19.9906509 85.4708545,19.6397839 85.5190268,18.280174 C85.5671991,16.9205641 85.0810965,16.4205785 83.7673057,16.6223271 C82.4535148,16.8240757 80.504725,17.8766769 80.504725,17.8766769 L80.4434148,17.3109037 Z" id="Path" stroke="#263238" stroke-width="0.4" fill="#263238" fill-rule="nonzero" stroke-linecap="round" stroke-linejoin="round"></path>
                        <path d="M81.4944475,18.3678907 C81.4944475,18.3678907 83.6052714,18.2670165 84.3585115,17.411778" id="Path" stroke="#263238" stroke-width="0.4" fill="#FFFFFF" fill-rule="nonzero" stroke-linecap="round" stroke-linejoin="round"></path>
                        <path d="M89.9815365,17.1617852 C89.9879252,17.9976302 89.617939,18.791871 88.9742968,19.3240035" id="Path" stroke="#263238" stroke-width="0.4" fill="#FFFFFF" fill-rule="nonzero" stroke-linecap="round" stroke-linejoin="round"></path>
                        <path d="M85.9131641,27.4158751 L87.3714719,30.7841989 C87.3714719,30.7841989 92.8893936,26.6615109 94.2469775,25.0519083 C95.6045614,23.4423056 96.6555941,22.6396972 95.902354,21.5432377 C95.1491139,20.4467781 94.0455295,21.3414891 93.8440816,21.4423634 C93.6426337,21.5432377 85.9131641,27.4158751 85.9131641,27.4158751 Z" id="Path" stroke="#263238" stroke-width="0.4" fill="#FFFFFF" fill-rule="nonzero" stroke-linecap="round" stroke-linejoin="round"></path>
                        <path d="M74.8860794,57.1255437 C74.2610568,55.0890692 73.7594429,53.0166409 73.3839785,50.9195825 C73.0818066,48.9941995 72.9460482,47.0337298 72.9460482,47.0337298 C70.5212952,46.8124372 68.1510649,46.1837817 65.9347843,45.1741344 C62.6240313,43.5689175 61.9189635,42.9812152 61.9189635,42.9812152 C61.9189635,42.9812152 66.3858525,57.5597417 67.2923682,60.6254426 C68.1988839,63.6911436 68.3959525,64.3446335 68.3959525,64.3446335 C69.8285097,65.0553581 71.3457905,65.5800507 72.9110138,65.9059919 C74.153961,66.1381455 75.4132786,66.2715977 76.6772143,66.3051032 L74.8860794,57.1255437 Z" id="Path" stroke="#263238" stroke-width="0.4" fill="#FFFFFF" fill-rule="nonzero" stroke-linecap="round" stroke-linejoin="round"></path>
                        <path d="M79.8916226,57.1255437 C78.8299584,56.9278964 77.7991418,56.5901688 76.8261106,56.1211867 C76.0960746,55.6971734 75.2993665,55.4005574 74.4700456,55.2440191 L74.2685977,55.2440191 L74.8685622,57.1036145 C74.1278115,57.2676356 73.371844,57.3529008 72.6132212,57.3579931 C71.4089129,57.3579931 68.895193,56.954496 68.7988484,57.1036145 C68.7056605,57.4641188 68.6716417,57.8374028 68.6981244,58.2088458 C68.6981244,58.5640987 70.5023972,60.7263169 71.5578092,61.4806811 C72.6132212,62.2350453 73.5635299,62.7350309 74.518218,62.7350309 C75.472906,62.7350309 80.5923111,62.0332967 80.5923111,62.0332967 L79.8916226,57.1255437 Z" id="Path" stroke="#263238" stroke-width="0.4" fill="#FFFFFF" fill-rule="nonzero" stroke-linecap="round" stroke-linejoin="round"></path>
                        <path d="M94.4965977,37.5208465 C94.4965977,37.5208465 94.746218,43.1522629 94.8994936,47.2223208 C95.0527692,51.2923788 95.3023895,51.6476317 95.3023895,51.6476317 C95.3023895,51.6476317 84.0563396,55.8711939 82.3484115,56.222061 C80.6404834,56.5729281 79.3398304,56.9764252 79.3398304,56.9764252 L80.0930705,62.4543372 C83.7730627,62.7653305 87.4789918,62.4253608 91.0413278,61.4499802 C96.5154564,59.8403776 104.945614,58.2307749 105.09889,57.4807966 C105.252166,56.7308182 105.09889,54.4633399 105.09889,53.972126 C105.09889,53.4809121 104.945614,42.661049 104.945614,37.8366269 C104.945614,33.0122048 105.295959,31.9025877 104.695994,30.8982307 C104.09603,29.8938738 101.030518,29.3895024 99.2744172,30.3938593" id="Path" stroke="#263238" stroke-width="0.4" fill="#263238" fill-rule="nonzero" stroke-linecap="round" stroke-linejoin="round"></path>
                        <polyline id="Path" stroke="#FFFFFF" stroke-width="0.4" stroke-linecap="round" stroke-linejoin="round" points="86.0051294 54.8799945 95.3023895 51.6476317 94.4790805 39.2400952"></polyline>
                        <line x1="83.3950649" y1="55.787863" x2="84.7395109" y2="55.3229642" id="Path" stroke="#FFFFFF" stroke-width="0.4" stroke-linecap="round" stroke-linejoin="round"></line>
                        <path d="M97.7022474,32.9858898 C97.7022474,32.9858898 101.20569,28.6000515 104.687236,30.8850732" id="Path" stroke="#FFFFFF" stroke-width="0.4" stroke-linecap="round" stroke-linejoin="round"></path>
                        <path d="M68.895193,57.6299151 C68.895193,57.6299151 71.207465,59.1868877 72.7621175,59.4412663" id="Path" stroke="#263238" stroke-width="0.4" stroke-linecap="round" stroke-linejoin="round"></path>
                        <path d="M69.2980889,59.1386435 C69.9794113,59.7392759 70.7605095,60.2157592 71.6059815,60.5464976 L72.6613935,60.8447346" id="Path" stroke="#263238" stroke-width="0.4" stroke-linecap="round" stroke-linejoin="round"></path>
                        <path d="M71.8205674,61.6517288 C72.4180839,61.8709389 73.0428924,62.0067128 73.6773918,62.0552259" id="Path" stroke="#263238" stroke-width="0.4" stroke-linecap="round" stroke-linejoin="round"></path>
                        <path d="M29.1924331,42.8277109 C29.1924331,42.8277109 28.5005032,35.744582 27.6859529,30.7534981 C27.2480226,27.9948058 25.5795082,25.6439965 23.8365456,23.5387941 C22.395755,21.7844588 20.2192414,20.179242 19.0193124,18.3152607 C18.6032787,17.6749283 16.4223858,22.3063735 16.4180065,22.3107594 C15.9800762,23.297573 21.1695502,26.4246757 21.8702386,27.1351815 C22.7898922,28.0562075 23.6219598,29.1438954 24.4584066,30.1350949 C24.839406,30.5736787 25.8422663,32.2446831 26.415955,32.3850299 L27.3443672,32.6174793 L26.6480581,34.7095242 L29.1924331,42.8277109 Z" id="Path" stroke="#263238" stroke-width="0.4" fill="#5473E3" fill-rule="nonzero" stroke-linecap="round" stroke-linejoin="round"></path>
                    </g>
                </g>
            </g>
        </g>
    </g>
</svg>