<?xml version="1.0" encoding="UTF-8"?>
<svg width="363px" height="155px" viewBox="0 0 363 155" version="1.1" xmlns="http://www.w3.org/2000/svg" xmlns:xlink="http://www.w3.org/1999/xlink">
    <!-- Generator: Sketch 52.6 (67491) - http://www.bohemiancoding.com/sketch -->
    <title>Group 10</title>
    <desc>Created with Sketch.</desc>
    <g id="Prefilled-Forms-Final" stroke="none" stroke-width="1" fill="none" fill-rule="evenodd">
        <g id="1.1-Forms-&amp;-Policies-First-time-landing" transform="translate(-449.000000, -267.000000)">
            <g id="Group-10" transform="translate(449.000000, 267.000000)">
                <g id="Group-2" transform="translate(62.799583, 0.000000)">
                    <path d="M71.8304093,6.62436626 C70.9791974,6.62436626 70.289957,5.88159683 70.289957,4.96827469 C70.289957,4.05248078 70.9791974,3.31218313 71.8304093,3.31218313 L78.6860541,3.31218313 C79.5361172,3.31218313 80.2265064,4.05248078 80.2265064,4.96827469 C80.2265064,5.88159683 79.5361172,6.62436626 78.6860541,6.62436626 L71.8304093,6.62436626 Z" id="Fill-3949" fill="#A3B2C7" opacity="0.600000024"></path>
                    <path d="M73.6021401,8.39706781 L73.6021401,1.53948158 C73.6021401,0.690468977 74.3446325,0 75.257614,0 C76.1705955,0 76.9143233,0.690468977 76.9143233,1.53948158 L76.9143233,8.39706781 C76.9143233,9.24722928 76.1705955,9.93654939 75.257614,9.93654939 C74.3446325,9.93654939 73.6021401,9.24722928 73.6021401,8.39706781" id="Fill-3950" fill="#A3B2C7" opacity="0.600000024"></path>
                    <path d="M229.044617,92.8303109 C229.045766,93.8747516 229.88664,94.7169684 230.933136,94.7192664 C231.975038,94.7169684 232.818209,93.8736026 232.820506,92.8303109 C232.818209,91.7870191 231.976187,90.9448024 230.933136,90.9425044 C229.88664,90.9425044 229.045766,91.7858701 229.044617,92.8303109 M225.962564,92.8303109 C225.962564,90.0853506 228.187662,87.8677812 230.933136,87.8631852 C233.674016,87.8631852 235.899113,90.0842016 235.899113,92.8303109 C235.899113,95.5764201 233.674016,97.7985856 230.933136,97.7997346 C228.187662,97.7985856 225.962564,95.5752711 225.962564,92.8303109" id="Fill-3951" fill="#A3B2C7"></path>
                    <path d="M209.453799,144.01573 C209.739367,144.157185 210.083347,144.100702 210.308684,143.875353 C210.469114,143.714181 214.274872,139.979724 217.428512,143.132621 C217.456889,143.15472 217.486936,143.174586 217.518383,143.19204 C217.55913,143.226547 217.603745,143.256207 217.651332,143.280425 C217.701831,143.300167 217.754406,143.31412 217.808048,143.322018 C217.841333,143.333188 217.875327,143.34212 217.909803,143.348757 C217.924425,143.349003 217.939051,143.348507 217.953624,143.347271 C218.04885,143.3473 218.14318,143.328888 218.231406,143.293052 C218.23809,143.293052 218.243289,143.284139 218.249974,143.281168 C218.331138,143.245251 218.405122,143.194923 218.468337,143.132621 L218.477993,143.12668 C219.197879,142.463347 220.047683,141.956753 220.973572,141.638987 C222.904675,140.994296 224.708028,141.497126 226.341296,143.130393 C226.402545,143.189045 226.473385,143.236775 226.550747,143.271512 C226.568285,143.280391 226.586398,143.288083 226.604966,143.294537 C226.686123,143.326763 226.772417,143.344122 226.859723,143.345786 L226.866408,143.347271 C226.873092,143.347271 226.879034,143.347271 226.885719,143.347271 C226.935654,143.346777 226.985416,143.341304 227.034265,143.330931 C227.062705,143.32254 227.090506,143.312114 227.117451,143.299736 C227.136762,143.293052 227.154588,143.28711 227.173156,143.27894 C227.248623,143.244483 227.317885,143.197807 227.37815,143.140792 C227.388548,143.130393 227.395975,143.11851 227.406374,143.107369 C227.45507,143.053948 227.495614,142.993632 227.526696,142.92837 C227.536154,142.911565 227.544587,142.894203 227.551949,142.876379 C227.556406,142.865238 227.563833,142.85484 227.568289,142.842956 C227.883653,142.216617 228.431425,141.738417 229.094604,141.510495 L229.094604,147.060931 C229.094604,148.29153 230.092201,149.289127 231.322799,149.289127 C232.553398,149.289127 233.550995,148.29153 233.550995,147.060931 L233.550995,141.506038 C234.215152,141.731416 234.762923,142.210816 235.074339,142.839242 C235.078795,142.851869 235.086222,142.861524 235.090679,142.873408 C235.095135,142.885292 235.107019,142.906088 235.115189,142.923171 C235.146397,142.989792 235.187737,143.051177 235.23774,143.10514 C235.247395,143.115539 235.25408,143.12668 235.264478,143.136335 C235.324533,143.194152 235.394138,143.241142 235.470215,143.275226 C235.48804,143.283396 235.505866,143.289338 235.524434,143.296023 C235.551682,143.308285 235.579721,143.318707 235.608363,143.327217 C235.657213,143.337496 235.70699,143.342723 235.756909,143.342815 C235.765079,143.342815 235.771021,143.347271 235.778449,143.347271 L235.785133,143.347271 C235.87219,143.345535 235.958227,143.328177 236.039147,143.296023 C236.057716,143.289338 236.075541,143.281168 236.093367,143.272998 C236.170678,143.238171 236.241505,143.190451 236.302817,143.131879 C240.170223,139.265216 244.004948,142.973677 244.165378,143.131879 L244.175776,143.138563 C244.234508,143.193149 244.301739,143.237802 244.374828,143.27077 C244.388198,143.277454 244.399339,143.290081 244.412708,143.29528 L244.426077,143.29528 C244.510724,143.328931 244.600887,143.34656 244.691975,143.347271 L244.734311,143.347271 C244.767552,143.340882 244.800311,143.332196 244.832351,143.321275 C244.940898,143.311101 245.043142,143.265717 245.123502,143.19204 C245.155398,143.173993 245.185932,143.153637 245.214858,143.131136 C248.354386,139.992351 252.174257,143.715666 252.33543,143.873868 C252.560731,144.100784 252.905978,144.158028 253.192458,144.015967 C253.478938,143.873907 253.642337,143.564435 253.598074,143.247745 C253.575049,143.079145 251.106208,126.710075 232.065531,126.284489 L232.065531,125.521704 C232.065531,125.111504 231.732999,124.778972 231.322799,124.778972 C230.9126,124.778972 230.580067,125.111504 230.580067,125.521704 L230.580067,126.284489 C211.539391,126.710075 209.070549,143.079145 209.047525,143.247002 C209.003142,143.564021 209.166867,143.873811 209.453799,144.01573 Z M218.960768,140.915567 C219.629227,137.754499 221.884904,131.127102 229.333763,128.380479 C226.919884,132.342211 226.319014,138.274412 226.170468,141.064856 C224.021668,139.556461 221.174331,139.496304 218.963739,140.912596 L218.960768,140.915567 Z M232.065531,147.060931 C232.065531,147.47113 231.732999,147.803663 231.322799,147.803663 C230.9126,147.803663 230.580067,147.47113 230.580067,147.060931 L230.580067,141.159183 C230.826788,141.133019 231.074696,141.119632 231.322799,141.119075 C231.57088,141.119751 231.818769,141.132889 232.065531,141.15844 L232.065531,147.060931 Z M231.322799,139.633611 C230.048245,139.581355 228.786766,139.907774 227.697525,140.571682 C227.915145,137.423241 228.677188,131.389286 231.322799,128.121266 C233.96544,131.385573 234.728226,137.418784 234.947331,140.568711 C233.858049,139.90582 232.596822,139.580433 231.322799,139.633611 Z M236.47216,141.061885 C236.323614,138.270698 235.722001,132.334784 233.306637,128.373052 C240.862449,131.132301 243.071334,137.760441 243.704884,140.925222 C241.491048,139.493829 238.630343,139.547882 236.47216,141.061885 Z M251.673656,141.497868 C249.911895,140.439475 247.486133,139.7829 245.246796,141.209688 C244.735796,138.387307 242.873767,131.815614 236.413484,128.179941 C247.042722,130.081335 250.579611,137.812432 251.673656,141.497868 Z M226.231372,128.179941 C219.769604,131.819328 217.912774,138.384336 217.39806,141.209688 C216.568601,140.67087 215.600434,140.384703 214.61133,140.385999 C213.320266,140.424412 212.06327,140.809207 210.971943,141.500097 C212.065988,137.812432 215.602877,130.081335 226.231372,128.179941 Z" id="Shape" fill="#CBD5E1" fill-rule="nonzero"></path>
                    <path d="M197.670575,28.2438889 C196.833597,28.2438889 196.152916,27.5023553 196.152916,26.5877973 C196.152916,25.6732393 196.833597,24.9317057 197.670575,24.9317057 L206.778796,24.9317057 C207.618038,24.9317057 208.297587,25.6732393 208.297587,26.5877973 C208.297587,27.5023553 207.618038,28.2438889 206.778796,28.2438889 L197.670575,28.2438889 Z" id="Fill-3952" fill="#A3B2C7" opacity="0.600000024"></path>
                    <path d="M193.254331,33.7641941 C192.416221,33.7641941 191.736672,33.0217017 191.736672,32.1074848 C191.736672,31.1932679 192.416221,30.4520109 193.254331,30.4520109 L202.362551,30.4520109 C203.200662,30.4520109 203.881343,31.1932679 203.881343,32.1074848 C203.881343,33.0217017 203.200662,33.7641941 202.362551,33.7641941 L193.254331,33.7641941 Z" id="Fill-3953" fill="#A3B2C7" opacity="0.600000024"></path>
                    <path d="M31.5371218,146.37842 L25.0234543,146.37842 L25.0234543,143.913286 L31.5371218,143.913286 C31.9791533,143.913286 32.3375883,143.57542 32.3375883,143.161157 L32.3375883,134.137754 C32.3375883,133.722415 31.9791533,133.384548 31.5371218,133.384548 L25.0234543,133.384548 L25.0234543,130.921566 L31.5371218,130.921566 C33.4243447,130.921566 34.9600036,132.364493 34.9600036,134.137754 L34.9600036,143.161157 C34.9600036,144.935494 33.4243447,146.37842 31.5371218,146.37842" id="Fill-3956" fill="#D7E4EC" opacity="0.64"></path>
                    <path d="M25.3141955,146.063176 L30.9400834,146.063176 C32.3860099,146.063176 33.5652013,144.864401 33.5652013,143.390811 L33.5652013,133.906913 C33.5652013,132.434455 32.3860099,131.23681 30.9400834,131.23681 L25.3141955,131.23681 L25.3141955,132.407313 L30.9400834,132.407313 C31.752514,132.407313 32.4137948,133.08021 32.4137948,133.906913 L32.4137948,143.390811 C32.4137948,144.219776 31.752514,144.892674 30.9400834,144.892674 L25.3141955,144.892674 L25.3141955,146.063176 Z M30.9400834,147.482481 L23.9193932,147.482481 L23.9193932,143.472238 L30.9400834,143.472238 C30.9834278,143.472238 31.0189925,143.436048 31.0189925,143.390811 L31.0189925,133.906913 C31.0189925,133.863938 30.9834278,133.826618 30.9400834,133.826618 L23.9193932,133.826618 L23.9193932,129.817505 L30.9400834,129.817505 C33.1562075,129.817505 34.9600036,131.651858 34.9600036,133.906913 L34.9600036,143.390811 C34.9600036,145.646998 33.1562075,147.482481 30.9400834,147.482481 Z" id="Fill-3957" fill="#2B97D3" opacity="0.64"></path>
                    <path d="M25.3141955,146.063176 L30.9400834,146.063176 C32.3860099,146.063176 33.5652013,144.864401 33.5652013,143.390811 L33.5652013,133.906913 C33.5652013,132.434455 32.3860099,131.23681 30.9400834,131.23681 L25.3141955,131.23681 L25.3141955,132.407313 L30.9400834,132.407313 C31.752514,132.407313 32.4137948,133.08021 32.4137948,133.906913 L32.4137948,143.390811 C32.4137948,144.219776 31.752514,144.892674 30.9400834,144.892674 L25.3141955,144.892674 L25.3141955,146.063176 Z M30.9400834,147.482481 L23.9193932,147.482481 L23.9193932,143.472238 L30.9400834,143.472238 C30.9834278,143.472238 31.0189925,143.436048 31.0189925,143.390811 L31.0189925,133.906913 C31.0189925,133.863938 30.9834278,133.826618 30.9400834,133.826618 L23.9193932,133.826618 L23.9193932,129.817505 L30.9400834,129.817505 C33.1562075,129.817505 34.9600036,131.651858 34.9600036,133.906913 L34.9600036,143.390811 C34.9600036,145.646998 33.1562075,147.482481 30.9400834,147.482481 Z" id="Fill-3958" fill="#A3B2C7"></path>
                    <path d="M27.2315763,126.505322 L27.2315763,147.299053 C27.2315763,149.228991 25.6648995,150.794665 23.7350783,150.794665 L7.54279249,150.794665 C5.61297132,150.794665 4.04629444,149.228991 4.04629444,147.299053 L4.04629444,126.505322 L27.2315763,126.505322 Z" id="Fill-3959" fill="#CBD5E1"></path>
                    <path d="M5.40793849,127.86764 L5.40793849,147.758579 C5.40793849,149.290238 6.6524052,150.536407 8.18439038,150.536407 L24.1975414,150.536407 C25.7284416,150.536407 26.9739933,149.290238 26.9739933,147.758579 L26.9739933,127.86764 L5.40793849,127.86764 Z M24.1975414,151.898726 L8.18439038,151.898726 C5.90268724,151.898726 4.04629444,150.041413 4.04629444,147.758579 L4.04629444,126.505322 L28.3356374,126.505322 L28.3356374,147.758579 C28.3356374,150.041413 26.4792446,151.898726 24.1975414,151.898726 Z" id="Fill-3960" fill="#2B97D3" opacity="0.64"></path>
                    <path d="M5.40793849,127.86764 L5.40793849,147.758579 C5.40793849,149.290238 6.6524052,150.536407 8.18439038,150.536407 L24.1975414,150.536407 C25.7284416,150.536407 26.9739933,149.290238 26.9739933,147.758579 L26.9739933,127.86764 L5.40793849,127.86764 Z M24.1975414,151.898726 L8.18439038,151.898726 C5.90268724,151.898726 4.04629444,150.041413 4.04629444,147.758579 L4.04629444,126.505322 L28.3356374,126.505322 L28.3356374,147.758579 C28.3356374,150.041413 26.4792446,151.898726 24.1975414,151.898726 Z" id="Fill-3961" fill="#A3B2C7"></path>
                    <polygon id="Fill-3962" fill="#A3B2C7" points="18.399088 147.482481 28.3356374 147.482481 28.3356374 146.37842 18.399088 146.37842"></polygon>
                    <polygon id="Fill-3963" fill="#A3B2C7" points="15.0869049 147.482481 16.1909659 147.482481 16.1909659 146.37842 15.0869049 146.37842"></polygon>
                    <polygon id="Fill-3964" fill="#FFFFFF" opacity="0.64" points="7.35847757 147.482481 11.7747217 147.482481 11.7747217 127.609383 7.35847757 127.609383"></polygon>
                    <path d="M74.0236907,74.3576612 L74.0236907,67.9056226 C74.0236907,66.9433966 73.2833204,66.1633672 72.3675992,66.1633672 C71.4540428,66.1633672 70.7115076,66.9433966 70.7115076,67.9056226 L70.7115076,74.3576612 C70.7115076,75.3187485 71.4540428,76.0999166 72.3675992,76.0999166 C73.2833204,76.0999166 74.0236907,75.3187485 74.0236907,74.3576612" id="Fill-3985" fill="#A3B2C7" opacity="0.300000012"></path>
                    <path d="M60.1369635,88.2445881 C61.0990793,88.2445881 61.8790192,87.5028929 61.8790192,86.5890379 C61.8790192,85.6741001 61.0990793,84.932405 60.1369635,84.932405 L53.683387,84.932405 C52.7224099,84.932405 51.9424699,85.6741001 51.9424699,86.5890379 C51.9424699,87.5028929 52.7224099,88.2445881 53.683387,88.2445881 L60.1369635,88.2445881 Z" id="Fill-3986" fill="#A3B2C7" opacity="0.300000012"></path>
                    <path d="M83.5044526,78.9232806 L87.886793,74.5392182 C88.5397147,73.8863658 88.5397147,72.8267109 87.886793,72.1749521 C87.2327777,71.5199126 86.1730103,71.5199126 85.5189949,72.1749521 L81.1377482,76.5568274 C80.4848266,77.2096798 80.4848266,78.2693347 81.1377482,78.9232806 C81.4647559,79.24916 81.8923813,79.4120997 82.3200068,79.4120997 C82.7487259,79.4120997 83.177445,79.24916 83.5044526,78.9232806" id="Fill-3987" fill="#A3B2C7" opacity="0.300000012"></path>
                    <path d="M60.3189121,101.003425 L64.7025785,96.6195179 C65.3544411,95.9677821 65.3544411,94.9070712 64.7003911,94.2553354 C64.0485285,93.6014126 62.9876112,93.6014126 62.3357487,94.2553354 L57.9520822,98.6370557 C57.2991259,99.2909785 57.3002197,100.350596 57.9520822,101.003425 C58.280201,101.330387 58.7067553,101.493321 59.1354972,101.493321 C59.564239,101.493321 59.9918871,101.329293 60.3189121,101.003425" id="Fill-3988" fill="#A3B2C7" opacity="0.300000012"></path>
                    <path d="M64.7006735,78.9209893 C65.354712,78.2669045 65.354712,77.2092122 64.7006735,76.5540336 L60.3192718,72.1734157 C59.6652333,71.5204247 58.6054285,71.5204247 57.9524837,72.1734157 C57.2995389,72.8275005 57.2995389,73.8851927 57.9524837,74.5392775 L62.3338854,78.9209893 C62.6609046,79.2480316 63.0896389,79.4120997 63.5172794,79.4120997 C63.9460137,79.4120997 64.3736543,79.2480316 64.7006735,78.9209893" id="Fill-3989" fill="#A3B2C7" opacity="0.300000012"></path>
                    <g id="Group-63" opacity="0.641075634" transform="translate(73.602140, 9.474851)">
                        <path d="M38.7878838,60.1477314 L47.6254475,60.1477314 L56.4608067,60.1477314 C74.8038766,60.1477314 81.6596568,98.1180454 95.0989701,114.694183 L82.6340153,116.293178 L68.2214458,88.8520743 L64.575317,123.079211 L47.6254475,123.079211 L30.6744757,123.079211 L27.0283469,88.8520743 L12.6146752,116.293178 L0.149720413,114.694183 C13.5901359,98.1180454 20.4448139,60.1477314 38.7878838,60.1477314" id="Fill-3971" fill="#CBD5E1"></path>
                        <path d="M32.7056008,122.065957 L64.7517767,122.065957 L68.3014288,88.7360096 C68.351082,88.2721535 68.6942408,87.895964 69.1488435,87.8082974 C69.6089631,87.72396 70.0613589,87.9425716 70.2787296,88.3542716 L84.3658944,115.185795 L94.2932244,113.911855 C89.8431942,107.873958 86.0728611,99.5800333 82.4194889,91.5380112 C75.6313447,76.6036201 68.6136923,61.1598751 57.5741306,61.1598751 L39.8832468,61.1598751 C28.8436852,61.1598751 21.8249294,76.6036201 15.0378885,91.5380112 C11.3845163,99.5800333 7.61418327,107.873958 3.16415307,113.911855 L13.091483,115.185795 L27.1775444,88.3542716 C27.3949151,87.9425716 27.8495177,87.72396 28.308534,87.8082974 C28.7620332,87.895964 29.1062954,88.2721535 29.1559486,88.7360096 L32.7056008,122.065957 Z M65.6973943,124.183272 L31.7599832,124.183272 C31.2215218,124.183272 30.7702294,123.774901 30.7128523,123.237804 L27.4302241,92.4091286 L14.6130778,116.822608 C14.4078446,117.213224 13.9918611,117.430725 13.5471891,117.378569 L1.06878799,115.777267 C0.689216852,115.72955 0.365919344,115.477647 0.224683573,115.120323 C0.0834478012,114.761888 0.144135047,114.356846 0.386884029,114.058336 C5.17234919,108.154713 9.21411975,99.2604386 13.1234818,90.6569066 C20.1863737,75.1143979 27.4898079,59.0436703 39.8832468,59.0436703 L57.5741306,59.0436703 C69.9664662,59.0436703 77.2710037,75.1143979 84.3338957,90.6569066 C88.2432577,99.2604386 92.2850283,108.154713 97.0704934,114.058336 C97.312139,114.356846 97.3739297,114.761888 97.2315905,115.120323 C97.0903547,115.477647 96.7681606,115.72955 96.3885895,115.777267 L83.909085,117.378569 C83.4732402,117.431835 83.0506363,117.213224 82.8442997,116.822608 L70.02605,92.4091286 L66.7445251,123.237804 C66.6860447,123.774901 66.2358557,124.183272 65.6973943,124.183272 Z" id="Fill-3972" fill="#A3B2C7"></path>
                        <path d="M42.1032175,47.2379301 L48.179368,46.8989988 L54.25887,47.2379301 L55.3447347,64.1071183 C55.7513754,70.4465503 40.5917206,70.7102846 41.0084156,64.2542428 L42.1032175,47.2379301 Z" id="Fill-3973" fill="#FFFFFF"></path>
                        <path d="M43.0837732,48.1741186 L42.0433336,64.3593427 C41.9737465,65.4442754 42.5001393,66.3264682 43.6112884,66.9829073 C45.9794948,68.3845528 50.2029835,68.3451007 52.6463889,66.9018113 C53.8203908,66.2081119 54.3793324,65.3018095 54.3097453,64.2113973 L53.2782848,48.1741186 L48.1804678,47.8891868 L43.0837732,48.1741186 Z M47.9997658,70.0842807 C45.982862,70.0842807 43.9839161,69.64702 42.5012617,68.7714025 C40.7077101,67.7105794 39.7862421,66.0974269 39.9063359,64.2289316 L41.065747,46.1927465 L48.1804678,45.7949378 L55.296311,46.1927465 L56.446743,64.0809862 C56.5668369,65.9560568 55.6116977,67.593319 53.7552932,68.6903065 C52.1862161,69.6174309 50.084012,70.0842807 47.9997658,70.0842807 Z" id="Fill-3974" fill="#A3B2C7"></path>
                    </g>
                    <path d="M133.140782,93.3834904 C145.716311,86.5507761 153.761256,67.739253 136.832491,65.8544049 C135.315767,65.6864149 135.192819,65.7916886 133.778371,66.3706943 C121.889392,72.1372319 153.450077,71.5783851 133.140782,93.3834904" id="Fill-3983-Copy" fill="#CBD5E1"></path>
                    <path d="M122.180728,65.7819643 C105.41429,61.2238765 101.578061,46.6591959 102.414774,32.976006 C103.786362,10.6530918 140.913553,9.98025781 141.996619,33.9188663 C142.602515,47.3219877 138.564321,61.3276469 122.180728,65.7819643" id="Fill-3975-Copy" fill="#FFFFFF"></path>
                    <g id="Group-63" opacity="0.64" transform="translate(0.120443, 8.370790)">
                        <path d="M121.628157,56.165701 C128.405075,57.2499305 134.629891,54.4249349 139.149323,48.2128329 C145.868243,38.9779967 147.266902,24.3209019 142.332556,14.8438915 C139.826346,10.0292902 134.607583,4.33041984 123.948102,4.33041984 C123.817605,4.33041984 123.688224,4.33041984 123.556612,4.33264162 L123.52092,4.33264162 C120.158114,4.26376638 117.152223,5.18358406 114.606975,7.06210061 L114.31029,7.27983523 L113.942221,7.26872632 C109.800895,7.1487501 105.843604,8.67289244 103.114321,11.4445653 C100.950526,13.6430184 99.7805148,16.4246893 99.9087811,19.0741641 C99.8697435,20.236156 100.013625,21.2915024 100.337079,22.3001913 L100.408462,22.5212586 L100.378347,22.7523239 C99.2652192,31.5661325 99.905435,43.3593505 109.2711,49.5036881 L109.412751,49.6147772 C112.674059,52.6486203 116.78304,54.8526279 121.628157,56.165701 M124.477898,58.5152353 C123.411615,58.5152353 122.329717,58.4274749 121.23332,58.2486215 L121.127361,58.2252927 C115.950982,56.8322355 111.544201,54.4760359 108.02636,51.2233473 C100.102853,45.9777204 96.6329732,35.8641694 98.2390894,22.7156645 C97.8910976,21.5425637 97.7371781,20.3228055 97.7829078,19.0874948 C97.6267576,15.938119 99.0176096,12.5787849 101.595203,9.96041501 C104.656862,6.85214222 109.008991,5.07582764 113.637729,5.14359199 C116.499738,3.12732497 119.829084,2.12863404 123.546573,2.21306175 C123.682647,2.21083996 123.819836,2.21083996 123.954795,2.21083996 C135.676097,2.21083996 141.444731,8.52958751 144.223089,13.8685293 C149.583502,24.1653772 148.142459,39.4645669 140.872552,49.4559198 C136.567268,55.3747466 130.832095,58.5152353 124.477898,58.5152353" id="Fill-3970" fill="#A3B2C7"></path>
                        <path d="M124.714741,56.1224082 C135.690351,56.1224082 146.349726,44.5754954 146.349726,31.4657397 C146.349726,22.8451011 142.970061,11.8864078 137.214445,7.7284273 C134.217262,5.56319779 128.473072,2.35645966 124.714741,2.35645966 C113.739132,2.35645966 106.603528,18.3559841 106.603528,31.4657397 C106.603528,44.5754954 113.739132,56.1224082 124.714741,56.1224082 Z" id="Oval-2" fill="#CBD5E1"></path>
                        <path d="M115.584915,48.3419912 L121.661065,48.0030599 L127.740567,48.3419912 L128.826432,65.2111794 C129.233073,71.5506113 114.073418,71.8143457 114.490113,65.3583039 L115.584915,48.3419912 Z" id="Fill-3973" fill="#FFFFFF"></path>
                        <path d="M122.210006,57.9396093 C105.443567,53.3815215 101.607339,38.8168409 102.444051,25.133651 C103.815639,2.81073679 140.942831,2.13790277 142.025897,26.0765113 C142.631792,39.4796326 138.593598,53.4852919 122.210006,57.9396093" id="Fill-3975" fill="#FFFFFF"></path>
                        <path d="M122.26242,9.23848824 C113.642162,9.23848824 104.134524,14.0823699 103.462873,24.7898404 C102.734511,36.3967952 105.408881,51.1601422 122.210156,55.7777866 C138.67783,51.2519486 141.527897,36.9399832 141.007479,25.6980682 C140.485949,14.4255511 131.308576,9.30952893 122.444789,9.23958118 C122.383629,9.23848824 122.323581,9.23848824 122.26242,9.23848824 Z M122.210156,57.9396093 L121.933267,57.8663827 C103.504018,52.9678543 100.56499,37.1061091 101.344505,24.6619671 C102.072868,13.0626629 112.539054,7.04497052 122.462581,7.15426388 C132.006915,7.22967629 142.544269,13.0353396 143.128072,25.602983 C143.686298,37.6711557 140.557117,53.0640325 122.487045,57.8663827 L122.210156,57.9396093 Z" id="Fill-3976" fill="#A3B2C7"></path>
                        <path d="M114.370255,6.67912696 L114.396258,6.67912696 C138.580674,-12.2534878 150.825112,35.2017774 137.658631,33.05064 C140.070463,19.2245348 113.181674,19.5544771 114.370255,6.67912696" id="Fill-3977" fill="#CBD5E1"></path>
                        <g id="Group-13" transform="translate(28.969133, 58.301935) scale(-1, 1) translate(-28.969133, -58.301935) translate(0.535713, 26.077392)">
                            <path d="M25.7599995,46.7884672 L42.977963,13.8246537 L18.1483515,1.0394409 L0.930384751,34.0023632 L25.7599995,46.7884672 Z" id="Fill-5644" stroke="#CBD5E1"></path>
                            <path d="M18.7222869,10.5247122 L26.109459,14.2182982" id="Fill-5645" fill="#FCFDFF"></path>
                            <polygon id="Fill-5646" fill="#CBD5E1" points="25.212769 15.1416947 17.7988904 11.2950385 18.6946934 9.6013157 26.109459 13.4479719"></polygon>
                            <path d="M15.9520974,14.2182982 L32.5732345,22.5288668" id="Fill-5647" fill="#CBD5E1"></path>
                            <polygon id="Fill-5648" fill="#CBD5E1" points="32.5639608 23.4522633 15.9520974 15.0189273 16.8856902 13.2949017 33.496631 21.727344"></polygon>
                            <path d="M14.1053044,17.9118843 L30.7264415,26.2224529" id="Fill-5649" fill="#FCFDFF"></path>
                            <polygon id="Fill-5650" fill="#CBD5E1" points="30.7171187 27.1458494 14.1053044 18.7125133 15.0380237 16.9884878 31.649838 25.4218238"></polygon>
                            <path d="M12.2585113,21.6054703 L28.8796485,29.9160389" id="Fill-5651" fill="#FCFDFF"></path>
                            <polygon id="Fill-5652" fill="#CBD5E1" points="28.8694031 30.8394354 12.2585113 22.4060994 13.1912307 20.6820738 29.803045 29.1154098"></polygon>
                            <path d="M10.4117183,25.2990563 L27.0328555,33.6096249" id="Fill-5653" fill="#FCFDFF"></path>
                            <polygon id="Fill-5654" fill="#CBD5E1" points="27.0226592 34.5330214 10.4117183 26.0996854 11.3443886 24.3756598 27.956252 32.8089959"></polygon>
                            <path d="M8.56492531,28.9926424 L25.1860625,37.303211" id="Fill-5655" fill="#CBD5E1"></path>
                            <polygon id="Fill-5656" fill="#CBD5E1" points="25.1758171 38.2266075 8.56492531 29.7932714 9.49764464 28.0692459 26.109459 36.5025819"></polygon>
                            <polygon id="Fill-5657" fill="#CBD5E1" points="28.1785657 64.0817097 8.56492531 42.8034604 36.9697643 16.9884878 56.5815438 38.266737"></polygon>
                            <path d="M34.4200276,27.1458494 L39.9604066,33.6096249" id="Fill-5658" fill="#FCFDFF"></path>
                            <polygon id="Fill-5659" fill="#FFFFFF" points="39.3859391 33.6096249 33.496631 27.501859 34.9944951 26.2224529 40.8838031 32.3310927"></polygon>
                            <path d="M30.7264415,29.9160389 L43.6539926,43.7669865" id="Fill-5660" fill="#FCFDFF"></path>
                            <polygon id="Fill-5661" fill="#FFFFFF" points="42.1903662 44.690383 29.803045 30.382992 31.2657646 28.9926424 43.6539926 43.3000334"></polygon>
                            <path d="M27.956252,32.6862284 L40.8838031,46.537176" id="Fill-5662" fill="#FCFDFF"></path>
                            <polygon id="Fill-5663" fill="#FFFFFF" points="39.4209878 47.4605725 27.0328555 33.1541318 28.4965777 31.7628319 40.8838031 46.070223"></polygon>
                            <path d="M24.262666,35.4564179 L37.1902171,49.3073656" id="Fill-5664" fill="#FCFDFF"></path>
                            <polygon id="Fill-5665" fill="#FFFFFF" points="36.650894 50.2307621 24.262666 35.9243214 25.7262923 34.5330214 38.1136136 48.8404125"></polygon>
                            <path d="M21.4924764,38.2266075 L34.4200276,52.0775551" id="Fill-5666" fill="#FCFDFF"></path>
                            <polygon id="Fill-5667" fill="#FFFFFF" points="32.9572122 53.0009516 20.5690799 38.6945109 22.0318953 37.303211 34.4200276 51.610602"></polygon>
                            <path d="M18.7222869,40.996797 L31.649838,54.8477446" id="Fill-5668" fill="#FCFDFF"></path>
                            <polygon id="Fill-5669" fill="#FFFFFF" points="30.1869269 55.7711411 17.7988904 41.4647004 19.2618015 40.0734005 31.649838 54.3807915"></polygon>
                        </g>
                        <path d="M114.356032,6.63947753 C114.185171,11.9229425 119.66686,14.7595925 125.460886,17.7574035 C131.549836,20.9087529 138.411469,24.458649 137.90977,31.5551743 C139.017644,31.4441039 139.832769,30.7624368 140.385617,29.4905722 C142.597011,24.4031138 139.64776,11.289188 131.978621,5.34910121 C126.817976,1.35274584 120.73229,1.80029409 114.356032,6.63947753 M137.596344,33.6502663 C137.267682,33.6502663 136.927049,33.6208654 136.575534,33.5642412 C136.302374,33.5195953 136.05751,33.3671458 135.896444,33.1406494 C135.736466,32.9141529 135.673346,32.6332102 135.720142,32.35989 C136.834545,25.9831442 130.846805,22.8840632 124.50646,19.6031317 C118.197676,16.3374451 111.673411,12.9617771 112.317675,5.98503351 C112.351412,5.6213325 112.570157,5.31643345 112.874877,5.1585393 C122.07088,-1.9586756 129.027193,0.433692999 133.249737,3.70700206 C141.190948,9.85725141 145.073946,23.9130975 142.290115,30.3192442 C141.344396,32.4938278 139.699998,33.6502663 137.596344,33.6502663" id="Fill-3978" fill="#A3B2C7"></path>
                        <path d="M110.183999,54.6274261 C98.0200785,48.1668451 100.509588,34.1744928 99.4614903,23.2218238 C84.1975929,-2.21699275 141.551601,-0.268563547 105.905188,23.8961943 C105.22603,34.9681321 103.092164,46.1236696 110.183999,54.6274261" id="Fill-3979" fill="#CBD5E1"></path>
                        <path d="M109.774699,5.92386855 C107.138317,5.92386855 104.234186,6.61524914 101.949988,8.02203935 C97.112732,11.0027307 96.5472375,16.0641172 100.360159,22.274528 C100.443484,22.4077799 100.493478,22.5574152 100.507921,22.7125116 C100.717899,24.8510949 100.785669,27.0421051 100.860105,29.360906 C101.091192,36.7225256 101.327833,44.2862074 106.321738,49.4502634 C103.302064,42.8728639 103.918664,35.2818763 104.519711,27.892951 C104.64192,26.400967 104.761907,24.9035218 104.856341,23.4082611 C104.87745,23.0849615 105.048542,22.7889676 105.321846,22.6087499 C114.194222,16.732561 118.291558,11.4101319 116.281775,8.37155244 C115.210779,6.74959323 112.653277,5.92386855 109.774699,5.92386855 M110.205764,54.6274261 C110.035782,54.6274261 109.866911,54.5881059 109.710262,54.5061888 C99.3602673,49.1346094 99.0303029,38.6634155 98.7403342,29.4253475 C98.6714527,27.2266917 98.6059042,25.1449043 98.4203687,23.1450341 C92.3143609,13.0069699 98.0570746,7.96196678 100.825665,6.25699821 C106.663924,2.66029002 115.360763,3.15397726 118.059361,7.23672711 C119.664743,9.66365867 120.32245,15.0592671 106.938338,24.048307 C106.849459,25.3862868 106.741693,26.7242666 106.632816,28.0589698 C105.879564,37.3177901 105.168529,46.0632631 111.016787,52.9159042 C111.342308,53.2970919 111.347863,53.851944 111.030119,54.2396851 C110.822364,54.4919898 110.516841,54.6274261 110.205764,54.6274261" id="Fill-3980" fill="#A3B2C7"></path>
                        <path d="M135.857538,58.9720081 C135.42668,58.9720081 135.165753,59.078655 134.42244,59.3828794 L134.157128,59.4917715 C132.124529,60.4751682 132.032437,61.0016671 132.03134,61.0061575 C132.059845,61.4215192 133.584842,62.4711492 134.495894,63.0986821 C137.120512,64.9060665 140.71648,67.3825199 141.179132,71.7786177 C141.43677,74.2270061 140.679205,76.9189985 138.881221,79.9118475 C143.403589,75.3597085 146.18279,69.5199484 145.376986,65.2035552 C144.727958,61.7279887 141.739358,59.5984184 136.736796,59.0438545 C136.34102,59.0000731 136.076804,58.9720081 135.857538,58.9720081 M133.130961,86.6451964 C132.810832,86.6451964 132.498378,86.4958907 132.293364,86.2197314 C131.985294,85.7987567 132.019281,85.2127601 132.374492,84.8333216 C137.191774,79.6895729 139.45241,75.3743023 139.099391,72.0076279 C138.741987,68.6027851 135.740231,66.5360803 133.328301,64.8757563 C131.371349,63.5286375 129.825521,62.4644136 129.945021,60.8433807 C130.036017,59.6186252 131.047931,58.6273702 133.325012,57.5272232 L133.646237,57.3947565 C134.964028,56.8547864 135.335684,56.7324231 136.961544,56.9142841 C144.953802,57.8000148 146.951319,62.2365261 147.431512,64.8016648 C148.741629,71.8190312 142.415795,81.7663811 133.617732,86.5228331 C133.462053,86.6059054 133.295411,86.6451964 133.130961,86.6451964" id="Fill-3984" fill="#A3B2C7"></path>
                        <polygon id="Fill-4005" fill="#A3B2C7" points="118.429079 48.0030599 124.730786 48.0030599 124.730786 45.7949378 118.429079 45.7949378"></polygon>
                        <polygon id="Fill-4006" fill="#A3B2C7" points="113.377615 35.8583884 116.689798 35.8583884 116.689798 32.5462053 113.377615 32.5462053"></polygon>
                        <polygon id="Fill-4007" fill="#A3B2C7" points="125.522287 35.8583884 128.83447 35.8583884 128.83447 32.5462053 125.522287 32.5462053"></polygon>
                        <polygon id="Fill-4008" fill="#A3B2C7" points="125.522287 27.179563 133.250714 31.3698675 133.250714 29.8066572 125.522287 26.1024777"></polygon>
                        <path d="M115.585737,28.0995897 L108.253723,31.4421442 C108.253723,30.611162 108.253723,30.1956709 108.253723,30.1956709 C108.253723,30.1956709 110.697727,29.1526933 115.585737,27.0667382 L115.585737,28.0995897 Z" id="Fill-4009" fill="#A3B2C7"></path>
                        <polygon id="Fill-4010" fill="#A3B2C7" points="125.833845 44.6908768 123.470445 46.449261 124.420178 48.0030599 126.782628 46.2446757"></polygon>
                        <polygon id="Fill-4010-Copy" fill="#A3B2C7" transform="translate(118.492072, 46.346968) scale(-1, 1) translate(-118.492072, -46.346968) " points="119.199381 44.6908768 116.83598 46.449261 117.785713 48.0030599 120.148163 46.2446757"></polygon>
                    </g>
                    <path d="M169.655451,151.898726 L72.4980791,151.898726 L72.4980791,94.3334078 C72.4980791,89.5404585 76.3551212,85.6550631 81.111993,85.6550631 L161.041537,85.6550631 C165.798409,85.6550631 169.655451,89.5404585 169.655451,94.3334078 L169.655451,151.898726 Z" id="Fill-3990" fill="#FFFFFF"></path>
                    <g id="Group-8" transform="translate(103.572379, 99.526085)">
                        <path d="M13.418399,31.1947429 L9.35676414,30.0569751 L9.00466029,26.1950489 C8.23410324,25.7140046 7.51707804,25.1507756 6.86715615,24.5129018 L3.02869634,25.0859327 L0.961311385,21.4102415 L3.44413365,18.4267112 C3.23603801,17.5407754 3.1267124,16.6359898 3.11615683,15.7281884 L0,13.4194773 L1.1377403,9.35849827 L4.9988192,9.00563192 C5.47985188,8.23505625 6.04306725,7.51876771 6.68017166,6.86807612 L6.10866262,3.02952353 L9.78501894,0.96133462 L12.7677231,3.44497088 C13.6536375,3.2376242 14.5599091,3.12829595 15.4669347,3.1192481 L17.774082,0 L21.8357169,1.1377678 L22.1870668,5.00120199 C22.9576238,5.48073831 23.675403,6.04472129 24.3260788,6.6818411 L28.1660466,6.10956425 L30.2334315,9.78600944 L27.7483474,12.7687857 C27.957197,13.6615074 28.0665226,14.566293 28.0763242,15.4680625 L31.1947429,17.7782816 L30.0562487,21.8377526 L26.1929078,22.192127 C25.717153,22.9581787 25.1524296,23.6744672 24.5115554,24.3266668 L25.0853263,28.1667274 L21.409724,30.2341623 L18.4255119,27.750526 C17.5358276,27.9578727 16.6310639,28.067201 15.7263003,28.0770028 L13.418399,31.1947429 Z" id="Stroke-5608" stroke="#CBD5E1" stroke-width="1.424"></path>
                        <path d="M7.60847388,15.2169478 C7.62521253,14.7113584 7.7210793,14.1989949 7.8960742,13.695253" id="Stroke-5609" stroke="#A3B2C7" stroke-width="1.424"></path>
                        <path d="M18.6578072,8.36932127 C22.7940388,9.52265542 25.2158716,13.8094636 24.0576365,17.9240207 C22.8994013,22.0400755 18.5923319,24.4508435 14.4561004,23.2982582" id="Stroke-5610" stroke="#A3B2C7" stroke-width="1.424"></path>
                        <path d="M9.13016866,12.1735582 C10.5935817,9.27788505 13.5793265,7.48760723 16.7386425,7.6148351" id="Stroke-5612" stroke="#A3B2C7" stroke-width="1.424"></path>
                        <path d="M14.9518867,18.8793565 C12.9290508,18.312837 11.7493081,16.2135553 12.3152906,14.191426 C12.8820081,12.1692967 14.9812884,10.9884966 17.0041244,11.5542813 C19.0269604,12.1208008 20.2067031,14.2200826 19.6399856,16.2422119 C19.0732681,18.2643412 16.9747227,19.445876 14.9518867,18.8793565" id="Fill-5613" fill="#CBD5E1"></path>
                    </g>
                    <path d="M74.3659346,150.044927 L169.994612,150.044927 L169.994612,94.2675376 C169.994612,89.9325017 166.441266,86.4048003 162.072252,86.4048003 L82.2860842,86.4048003 C77.9192811,86.4048003 74.3659346,89.9325017 74.3659346,94.2675376 L74.3659346,150.044927 Z M170.929645,151.898726 L73.4309016,151.898726 C72.9158598,151.898726 72.4980791,151.484089 72.4980791,150.971827 L72.4980791,94.2675376 C72.4980791,88.9090734 76.8880922,84.551002 82.2860842,84.551002 L162.072252,84.551002 C167.471349,84.551002 171.863573,88.9090734 171.863573,94.2675376 L171.863573,150.971827 C171.863573,151.484089 171.445792,151.898726 170.929645,151.898726 Z" id="Fill-3991" fill="#A3B2C7"></path>
                    <path d="M179.46989,151.898726 L63.7877006,151.898726 C60.0618033,151.898726 57.0412245,148.822241 57.0412245,145.027384 L57.0412245,143.066237 L186.216367,143.066237 L186.216367,145.027384 C186.216367,148.822241 183.195788,151.898726 179.46989,151.898726" id="Fill-3992" fill="#FFFFFF" opacity="0.64"></path>
                    <path d="M57.7963607,143.921705 L57.7963607,144.785521 C57.7963607,148.236146 60.4613202,151.043258 63.737206,151.043258 L178.414122,151.043258 C181.691109,151.043258 184.356068,148.236146 184.356068,144.785521 L184.356068,143.921705 L57.7963607,143.921705 Z M178.414122,153.002787 L63.737206,153.002787 C59.4354044,153.002787 55.9371635,149.316786 55.9371635,144.785521 L55.9371635,142.941941 C55.9371635,142.400461 56.352153,141.962176 56.8662117,141.962176 L185.286217,141.962176 C185.800276,141.962176 186.216367,142.400461 186.216367,142.941941 L186.216367,144.785521 C186.216367,149.316786 182.715924,153.002787 178.414122,153.002787 Z" id="Fill-3993" fill="#A3B2C7"></path>
                    <path d="M188.424489,82.34288 C188.424489,90.8797248 181.504479,97.7997346 172.967634,97.7997346 C164.430789,97.7997346 157.510779,90.8797248 157.510779,82.34288 C157.510779,73.8071365 164.430789,66.8860254 172.967634,66.8860254 C181.504479,66.8860254 188.424489,73.8071365 188.424489,82.34288" id="Fill-3998" fill="#FFFFFF" opacity="0.64"></path>
                    <path d="M172.780177,96.6945417 C181.313593,96.7967881 188.315568,89.9583728 188.423308,81.4246461 C188.527749,72.8898201 181.689583,65.8875906 173.155067,65.7831454 C164.620551,65.6787001 157.61198,72.5149166 157.511936,81.0486432 C157.408594,89.5867676 164.245661,96.5900965 172.780177,96.6945417" id="Fill-3999" fill="#FFFFFF" opacity="0.64"></path>
                    <g id="Group-6" opacity="0.64" transform="translate(153.094535, 62.469781)">
                        <path d="M19.6875391,34.3851089 C15.8687672,34.3260213 12.0688726,32.8198451 9.18619402,29.8766141 C3.35976306,23.9310646 3.43638279,14.3365775 9.35831081,8.48467621 C15.2680241,2.64503837 24.823282,2.70970026 30.6619277,8.66305384 C36.4783648,14.604144 36.3984138,24.1930567 30.4831484,30.0460729 C27.4971996,32.995993 23.5795994,34.4441965 19.6875391,34.3851089 M31.7223892,33.7931181 L42.4036241,44.6908768 L45.4162232,41.7197743 L34.6683624,30.7618132 C40.3204557,23.4605936 39.8607373,12.8872592 33.2314648,6.11559824 C26.0058909,-1.25139811 14.159814,-1.34393151 6.81986576,5.90265993 C-0.516751236,13.1492514 -0.615579586,25.0514991 6.61221518,32.4162657 C13.4224879,39.3629598 24.3402446,39.8445794 31.7223892,33.7931181" id="Fill-4000" fill="#FFFFFF"></path>
                        <path d="M9.26419854,9.50421401 C3.65364351,15.0464843 3.58109323,24.1379264 9.10151003,29.7706917 C11.7408013,32.4667821 15.2737801,33.9831261 19.0496924,34.0405132 C22.9091475,34.0967967 26.5355623,32.640047 29.274885,29.9307134 C34.8788445,24.3873396 34.9546926,15.3003119 29.4452682,9.67416814 C26.6531817,6.82688474 22.9586136,5.39993224 19.2651448,5.39993224 C15.6508217,5.39993224 12.0353994,6.76618683 9.26419854,9.50421401 Z M19.029906,35.3284123 C14.9154257,35.2644036 11.0647646,33.6112135 8.1869368,30.673435 C2.17075975,24.5352217 2.25100476,14.6271169 8.36611401,8.58602029 C14.4724293,2.55044164 24.3403667,2.63321151 30.3598415,8.7714248 C36.3639268,14.9041201 36.2814833,24.8067069 30.1740688,30.8478035 C27.2445764,33.7447489 23.3829228,35.3306195 19.2728395,35.3306195 C19.1925945,35.3306195 19.1112502,35.3295159 19.029906,35.3284123 Z M33.0178199,31.1479823 L33.3640826,30.7021286 C38.8229416,23.6523432 38.2326462,13.5279331 31.9900243,7.15244621 C25.0889537,0.117007572 13.7656137,0.0243053213 6.75022139,6.94828054 C3.3590454,10.2977011 1.47053962,14.7827243 1.43316523,19.5745477 C1.3946916,24.3685784 3.2128456,28.8822951 6.55125775,32.2846884 L6.55235699,32.2846884 C13.0555003,38.9173137 23.3708311,39.482356 30.5467134,33.6001775 L30.999603,33.2293685 L41.5336839,43.9762079 L43.6013669,41.937862 L33.0178199,31.1479823 Z M30.9006708,34.9620177 C23.2312268,40.8773041 12.4718003,40.1566545 5.63778376,33.1874318 L5.63888301,33.1874318 C2.05863659,29.5400397 0.109672233,24.7018651 0.15034436,19.5646154 C0.191016487,14.4284693 2.21582886,9.62119542 5.85213686,6.03119042 C13.3698849,-1.39050759 25.5055682,-1.29228735 32.9045975,6.24970287 C39.4627032,12.948544 40.2002977,23.5077718 34.7139575,31.0420368 L45.4162232,41.9522088 L41.5193937,45.7949378 L30.9006708,34.9620177 Z" id="Fill-4001" fill="#A3B2C7"></path>
                        <polygon id="Fill-4002" fill="#CBD5E1" points="52.3614277 59.0436703 37.3454514 44.0287913 35.5075441 45.8677957 32.1674907 42.5277423 43.2530887 31.4421442 46.5931421 34.7821977 44.7530404 36.620105 59.7690167 51.6360813"></polygon>
                        <path d="M43.8202464,36.5037558 L45.684114,34.6398187 L43.21638,32.1719927 L32.8983828,42.491487 L35.3650047,44.959313 L37.2288722,43.0942638 L52.4478625,58.3138219 L59.0392367,51.7233139 L43.8202464,36.5037558 Z M37.2288722,44.9292854 L35.3650047,46.7932225 L31.0634296,42.491487 L43.21638,30.3380832 L47.517955,34.6398187 L45.6540875,36.5037558 L60.8730778,51.7233139 L52.4478625,60.1477314 L37.2288722,44.9292854 Z" id="Fill-4003" fill="#A3B2C7"></path>
                    </g>
                    <path d="M156.406718,103.288528 L157.165712,102.215979 C157.412166,102.408488 157.660802,102.596413 157.912709,102.778609 L157.188612,103.877513 C156.924709,103.68615 156.664078,103.489058 156.406718,103.288528 Z M158.278029,104.629214 L158.948692,103.493641 C159.299835,103.722819 159.656431,103.943975 160.018479,104.154818 L159.400162,105.322475 C159.020665,105.102465 158.647711,104.870996 158.278029,104.629214 Z M160.553919,105.958442 L161.116621,104.758699 C161.487393,104.951208 161.863618,105.13455 162.243115,105.306433 L161.737119,106.533677 C161.339084,106.352627 160.94432,106.160118 160.553919,105.958442 Z M162.946492,107.048179 L163.391419,105.795726 C163.77964,105.948129 164.171132,106.091365 164.564806,106.225433 L164.175494,107.497367 C163.762192,107.357569 163.352161,107.207458 162.946492,107.048179 Z M178.050023,106.854525 C178.45351,106.759416 178.854817,106.652849 179.253943,106.537114 L179.592,107.826236 C179.173245,107.9477 178.752309,108.057705 178.329192,108.158543 L178.050023,106.854525 Z M165.425216,107.88353 L165.75564,106.592117 C166.153675,106.70556 166.557163,106.807543 166.961741,106.898068 L166.693476,108.205524 C166.267088,108.10927 165.845062,108.001557 165.425216,107.88353 Z M175.604014,107.30142 C176.015135,107.247564 176.424076,107.183394 176.831926,107.108911 L177.051118,108.425534 C176.623639,108.5046 176.195069,108.571062 175.762138,108.628356 L175.604014,107.30142 Z M167.971551,108.462203 L168.180929,107.143288 C168.588779,107.214333 168.997719,107.275065 169.409931,107.325484 L169.262712,108.653566 C168.830871,108.599709 168.400121,108.536685 167.971551,108.462203 Z M173.129652,107.499659 C173.544045,107.4882 173.957348,107.466428 174.369559,107.432051 L174.466615,108.765862 C174.033683,108.800239 173.599661,108.823157 173.165639,108.836907 L173.129652,107.499659 Z M170.560416,108.779613 L170.648747,107.444656 C171.059869,107.474449 171.473171,107.493929 171.887564,107.503096 L171.862482,108.840345 C171.425189,108.830032 170.992257,108.810552 170.560416,108.779613 Z" id="Fill-4004" fill="#A3B2C7"></path>
                </g>
                <path d="M0.511939553,153.745519 L362.196343,153.745519" id="Line" stroke="#CBD5E1" stroke-linecap="square"></path>
            </g>
        </g>
    </g>
</svg>