<svg width="200" height="200" viewBox="0 0 200 200" fill="none" xmlns="http://www.w3.org/2000/svg">
<path d="M15.1817 54.3304C12.3103 50.3731 10.3017 45.857 9.28569 41.0744C9.08569 40.1184 8.92169 39.1224 9.14969 38.1724C9.59569 36.3264 11.3497 35.1464 12.9937 34.1844C20.0438 30.0409 27.4132 26.4662 35.0317 23.4944C36.7517 22.8244 38.7537 22.2004 40.3677 23.0944C41.2937 23.6104 41.9037 24.5404 42.4597 25.4424C44.1357 28.1504 45.6937 30.9271 47.1337 33.7724C48.2517 35.9724 49.3217 38.4344 48.7917 40.8504C48.2917 43.1204 46.4757 44.8504 44.5917 46.2244C42.1557 48.0024 39.4797 49.4244 36.8137 50.8244L24.0497 57.5704C22.4497 58.4164 20.7097 59.2884 18.9177 59.0304C18.1029 58.898 17.3416 58.54 16.7198 57.9971C16.098 57.4541 15.6407 56.7479 15.3997 55.9584" fill="black"/>
<path d="M15.2824 54.2723C13.2263 51.4022 11.613 48.2396 10.4964 44.8903C9.94035 43.2143 9.35835 41.3923 9.24235 39.6223C9.10635 37.6003 10.2824 36.2003 11.8644 35.1203C14.7404 33.1483 17.9744 31.5643 21.0764 29.9843C24.4244 28.2763 27.833 26.693 31.3024 25.2343C32.9024 24.5603 34.5244 23.8343 36.1824 23.3063C38.0804 22.6923 40.0184 22.6163 41.4024 24.2783C42.6024 25.7223 43.4944 27.5383 44.4204 29.1683C45.3464 30.7983 46.2044 32.3943 47.0204 34.0403C47.8904 35.7763 48.7424 37.6603 48.7084 39.6403C48.6784 41.4543 47.7804 43.0183 46.5444 44.2903C44.1444 46.7763 40.8564 48.4503 37.8324 50.0623C34.0764 52.0623 30.3064 54.0483 26.5404 56.0403C24.6744 57.0283 22.7304 58.3463 20.6384 58.7743C18.4224 59.2283 16.2764 58.0823 15.5564 55.9103C15.4864 55.6963 15.1564 55.7863 15.2164 56.0043C15.4122 56.6416 15.7424 57.2295 16.1847 57.7284C16.627 58.2273 17.1711 58.6255 17.7804 58.8963C19.3264 59.5703 20.9964 59.2043 22.4864 58.5583C24.4204 57.7223 26.2604 56.6263 28.1224 55.6423L34.1604 52.4563C37.8204 50.5263 41.6264 48.7143 44.9484 46.2223C47.5764 44.2503 49.6064 41.6643 49.0224 38.2043C48.6984 36.2903 47.7664 34.5223 46.8844 32.8163C45.8604 30.8363 44.7784 28.8877 43.6384 26.9703C42.8024 25.5703 41.9664 23.7443 40.4764 22.9123C39.0624 22.1123 37.3604 22.4563 35.9084 22.9463C32.0804 24.2363 28.3424 26.0003 24.7084 27.7463C20.8524 29.5863 17.0777 31.5863 13.3844 33.7463C11.9084 34.6003 10.2724 35.5183 9.40035 37.0463C8.43835 38.7343 8.97835 40.7183 9.43435 42.4763C10.5555 46.7653 12.4713 50.8058 15.0824 54.3883C15.1684 54.5083 15.3684 54.3883 15.2824 54.2723Z" fill="black"/>
<path d="M15.4823 54.1537C13.4623 51.2876 11.884 48.1345 10.8003 44.7997C10.2683 43.1477 9.7163 41.3557 9.6003 39.6177C9.4783 37.7277 10.5663 36.4557 12.0463 35.4497C14.9323 33.4897 18.1643 31.9097 21.2703 30.3317C24.597 28.6437 27.9783 27.0811 31.4143 25.6437C33.0143 24.9697 34.6383 24.2577 36.2963 23.7197C38.0503 23.1517 39.8223 23.0297 41.0963 24.5797C42.2683 26.0037 43.1403 27.7797 44.0483 29.3797C44.9563 30.9797 45.8323 32.6057 46.6483 34.2517C47.4643 35.8977 48.3103 37.7337 48.2823 39.6377C48.2563 41.3377 47.4043 42.7997 46.2503 43.9957C43.8663 46.4597 40.6203 48.1157 37.6303 49.7157C33.877 51.7277 30.1156 53.7277 26.3463 55.7157C24.5103 56.6897 22.5963 57.9977 20.5463 58.4157C18.5463 58.8257 16.5763 57.7837 15.9043 55.8157C15.6863 55.1777 14.6823 55.4417 14.8863 56.0957C15.0884 56.7805 15.4353 57.4139 15.9036 57.9529C16.3718 58.4919 16.9505 58.9239 17.6003 59.2197C19.2503 59.9637 21.0423 59.5957 22.6423 58.9037C24.5923 58.0617 26.4423 56.9617 28.3243 55.9717C30.3376 54.9051 32.3523 53.8457 34.3683 52.7937C38.0303 50.8677 41.8383 49.0637 45.1683 46.5777C47.9683 44.4897 50.0683 41.7557 49.4463 38.0917C49.1143 36.1397 48.1663 34.3377 47.2663 32.5977C46.2423 30.6177 45.1603 28.6697 44.0203 26.7537C43.1403 25.2737 42.2663 23.4217 40.7043 22.5417C39.1923 21.6897 37.3683 22.0057 35.8063 22.5417C31.9443 23.8437 28.1763 25.6317 24.5043 27.3897C20.643 29.2297 16.8676 31.2331 13.1783 33.3997C11.6543 34.2977 9.9783 35.2717 9.0743 36.8597C8.0583 38.6597 8.6003 40.7097 9.1003 42.5737C10.2654 46.8788 12.2258 50.9278 14.8803 54.5117C15.1423 54.8637 15.7423 54.5317 15.4803 54.1597L15.4823 54.1537Z" fill="#58C995"/>
<path d="M80.5996 38.5998C81.8346 35.6702 82.4801 32.5259 82.4994 29.3466C82.5188 26.1674 81.9114 23.0155 80.7121 20.071C79.5128 17.1266 77.7451 14.4473 75.51 12.1863C73.2748 9.92532 70.616 8.12691 67.6856 6.89385C55.3296 1.69385 41.0256 7.58185 35.9116 19.9739C33.8177 25.0518 33.5124 30.6907 35.0457 35.9651C36.5789 41.2394 39.8597 45.8358 44.3496 48.9999C45.1272 49.5413 45.6955 50.3332 45.9594 51.2433C46.2233 52.1533 46.1669 53.1264 45.7996 53.9999L41.5816 64.0199L45.0616 65.4839L49.2796 55.4639C49.6446 54.5924 50.2973 53.8723 51.129 53.4239C51.9606 52.9755 52.9209 52.8259 53.8496 52.9999C59.2823 54.0124 64.8978 53.1362 69.7638 50.5168C74.6298 47.8974 78.4534 43.6923 80.5996 38.5998ZM51.1336 46.1999C47.772 44.7843 44.9057 42.4037 42.8971 39.3592C40.8885 36.3146 39.8278 32.7428 39.8491 29.0954C39.8704 25.448 40.9729 21.8889 43.017 18.868C45.0611 15.8472 47.9551 13.5003 51.333 12.1242C54.7109 10.7481 58.421 10.4045 61.9941 11.137C65.5673 11.8694 68.843 13.645 71.4071 16.2391C73.9711 18.8333 75.7084 22.1295 76.3991 25.7109C77.0898 29.2924 76.703 32.9982 75.2876 36.3599C73.3891 40.8674 69.7779 44.4364 65.2483 46.2817C60.7186 48.127 55.6415 48.0976 51.1336 46.1999Z" fill="#AA00EA"/>
<path d="M80.9017 38.6818C82.5684 34.6448 83.1372 30.2386 82.5502 25.9106C81.9632 21.5826 80.2414 17.4871 77.5596 14.0398C72.0956 7.0758 63.0376 3.5818 54.3116 5.0238C49.991 5.75772 45.9428 7.62571 42.5806 10.4369C39.2185 13.248 36.6631 16.9015 35.1756 21.0238C32.0316 29.8618 34.3596 39.9998 40.9996 46.5998C42.9276 48.5158 46.5376 50.0838 45.6836 53.3598C45.4216 54.3598 44.8836 55.3398 44.4836 56.2898L41.2676 63.9258C41.1976 64.0958 41.3476 64.2498 41.4856 64.3078L44.9637 65.7738C45.1337 65.8438 45.2896 65.6938 45.3477 65.5558L47.6096 60.1798L49.0456 56.7798C49.3776 55.9798 49.6596 55.1358 50.2456 54.4898C51.9356 52.6378 54.2156 53.4898 56.3616 53.6538C62.1892 54.1047 67.9865 52.4623 72.7117 49.0218C76.2985 46.3943 79.11 42.8476 80.8497 38.7558C81.0056 38.3918 80.4697 38.0758 80.3137 38.4418C77.0137 46.1498 69.9036 51.7058 61.5736 52.8778C59.5663 53.1596 57.5311 53.1838 55.5176 52.9498C53.5896 52.7278 51.8417 52.2898 50.2097 53.6698C48.7536 54.8978 48.1396 57.3358 47.4276 59.0278L44.7656 65.3998L45.1477 65.1818L41.6676 63.7178L41.8856 64.0998L44.5296 57.8198C45.4056 55.7378 47.0056 53.2198 46.1736 50.9018C45.8435 50.0305 45.2632 49.2762 44.5056 48.7338C43.5077 48.0046 42.5553 47.2151 41.6536 46.3698C39.1468 43.933 37.2034 40.9773 35.9596 37.7099C34.7158 34.4426 34.2018 30.9428 34.4536 27.4558C35.1216 18.2558 41.2716 10.0818 49.9037 6.8558C58.2316 3.7378 67.8236 5.5518 74.4036 11.5538C81.8496 18.3538 84.1456 29.2558 80.3056 38.5258C80.1497 38.8858 80.7497 39.0458 80.9017 38.6818Z" fill="#58C995"/>
<path d="M51.2916 45.9337C44.3696 42.9577 39.8576 35.9897 40.1716 28.4257C40.4876 20.7697 45.8116 13.9897 53.1476 11.8257C60.4476 9.66365 68.5756 12.4257 73.0136 18.6257C75.157 21.6489 76.3326 25.2514 76.3851 28.957C76.4375 32.6626 75.3645 36.2969 73.3076 39.3797C68.4916 46.5277 59.1236 49.1697 51.2176 45.9097C50.8476 45.7577 50.6856 46.3577 51.0516 46.5097C58.2896 49.4937 66.8256 47.6777 72.1296 41.8757C77.4336 36.0737 78.5296 27.3717 74.8616 20.4337C71.2176 13.5337 63.4036 9.54965 55.6776 10.6337C47.9516 11.7177 41.5136 17.7257 39.9236 25.3997C38.1236 34.0917 42.8556 42.9757 50.9776 46.4677C51.3416 46.6257 51.6576 46.0897 51.2916 45.9337Z" fill="#58C995"/>
<path d="M81.1997 38.7636C82.8821 34.674 83.4519 30.2119 82.8512 25.8307C82.2506 21.4496 80.5008 17.3055 77.7797 13.8196C72.2377 6.76564 63.0617 3.26564 54.2297 4.72364C45.3977 6.18164 37.8797 12.5036 34.8757 20.9436C31.6977 29.8796 34.0757 40.1436 40.7897 46.8256C41.7309 47.74 42.7333 48.5893 43.7897 49.3676C45.0457 50.3136 45.7897 51.6796 45.3897 53.2836C45.1317 54.2836 44.5897 55.2636 44.1897 56.2136L40.9737 63.8496C40.8317 64.1856 41.1337 64.4976 41.4077 64.6136L44.8877 66.0796C45.2237 66.2216 45.5357 65.9196 45.6517 65.6456L47.9157 60.2696L49.3517 56.8696C49.6637 56.1276 49.9237 55.3256 50.4737 54.7176C52.0737 52.9476 54.3277 53.8116 56.3697 53.9736C61.5529 54.373 66.7306 53.1349 71.1723 50.4339C75.6141 47.7329 79.0956 43.7054 81.1257 38.9196C81.4377 38.1936 80.3677 37.5596 80.0537 38.2936C76.7837 45.9296 69.7597 51.4356 61.4997 52.5856C59.5191 52.8593 57.5117 52.8801 55.5257 52.6476C53.5057 52.4136 51.6977 52.0096 49.9977 53.4576C48.5057 54.7256 47.8697 57.2096 47.1357 58.9536L44.4537 65.3236L45.2177 64.8876L41.7397 63.4236L42.1737 64.1876L44.8177 57.9076C45.7237 55.7536 47.3177 53.2176 46.4617 50.8256C45.7057 48.7116 43.3957 47.6456 41.8617 46.1556C39.3829 43.7482 37.4616 40.8269 36.2328 37.5973C35.0041 34.3676 34.4979 30.9079 34.7497 27.4616C35.4197 18.3996 41.4877 10.3276 49.9837 7.14564C58.2057 4.06763 67.6777 5.83164 74.1837 11.7636C81.5537 18.4896 83.7997 29.2576 79.9997 38.4336C79.6957 39.1716 80.8997 39.4936 81.1997 38.7636Z" fill="black"/>
<path d="M51.4482 45.6642C44.6222 42.7302 40.1742 35.8922 40.4822 28.4262C40.7942 20.9102 46.0302 14.2502 53.2302 12.1182C60.4002 10.0002 68.3842 12.6882 72.7462 18.7742C74.861 21.7503 76.0215 25.2988 76.074 28.9494C76.1265 32.6 75.0685 36.1804 73.0402 39.2162C68.2962 46.2562 59.0742 48.8162 51.3002 45.6022C50.5602 45.2982 50.2382 46.5002 50.9702 46.8022C58.3022 49.8242 66.9702 47.9642 72.3482 42.0882C74.9841 39.1706 76.6637 35.516 77.1614 31.6157C77.6591 27.7154 76.951 23.7562 75.1322 20.2702C71.4202 13.2422 63.4542 9.21215 55.6002 10.3362C47.7462 11.4602 41.2402 17.5362 39.6302 25.3202C37.8042 34.1382 42.5702 43.1902 50.8302 46.7382C51.5482 47.0522 52.1822 45.9802 51.4482 45.6642Z" fill="black"/>
<path d="M38.9223 66.5374L31.2664 84.7236C30.5459 86.435 31.3492 88.4063 33.0605 89.1267C34.7719 89.8471 36.7432 89.0439 37.4636 87.3325L45.1196 69.1463C45.84 67.435 45.0367 65.4637 43.3254 64.7433C41.6141 64.0228 39.6428 64.8261 38.9223 66.5374Z" fill="black"/>
<path d="M33.2241 88.5318C31.7741 87.9218 31.3501 86.2398 31.8701 84.8778C31.9861 84.5758 32.1221 84.2778 32.2461 83.9858L34.1781 79.3998L38.9401 68.0918C39.5401 66.6678 40.1401 65.1118 42.0161 65.1098C42.4272 65.1147 42.8322 65.211 43.2015 65.3917C43.5708 65.5724 43.8954 65.833 44.1515 66.1547C44.4077 66.4763 44.5891 66.8509 44.6826 67.2514C44.7761 67.6518 44.7793 68.068 44.6921 68.4698C44.5886 68.8279 44.4548 69.1765 44.2921 69.5118L39.9121 79.9118L37.4441 85.7998C37.2641 86.2298 37.0981 86.6718 36.9001 87.0938C36.2181 88.5418 34.7001 89.0938 33.2241 88.5418C32.4741 88.2618 32.1501 89.4618 32.8941 89.7418C35.2801 90.6358 37.3261 89.2618 38.2421 87.0878L40.3041 82.1878L45.4401 69.9878C46.2401 68.0878 46.1901 65.9438 44.3461 64.6198C42.1181 63.0198 39.2801 64.1538 38.2581 66.5358C36.6461 70.2958 35.0821 74.0778 33.4961 77.8478L30.9461 83.9038C30.6759 84.4535 30.4931 85.0419 30.4041 85.6478C30.3264 86.5061 30.5264 87.3666 30.9747 88.1026C31.423 88.8385 32.0958 89.4111 32.8941 89.7358C33.6301 90.0398 33.9521 88.8378 33.2241 88.5318Z" fill="black"/>
<path d="M97.4697 195C100.29 188.454 101.806 181.012 101.904 173.886C125.041 168.974 147.566 161.523 169.07 151.67C172.654 150.028 176.27 148.298 180.186 147.77C180.914 147.672 181.702 147.628 182.33 148.006C182.868 148.33 183.194 148.91 183.486 149.468C190.686 163.218 193.252 180.174 188.666 195" fill="#FFA929"/>
<path d="M97.5482 195.046C99.5522 190.497 100.905 185.689 101.566 180.762C101.717 179.669 101.836 178.572 101.924 177.47C101.972 176.872 102.01 176.272 102.038 175.67C102.052 175.372 102.064 175.07 102.072 174.776C102.09 174.176 102.116 174.102 102.688 173.908C103.85 173.518 105.154 173.372 106.352 173.108C107.632 172.819 108.91 172.52 110.186 172.212C120.338 169.776 130.355 166.85 140.236 163.434C149.946 160.078 159.475 156.263 168.824 151.988C171.208 150.9 173.582 149.762 176.074 148.942C177.202 148.562 178.358 148.267 179.53 148.06C180.224 147.942 181.01 147.78 181.708 147.958C182.646 148.196 183.068 149.068 183.478 149.86C185.655 154.056 187.372 158.474 188.6 163.038C191.4 173.438 191.696 184.596 188.534 194.96C188.527 194.997 188.534 195.035 188.553 195.066C188.573 195.098 188.603 195.121 188.639 195.131C188.675 195.141 188.713 195.138 188.747 195.121C188.78 195.104 188.805 195.075 188.818 195.04C191.234 187.142 191.66 178.764 190.51 170.606C189.918 166.454 188.926 162.368 187.548 158.406C186.896 156.526 186.163 154.678 185.348 152.86C184.936 151.94 184.502 151.03 184.044 150.128C183.682 149.412 183.336 148.554 182.69 148.036C181.31 146.928 178.85 147.77 177.356 148.176C175.322 148.732 173.356 149.542 171.444 150.4C167.098 152.342 162.776 154.326 158.38 156.15C149.834 159.696 141.146 162.87 132.318 165.672C122.306 168.847 112.156 171.528 101.868 173.714C101.829 173.727 101.795 173.751 101.771 173.784C101.746 173.816 101.732 173.855 101.73 173.896C101.599 181.132 100.123 188.28 97.3802 194.976C97.3402 195.072 97.5062 195.142 97.5482 195.046Z" fill="#58C995"/>
<path d="M97.7875 195.186C101.082 188.682 102.516 181.13 102.656 173.886L102.104 174.61C119.606 170.911 136.766 165.743 153.4 159.16C157.474 157.552 161.514 155.862 165.518 154.09C169.484 152.336 173.39 150.218 177.59 149.07C178.628 148.786 179.74 148.492 180.82 148.456C182.196 148.41 182.598 149.368 183.148 150.44C184.092 152.284 184.948 154.169 185.716 156.096C187.191 159.839 188.328 163.706 189.116 167.652C190.93 176.652 190.772 186.028 188.096 194.852C187.876 195.578 189.006 195.886 189.228 195.164C191.682 187.188 192.106 178.726 190.984 170.48C190.411 166.32 189.431 162.226 188.058 158.258C187.396 156.332 186.642 154.438 185.81 152.578C185.398 151.655 184.964 150.744 184.51 149.844C184.1 149.03 183.71 148.114 182.956 147.55C181.394 146.37 178.88 147.172 177.188 147.634C175.108 148.202 173.108 149.034 171.142 149.912C166.844 151.826 162.568 153.8 158.216 155.6C149.669 159.146 140.981 162.319 132.152 165.118C122.14 168.291 111.991 170.973 101.706 173.164C101.547 173.209 101.408 173.304 101.309 173.435C101.209 173.566 101.155 173.725 101.154 173.89C101.046 181.142 99.5055 188.09 97.1135 194.906C96.9755 195.306 97.5975 195.564 97.7875 195.19V195.186Z" fill="black"/>
<path d="M110.6 81.9557C110.756 80.1737 110.146 78.2357 109.694 76.5297C109.446 75.5937 109.184 74.6557 108.872 73.7397C108.618 72.9957 108.458 72.2637 107.802 71.8017C107.726 71.7579 107.641 71.732 107.553 71.726C107.466 71.72 107.378 71.734 107.297 71.767C107.216 71.7999 107.143 71.851 107.085 71.9163C107.026 71.9816 106.983 72.0593 106.96 72.1437C106.806 72.9317 107.212 73.5917 107.508 74.3137C107.854 75.1557 108.198 75.9997 108.508 76.8577C109.108 78.5597 109.356 80.3497 109.924 82.0477C109.947 82.1276 109.998 82.1965 110.068 82.2419C110.138 82.2873 110.222 82.3061 110.304 82.295C110.387 82.2838 110.462 82.2435 110.518 82.1812C110.573 82.119 110.604 82.0389 110.606 81.9557H110.6Z" fill="black"/>
<path d="M108.524 23.7804C103.276 22.9644 99.0317 26.7804 97.4897 31.5404C95.8677 36.5504 97.3397 42.2944 94.6897 47.0284C93.7537 48.6984 91.8477 50.2804 93.5297 52.1784C94.0377 52.7524 94.5477 53.1344 94.6057 53.9684C94.6517 54.6124 94.4817 55.2564 94.3637 55.8844C94.1517 57.0004 93.9824 58.1224 93.8557 59.2504C93.5957 61.5404 93.5057 63.8724 93.8557 66.1564C94.1377 68.0244 94.7357 69.9024 96.2917 71.0824C97.9457 72.3344 100.108 72.7884 102.124 73.0244C104.279 73.2761 106.461 73.1509 108.574 72.6544C109.152 72.5224 109.04 71.5304 108.432 71.6004C106.788 71.7884 105.032 71.7344 103.392 71.6404C101.616 71.5364 99.7197 71.2644 98.1117 70.4584C94.5497 68.6704 94.9517 63.4764 95.2537 60.1184C95.347 59.0771 95.4804 58.0417 95.6537 57.0124C95.8257 56.0124 96.1217 54.9904 96.0777 53.9684C96.0297 52.8144 95.4937 52.1684 94.7657 51.3464C93.8597 50.3284 94.7097 49.5464 95.3817 48.6344C98.0997 44.9644 97.7997 39.9084 98.1997 35.6004C98.4597 32.8344 99.1517 30.0404 100.944 27.8464C102.782 25.6004 105.496 24.2204 108.428 24.5264C108.846 24.5684 108.948 23.8524 108.528 23.7864L108.524 23.7804Z" fill="black"/>
<path d="M100.568 44.4722C100.63 44.6322 100.71 44.7762 100.78 44.9302C100.806 44.9842 100.78 45.0002 100.796 44.9202C100.776 45.1002 100.734 44.9942 100.86 44.8962C100.922 44.8536 100.996 44.8353 101.07 44.845C101.144 44.8546 101.212 44.8914 101.26 44.9482C101.315 45.0014 101.35 45.0722 101.358 45.1482C101.348 45.2162 101.346 45.2262 101.358 45.1802C101.407 45.0708 101.429 44.9513 101.422 44.8316C101.416 44.712 101.381 44.5956 101.32 44.4922C101.257 44.3878 101.161 44.3065 101.047 44.2604C100.934 44.2143 100.809 44.2059 100.69 44.2362C100.174 44.3442 100.016 45.0242 100.164 45.4622C100.203 45.5733 100.263 45.6756 100.341 45.7634C100.42 45.8511 100.514 45.9226 100.62 45.9737C100.726 46.0248 100.841 46.0545 100.958 46.0611C101.076 46.0677 101.193 46.0511 101.304 46.0122C101.534 45.9333 101.726 45.7707 101.841 45.5569C101.956 45.343 101.987 45.0935 101.926 44.8582C101.868 44.6495 101.759 44.4586 101.608 44.3031C101.457 44.1477 101.269 44.0325 101.062 43.9682C100.993 43.9473 100.919 43.9456 100.849 43.9633C100.779 43.9811 100.715 44.0176 100.663 44.0689C100.612 44.1202 100.576 44.1845 100.559 44.2548C100.541 44.3252 100.543 44.3989 100.564 44.4682L100.568 44.4722Z" fill="black"/>
<path d="M105 40.7184C104.492 39.0104 101.99 38.6264 100.49 38.8184C99.3343 38.9664 99.0463 40.4504 100.212 40.8764L100.298 40.9084C100.452 40.9533 100.614 40.9554 100.769 40.9145C100.923 40.8736 101.063 40.7913 101.174 40.6764L101.23 40.6064L100.49 40.9144C101.168 40.9144 101.842 40.7784 102.522 40.8264C103.107 40.8917 103.673 41.0667 104.192 41.3424C104.602 41.5424 105.148 41.2144 104.992 40.7184H105Z" fill="black"/>
<path d="M113.638 47.4657C114.438 46.9037 114.522 45.7137 115.638 45.5357C117.014 45.3157 118.142 46.6857 118.448 47.8837C118.625 48.7375 118.535 49.625 118.191 50.4261C117.846 51.2271 117.264 51.9028 116.522 52.3617C115.922 52.6997 115.384 52.6217 114.768 52.7977C114.665 52.8274 114.573 52.8866 114.504 52.9678C114.434 53.0491 114.39 53.1489 114.376 53.2551C114.362 53.3612 114.379 53.4691 114.426 53.5655C114.473 53.6619 114.546 53.7426 114.638 53.7977C116.018 54.7177 117.936 53.2177 118.748 52.1457C119.802 50.7557 120.238 48.9077 119.684 47.2257C119.178 45.6897 117.884 44.3377 116.196 44.2257C114.408 44.0997 113.478 45.5037 113.11 47.0697C113.044 47.3537 113.368 47.6697 113.642 47.4697L113.638 47.4657Z" fill="black"/>
<path d="M116.24 48.2799C116.12 47.7779 115.512 48.0039 115.224 48.2019C115.013 48.3632 114.838 48.5671 114.71 48.8003C114.583 49.0336 114.506 49.291 114.484 49.5559C114.44 49.9879 114.7 50.6919 115.266 50.3979C115.778 50.1339 115.642 49.3699 115.342 49.0139C115.042 48.6579 114.51 49.1139 114.742 49.4759C114.779 49.555 114.809 49.6365 114.834 49.7199C114.802 49.8879 114.936 49.9199 115.234 49.7999V49.7139C115.29 49.5519 115.26 49.3619 115.33 49.1919C115.382 49.0619 115.79 48.3719 115.97 48.4939C116.112 48.5899 116.282 48.4299 116.246 48.2799H116.24Z" fill="black"/>
<path d="M113.6 47.0002C112.956 47.0295 112.317 46.8696 111.762 46.5402C111.934 44.8026 112.294 43.0886 112.834 41.4282C112.923 41.2088 112.969 40.9747 112.97 40.7382C112.933 40.4667 112.838 40.2062 112.692 39.9742C110.225 35.2547 109.691 29.7606 111.202 24.6542C109.512 26.5342 106.894 27.2102 104.434 27.7942C103.802 27.9442 103.078 28.0782 102.552 27.6982C102.026 27.3182 102.162 26.2342 102.81 26.2702C101.363 26.9082 100.112 27.9203 99.1864 29.2023C98.2605 30.4843 97.693 31.99 97.5423 33.5642C97.3723 31.6722 95.8783 30.1422 95.4783 28.2842C94.9663 25.9022 96.4043 23.4422 98.3823 22.0222C100.36 20.6022 102.8 20.0002 105.168 19.4262C104.448 19.6262 103.688 19.8262 102.968 19.6422C102.248 19.4582 101.584 18.7722 101.726 18.0422C101.802 17.7224 101.966 17.4305 102.2 17.2002C103.274 16.0602 104.922 15.6642 106.486 15.5802C109.075 15.445 111.653 16.0094 113.948 17.2142C113.716 16.8242 113.902 16.2862 114.262 16.0142C114.643 15.7594 115.1 15.6442 115.556 15.6882C116.31 15.7213 117.043 15.9418 117.69 16.3298C118.337 16.7178 118.876 17.261 119.26 17.9102C119.46 18.2482 119.622 18.6302 119.952 18.8442C120.243 18.9957 120.566 19.0765 120.894 19.0802C125.282 19.5122 132.23 21.5062 135.236 24.8162C137.772 27.6162 139.38 31.2002 140.098 34.8842C140.91 39.0462 140.034 42.8242 138.86 46.8322C137.616 51.0762 134.338 55.3322 132.612 59.4042C132.254 60.2522 131.844 61.1302 131.104 61.6762C130.468 62.1442 129.666 62.3102 128.884 62.4222C127.566 62.6088 126.234 62.6697 124.904 62.6042C123.514 62.5342 122.054 62.2942 120.978 61.4042C120.178 60.7542 119.686 59.8222 119.23 58.9062C118.544 57.5022 117.903 56.0762 117.308 54.6282C117.196 54.3482 117.082 54.0402 117.17 53.7522C117.258 53.4642 117.57 53.2342 117.836 53.0362C118.751 52.324 119.414 51.339 119.73 50.2241C120.047 49.1092 120 47.9225 119.596 46.8362C119.068 45.5002 117.882 44.3602 116.454 44.2042C115.026 44.0482 113.484 45.1282 113.416 46.5622" fill="black"/>
<path d="M113.6 46.5395C113.043 46.5268 112.5 46.3682 112.024 46.0795L112.264 46.6675C112.406 45.6855 112.588 44.7035 112.812 43.7375C113.024 42.8195 113.508 41.8415 113.558 40.9015C113.598 40.1695 113.158 39.5455 112.846 38.9015C112.424 37.9863 112.074 37.0394 111.8 36.0695C110.744 32.3908 110.756 28.4874 111.836 24.8155C112.02 24.2015 111.2 23.7175 110.754 24.1855C109.702 25.2915 108.372 25.9575 106.938 26.4315C106.256 26.6575 105.56 26.8315 104.864 27.0135C104.578 27.0855 104.288 27.1695 103.996 27.2135C103.777 27.2674 103.551 27.2896 103.326 27.2795C103.215 27.2636 103.111 27.2195 103.022 27.1516C102.934 27.0837 102.864 26.9941 102.82 26.8915L102.498 25.6915C100.962 26.3959 99.638 27.4914 98.6587 28.8684C97.6794 30.2454 97.0791 31.8555 96.9179 33.5375H98.1859C98.0019 32.0855 97.2919 30.9135 96.6659 29.6215C95.8839 28.0035 95.8179 26.4215 96.6979 24.8215C98.4219 21.6995 102.144 20.8015 105.348 20.0215L105 18.7995C104.328 18.9795 103.4 19.2855 102.772 18.8575C101.892 18.2575 102.862 17.3875 103.436 17.0355C104.34 16.4775 105.448 16.2835 106.494 16.2355C108.967 16.1104 111.429 16.6446 113.628 17.7835C114.088 18.0195 114.792 17.6195 114.582 17.0515C114.126 15.8155 116.8 16.5995 117.102 16.7495C117.966 17.1855 118.42 17.8355 118.92 18.6275C119.688 19.8275 121.002 19.7235 122.278 19.9475C125.134 20.4495 128.002 21.2455 130.616 22.5115C133.44 23.8795 135.452 25.8375 136.99 28.5795C138.738 31.6955 139.74 35.3615 139.606 38.9415C139.43 42.6151 138.545 46.22 137 49.5575C135.522 52.7255 133.522 55.6295 132.154 58.8535C131.832 59.6135 131.536 60.4675 130.912 61.0535C130.112 61.7875 128.844 61.8795 127.818 61.9675C126.114 62.1155 124.17 62.1975 122.54 61.5995C120.778 60.9535 120.046 59.2155 119.314 57.6295C118.914 56.7509 118.53 55.8622 118.162 54.9635C118.034 54.6435 117.728 54.1775 117.926 53.8355C118.076 53.5775 118.632 53.2855 118.846 53.0735C120.982 50.9595 121.284 47.2995 119.268 45.0095C118.298 43.9035 116.802 43.2475 115.334 43.5875C114.631 43.7431 113.995 44.115 113.514 44.6509C113.034 45.1869 112.734 45.86 112.656 46.5755C112.532 47.5455 114.096 47.5615 114.194 46.5755C114.278 45.7355 115.046 45.0935 115.852 44.9535C116.794 44.7915 117.686 45.2955 118.288 45.9895C119.426 47.3075 119.526 49.2515 118.808 50.7895C118.455 51.5053 117.94 52.1281 117.302 52.6075C116.796 53.0075 116.432 53.4535 116.488 54.1395C116.55 54.8655 117.02 55.6395 117.312 56.2975C117.752 57.2882 118.219 58.2655 118.712 59.2295C119.432 60.6475 120.27 61.9295 121.776 62.5875C123.406 63.2995 125.35 63.2975 127.094 63.1875C128.652 63.0995 130.578 63.0295 131.794 61.9195C133.01 60.8095 133.528 58.9195 134.298 57.4955C136.068 54.2015 138.298 51.0795 139.478 47.4955C140.678 43.8455 141.57 39.8575 141.096 36.0015C140.647 32.3832 139.293 28.9364 137.16 25.9795C135.33 23.4755 132.986 21.8735 130.14 20.6915C128.528 20.0262 126.865 19.4911 125.168 19.0915C124.332 18.8955 123.491 18.7369 122.644 18.6155C121.736 18.4835 120.584 18.5615 119.972 17.8335C119.426 17.1995 119.12 16.5395 118.4 16.0195C117.702 15.5158 116.889 15.194 116.036 15.0835C114.662 14.9055 112.684 15.6455 113.328 17.3915L114.282 16.6595C111.168 15.0595 106.922 14.1435 103.564 15.5435C102.364 16.0435 100.688 17.2175 101.136 18.7435C101.684 20.6135 103.872 20.4375 105.336 20.0435C106.136 19.8315 105.798 18.6115 104.994 18.8055C101.528 19.6415 97.7239 20.6815 95.7399 23.9255C94.9159 25.2715 94.5279 26.8835 94.8619 28.4435C95.2519 30.2575 96.6619 31.7015 96.9059 33.5535C97.0079 34.3535 98.0899 34.3795 98.1739 33.5535C98.3318 32.0925 98.8735 30.6992 99.7439 29.5151C100.614 28.331 101.783 27.3983 103.13 26.8115C103.698 26.5595 103.426 25.5495 102.808 25.6115C101.918 25.7135 101.408 26.4775 101.632 27.3675C101.918 28.5295 103.198 28.6635 104.188 28.4875C106.858 28.0155 109.76 27.1235 111.658 25.0875L110.576 24.4575C109.552 27.9723 109.448 31.6911 110.274 35.2575C110.696 37.0475 111.506 38.5715 112.162 40.2575C112.522 41.1835 111.88 42.4395 111.666 43.4055C111.445 44.4293 111.302 45.4683 111.238 46.5135C111.237 46.6047 111.26 46.6945 111.306 46.7736C111.351 46.8527 111.417 46.9183 111.496 46.9635C112.145 47.2985 112.87 47.4617 113.6 47.4375C113.714 47.4299 113.821 47.3793 113.899 47.2959C113.977 47.2126 114.02 47.1027 114.02 46.9885C114.02 46.8744 113.977 46.7645 113.899 46.6811C113.821 46.5977 113.714 46.5471 113.6 46.5395Z" fill="black"/>
<path d="M104.232 41.8356C102.152 40.1736 99.0538 40.8256 97.6878 43.0796C96.4298 45.1576 96.9078 48.0296 98.9198 49.4396C100.824 50.7716 103.606 50.3436 104.94 48.4136C106.232 46.5436 106.362 43.7376 104.708 42.0936C104.488 41.8756 104.072 42.1696 104.264 42.4356C104.756 43.1333 105.026 43.9634 105.038 44.8171C105.05 45.6708 104.804 46.5083 104.332 47.2196C103.358 48.6656 101.646 49.4496 99.9918 48.6196C98.3378 47.7896 97.8298 45.7516 98.4958 44.0896C99.4018 41.8236 101.804 41.2216 103.908 42.2536C104.16 42.3776 104.482 42.0376 104.232 41.8356Z" fill="#58C995"/>
<path d="M113.468 45.5337C111.68 44.6617 109.518 44.3157 107.606 43.7877C107.022 43.6257 106.222 43.2377 105.668 43.6677C105.25 43.9917 105.18 44.5657 105.31 45.0417C105.335 45.1228 105.383 45.1949 105.448 45.2495C105.513 45.3042 105.593 45.339 105.677 45.35C105.761 45.3609 105.846 45.3475 105.923 45.3113C106 45.2751 106.065 45.2176 106.11 45.1457C106.298 44.7917 106.21 44.7097 106.73 44.7457C106.989 44.7825 107.244 44.8359 107.496 44.9057L109.6 45.3457C110.818 45.5997 112.088 45.9817 113.334 46.0077C113.389 46.0068 113.443 45.9879 113.487 45.954C113.531 45.9201 113.562 45.8728 113.577 45.8194C113.591 45.766 113.588 45.7093 113.568 45.6578C113.548 45.6062 113.511 45.5627 113.464 45.5337H113.468Z" fill="#58C995"/>
<path d="M95.5703 44.8979C95.5863 44.4979 95.5103 43.8978 95.8683 43.6058C96.2823 43.2638 96.5803 43.6239 96.6683 44.0199C96.8503 44.8979 97.0143 45.7799 97.1983 46.6599C97.2883 47.0879 97.9623 46.9878 97.9563 46.5558C97.9363 45.2358 98.3743 42.6659 96.5563 42.3218C95.1043 42.0458 94.3283 43.9578 95.1143 45.0219C95.1424 45.0664 95.1841 45.1008 95.2332 45.1199C95.2824 45.1391 95.3363 45.1419 95.3872 45.128C95.4381 45.1141 95.4831 45.0842 95.5157 45.0428C95.5483 45.0014 95.5667 44.9505 95.5683 44.8979H95.5703Z" fill="#58C995"/>
<path d="M134.966 74.7796C134.366 72.0836 133.384 69.4536 132.714 66.7676C132.378 65.4183 132.074 64.0616 131.8 62.6976C131.556 61.4976 131.494 59.8396 130.73 58.8476C130.33 58.3296 129.436 58.2996 129.244 59.0476C128.916 60.3136 129.516 61.8196 129.866 63.0476C130.266 64.4476 130.698 65.8316 131.154 67.2116C132.026 69.8416 132.89 72.6716 134.252 75.0956C134.474 75.4956 135.052 75.2176 134.966 74.7936V74.7796Z" fill="black"/>
<path d="M107.748 87.5463C107.11 85.7463 106.5 83.6483 107.534 82.0503C108.134 81.1363 109.144 80.6023 110.116 80.1083C116.932 76.6403 123.804 73.1503 131.166 71.0783C132.59 70.6783 134.226 70.3603 135.456 71.1783C136.298 71.7363 136.752 72.7083 137.168 73.6303L139.242 78.2483C139.389 78.5093 139.459 78.807 139.442 79.1063C139.362 79.6143 138.83 79.9063 138.36 80.1063C129.204 84.1636 120.004 88.1136 110.76 91.9563C110.074 92.2403 109.24 92.5123 108.636 92.0803C107.69 91.4023 108.304 89.8383 107.774 88.8003" fill="#58C995"/>
<path d="M107.828 87.5237C107.484 86.4157 107.106 85.2697 107.122 84.0957C107.144 82.4957 108.076 81.4337 109.408 80.6777C111.54 79.4657 113.808 78.4297 116.008 77.3517C120.698 75.0617 125.494 72.9357 130.51 71.4597C131.71 71.1077 133.018 70.6757 134.274 70.9077C135.716 71.1757 136.39 72.3617 136.95 73.5837C137.456 74.6937 137.95 75.8097 138.448 76.9217C138.608 77.2757 138.77 77.6297 138.928 77.9877C139.164 78.5217 139.212 79.2117 138.744 79.7077C138.36 80.1077 137.334 80.3637 136.826 80.5857C131.886 82.7697 126.933 84.9244 121.966 87.0497C119.073 88.2871 116.174 89.5137 113.27 90.7297C112.306 91.1297 109.326 92.9637 108.47 91.6557C107.936 90.8557 108.302 89.6317 107.9 88.7317C107.836 88.5917 107.59 88.6937 107.648 88.8397C108.01 89.7537 107.662 90.8517 108.13 91.7237C108.51 92.4317 109.262 92.5637 109.998 92.3977C111.516 92.0537 113.026 91.1977 114.46 90.5977C115.894 89.9977 117.282 89.4157 118.692 88.8197C124.826 86.2317 130.936 83.5944 137.022 80.9077C137.804 80.5617 139.304 80.2237 139.598 79.2717C139.718 78.8837 139.574 78.5337 139.426 78.1737C139.124 77.4477 138.78 76.7357 138.458 76.0197C137.524 73.9417 136.742 70.7857 134.048 70.5037C132.818 70.3757 131.582 70.7597 130.418 71.1037C128.942 71.5397 127.482 72.0317 126.04 72.5677C123.192 73.6257 120.41 74.8517 117.668 76.1557C116.106 76.8977 114.556 77.6657 113.01 78.4437C111.588 79.1597 110.06 79.8037 108.732 80.6877C106.234 82.3497 106.716 85.1137 107.682 87.5657C107.72 87.6597 107.87 87.6237 107.84 87.5217L107.828 87.5237Z" fill="#58C995"/>
<path d="M108.062 87.4597C107.862 86.3517 107.494 85.2337 107.552 84.0957C107.624 82.6957 108.498 81.7817 109.668 81.1257C111.808 79.9257 114.068 78.8917 116.268 77.8177C120.92 75.5497 125.668 73.4497 130.648 71.9897C131.744 71.6697 132.958 71.2497 134.116 71.4437C135.41 71.6597 135.966 72.7877 136.458 73.8657C136.964 74.9757 137.458 76.0917 137.954 77.2037C138.184 77.7177 138.92 78.6957 138.452 79.2237C138.094 79.6237 137.022 79.8877 136.534 80.1017C131.597 82.2857 126.65 84.4517 121.692 86.5997C118.843 87.8277 115.988 89.043 113.128 90.2457C112.398 90.5517 111.67 90.8597 110.94 91.1637C110.436 91.3637 109.376 91.9637 108.89 91.4097C108.584 91.0577 108.69 90.2197 108.634 89.7957C108.587 89.3531 108.455 88.9238 108.244 88.5317C107.954 87.9837 107.044 88.3597 107.244 88.9557C107.558 89.9357 107.188 91.0497 107.69 91.9837C108.192 92.9177 109.29 93.1177 110.264 92.8537C111.74 92.4537 113.18 91.6877 114.59 91.1017C116.11 90.4684 117.63 89.8337 119.148 89.1977C125.282 86.6217 131.392 83.9964 137.48 81.3217C138.43 80.9017 139.924 80.5037 140.17 79.3117C140.276 78.8037 140.092 78.3357 139.894 77.8777C139.558 77.1037 139.202 76.3377 138.856 75.5697C137.824 73.2817 136.964 70.2077 134.016 69.9577C132.682 69.8437 131.352 70.2577 130.09 70.6357C128.556 71.0937 127.04 71.6137 125.542 72.1797C122.714 73.2477 119.942 74.4757 117.222 75.7797C115.606 76.5517 114.002 77.3497 112.404 78.1597C111.004 78.8657 109.49 79.5017 108.222 80.4237C105.758 82.2097 106.198 85.3157 107.474 87.7177C107.656 88.0597 108.134 87.8117 108.074 87.4677L108.062 87.4597Z" fill="black"/>
<path d="M119.4 84.5176C114.43 86.651 109.496 88.8703 104.6 91.1756C99.6244 93.5156 94.4284 96.1756 91.5444 100.854C89.5064 104.16 88.8584 108.136 88.7084 112.016C88.0644 128.804 95.9364 145.078 95.1324 161.858C95.0504 163.588 94.8784 165.362 95.3884 167.018C95.8864 168.636 97.0184 170.084 97.0804 171.776C97.1184 172.858 96.7244 174.026 97.2504 174.976C97.7164 175.814 98.7304 176.148 99.6504 176.39C103.368 177.357 107.168 177.977 111 178.244C119.2 178.816 127.41 177.762 135.482 176.258C154.4 172.73 173.822 166.076 186.4 151.522C187.5 150.25 188.574 148.396 187.612 147.018C187.312 146.59 186.862 146.3 186.458 145.97C183.658 143.672 183.258 139.604 182.992 135.986C181.898 121.694 179.131 107.579 174.748 93.9316C171.05 82.4196 162.624 73.0236 149.548 75.1656C139.188 76.8656 128.866 81.1036 119.112 84.8396C114.298 86.6876 109 88.3996 104.6 91.1756" fill="#58C995"/>
<path d="M110.374 147.222C110.596 150.494 109.374 153.678 108.142 156.716C107.074 159.334 105.964 161.956 104.396 164.316C102.828 166.676 100.768 168.762 98.1964 169.952C97.9445 170.098 97.6519 170.159 97.3624 170.126C96.9084 170.026 96.6764 169.526 96.5224 169.094C94.6369 163.692 94.656 157.807 96.5764 152.418C96.9264 151.446 97.3424 150.476 97.3984 149.444" fill="black"/>
<path d="M110.012 147.222C109.89 150.536 108.756 153.506 107.438 156.516C106.206 159.334 104.93 162.152 103.078 164.628C102.281 165.707 101.357 166.685 100.326 167.542C99.7793 167.987 99.1951 168.384 98.5798 168.728C98.4178 168.818 97.8618 169.218 97.6898 169.178C97.3898 169.106 97.3178 168.578 97.2378 168.34C96.2858 165.436 95.8896 162.379 96.0698 159.328C96.1687 157.637 96.4476 155.961 96.9018 154.328C97.3538 152.698 98.2098 151.154 98.1518 149.43C98.1258 148.618 96.8738 148.378 96.6838 149.23C96.2938 150.982 95.4958 152.63 95.0478 154.364C94.6181 156.045 94.3555 157.764 94.2638 159.496C94.0858 162.808 94.4018 166.714 95.8218 169.762C97.2998 172.934 101.466 169.1 102.874 167.644C105.252 165.184 106.764 162.094 108.044 158.96C109.542 155.288 111.294 151.16 110.724 147.116C110.664 146.698 110.028 146.824 110.012 147.214V147.222Z" fill="black"/>
<path d="M119.286 84.1202C113.388 86.4122 107.536 88.9602 101.86 91.7562C97.2002 94.0522 92.5262 97.0002 90.1562 101.822C87.5562 107.104 87.6102 113.448 88.0962 119.182C88.6162 125.312 89.9262 131.334 91.2162 137.338C92.5062 143.342 93.8162 149.422 94.2162 155.588C94.3162 157.136 94.3602 158.69 94.3342 160.242C94.3082 161.832 94.1182 163.432 94.2062 165.022C94.2976 166.38 94.6529 167.707 95.2522 168.928C95.5812 169.571 95.8574 170.24 96.0782 170.928C96.2782 171.66 96.2022 172.356 96.1502 173.1C96.0602 174.36 96.2902 175.562 97.3662 176.346C98.4422 177.13 99.8582 177.346 101.106 177.632C104.3 178.371 107.545 178.863 110.814 179.102C117.462 179.592 124.136 178.998 130.708 177.976C141.694 176.27 152.682 173.624 162.896 169.166C167.822 167.016 172.568 164.42 176.922 161.26C179.04 159.73 181.053 158.059 182.948 156.26C183.931 155.327 184.878 154.357 185.79 153.35C186.626 152.428 187.526 151.486 188.112 150.378C188.632 149.396 188.952 148.226 188.512 147.154C188.028 145.978 186.764 145.432 185.996 144.464C184.412 142.464 184.048 139.74 183.82 137.288C183.232 130.924 182.62 124.592 181.546 118.288C180.443 111.861 178.989 105.499 177.19 99.2302C175.758 94.2302 174.24 89.2302 171.39 84.8302C169.05 81.2002 165.914 78.0002 162 76.0862C157.776 74.0162 153.182 73.7222 148.6 74.5262C142.14 75.6582 135.88 77.7042 129.724 79.9262C123.8 82.0842 117.838 84.2842 111.96 86.6002C109.26 87.6642 106.614 88.8702 104.16 90.4002C103.194 91.0002 104.084 92.5382 105.054 91.9302C110.012 88.8362 115.694 87.0902 121.108 84.9802C126.928 82.7102 132.74 80.4022 138.722 78.5802C141.749 77.6424 144.823 76.866 147.932 76.2542C150.356 75.7882 152.766 75.4982 155.232 75.7422C159.446 76.1622 163.316 78.1422 166.338 81.0762C169.472 84.1122 171.738 87.9942 173.274 92.0502C175.392 97.6022 176.842 103.504 178.168 109.29C179.58 115.457 180.688 121.681 181.49 127.962C181.862 130.916 182.118 133.874 182.364 136.84C182.564 139.17 182.836 141.55 183.842 143.688C184.297 144.672 184.943 145.556 185.742 146.288C186.166 146.668 186.716 146.964 187.028 147.45C187.472 148.144 187.196 148.944 186.846 149.618C186.246 150.754 185.28 151.688 184.404 152.606C183.471 153.586 182.5 154.531 181.492 155.44C177.673 158.865 173.464 161.829 168.952 164.27C159.822 169.27 149.752 172.366 139.606 174.524C127.57 177.082 115.074 178.768 102.884 176.242C101.554 175.966 99.9382 175.788 98.7222 175.148C97.2682 174.382 98.0722 172.548 97.8882 171.22C97.7162 169.98 97.1042 168.89 96.5982 167.762C95.9562 166.328 95.8582 164.884 95.9162 163.334C96.0262 160.316 96.0762 157.334 95.8182 154.334C95.5782 151.516 95.1682 148.712 94.6702 145.934C92.6002 134.378 88.8222 122.858 89.5522 110.988C89.7322 108.066 90.2222 105.076 91.5262 102.426C92.6602 100.126 94.3862 98.2082 96.4022 96.6382C100.78 93.2382 106.214 91.0842 111.202 88.7682C114.002 87.4702 116.802 86.1942 119.602 84.8742C120.02 84.6742 119.722 83.9502 119.284 84.1202H119.286Z" fill="black"/>
<path d="M125.116 187.156C133.998 188.288 143.056 187.12 151.43 183.984C152.046 183.754 151.778 182.756 151.156 182.984C142.854 186.114 133.944 187.212 125.116 186.412C124.636 186.368 124.654 187.092 125.116 187.15V187.156Z" fill="black"/>
<path d="M176.118 177.532C181.318 176.956 186.69 175.086 190.664 171.566C191.16 171.126 190.622 170.416 190.064 170.53L189.664 170.612C189.152 170.716 189.15 171.544 189.664 171.646L190.064 171.726L189.916 170.594C185.66 173.608 181.224 175.958 176.03 176.864C175.658 176.93 175.74 177.574 176.122 177.532H176.118Z" fill="black"/>
<path d="M90.7105 164.284C81.7505 169.53 71.3605 174.252 61.2945 171.702C51.5565 169.234 44.5345 160.276 41.5605 150.68C38.5865 141.084 38.9605 130.818 39.3605 120.78L40.4165 94.5061C40.4625 93.3301 40.5005 92.1061 40.0025 91.0361C38.9805 88.8501 36.2505 88.2261 34.1325 87.0701C32.0152 85.9052 30.3608 84.0503 29.4445 81.8141C28.8945 80.4581 28.6905 78.7561 29.6445 77.6541C30.5985 76.5521 32.9565 77.0401 32.8865 78.5021C31.4445 77.3161 29.8985 75.9521 29.6525 74.1021C29.4065 72.2521 31.4525 70.1921 33.0525 71.1681C34.2525 71.9001 34.8785 73.9841 36.2125 73.5681C35.295 73.4824 34.4253 73.1196 33.7188 72.528C33.0124 71.9363 32.5026 71.1438 32.2571 70.2556C32.0117 69.3674 32.0422 68.4255 32.3447 67.5551C32.6471 66.6847 33.2072 65.9268 33.9505 65.3821C34.5225 64.9641 35.2625 64.6781 35.9385 64.8921C36.4325 65.0481 36.8085 65.4421 37.1785 65.8041C40.3922 68.9316 44.6942 70.6897 49.1785 70.7081L45.2325 68.8701C46.1865 66.7301 47.1965 65.5281 49.5065 65.1321C55.4585 64.1121 58.6865 70.6581 59.5805 75.5321C60.3465 79.6861 59.7665 83.9021 59.7105 88.0881C59.587 94.9329 60.4877 101.758 62.3825 108.336C64.2685 114.768 67.6145 120.912 67.4785 127.784" fill="white"/>
<path d="M108.024 89.4902C98.7622 92.1722 91.3242 99.0702 85.1222 106.454C78.9202 113.838 73.5222 121.968 66.4062 128.472C64.5482 130.17 62.4622 131.944 61.9682 134.412C61.5222 136.64 62.5002 138.886 63.5182 140.918C68.5442 150.936 75.9182 160.694 86.5822 164.136C88.3202 164.698 90.1822 165.08 91.9682 164.692C93.6482 164.326 95.1062 163.314 96.4782 162.278C102.22 157.932 107.289 152.762 111.52 146.934" fill="#58C995"/>
<path d="M107.93 89.1484C98.9516 90.7484 91.6216 97.5484 85.7936 104.148C79.2556 111.548 73.8616 119.938 66.7036 126.786C65.1296 128.29 63.3776 129.66 62.1416 131.474C60.8396 133.386 60.5416 135.63 61.1416 137.852C61.7416 140.074 62.9416 142.166 64.0496 144.172C65.0956 146.074 66.2236 147.93 67.4496 149.722C72.2016 156.668 78.6976 163.022 87.0136 165.322C89.7776 166.084 92.4596 165.972 94.9556 164.478C97.1816 163.144 99.2136 161.352 101.156 159.636C105.28 155.986 109.12 151.932 112.156 147.324C112.612 146.632 111.524 145.766 110.994 146.426C108.126 149.992 105.162 153.48 101.82 156.626C100.143 158.2 98.3879 159.688 96.5616 161.084C94.6596 162.538 92.6736 164.008 90.1616 163.902C87.9916 163.81 85.8016 162.926 83.8596 161.998C82.0973 161.159 80.4185 160.154 78.8456 158.998C75.5996 156.582 72.7996 153.552 70.3996 150.312C67.9668 146.998 65.8534 143.461 64.0876 139.748C63.1156 137.716 62.3456 135.404 63.4616 133.268C64.4216 131.432 66.1656 130.116 67.6496 128.726C74.4136 122.4 79.6196 114.682 85.4896 107.574C88.5516 103.868 91.8476 100.326 95.5816 97.2864C99.3786 94.213 103.599 91.7026 108.112 89.8324C108.202 89.8075 108.279 89.7476 108.326 89.6658C108.372 89.584 108.384 89.4871 108.36 89.3964C108.335 89.3057 108.275 89.2286 108.193 89.1821C108.111 89.1356 108.014 89.1235 107.924 89.1484H107.93Z" fill="black"/>
<path d="M90.5244 163.966C82.3564 168.584 72.4884 173.15 62.8664 171.288C54.7704 169.72 48.5324 163.688 44.8165 156.556C40.3844 148.06 39.7665 138.212 39.9205 128.8C40.0905 118.292 40.7524 107.8 41.0744 97.286C41.1464 94.886 41.6965 91.902 40.0985 89.862C38.8765 88.302 36.9285 87.662 35.2045 86.846C32.9745 85.78 31.1345 84.046 30.1425 81.76C29.6945 80.724 29.2864 79.204 30.0364 78.202C30.5264 77.552 32.1845 77.402 32.2145 78.496L33.3804 78.012C32.3804 77.18 31.2984 76.296 30.7064 75.108C30.1144 73.92 30.3064 72.346 31.6244 71.75C32.8104 71.216 33.5064 72.642 34.1624 73.374C34.7744 74.052 35.4784 74.438 36.4004 74.228C37.2324 74.04 36.9345 72.95 36.2145 72.86C34.0865 72.592 32.4885 70.568 32.8505 68.432C33.0264 67.39 33.6364 66.35 34.5564 65.8C35.8764 65.01 36.7284 66.4 37.6445 67.158C40.8793 69.8687 44.9542 71.3735 49.1744 71.416C49.8524 71.416 50.2044 70.386 49.5385 70.076L45.6004 68.236L45.8624 69.236C46.7304 67.338 47.8484 66.036 50.0324 65.798C51.8524 65.598 53.5545 66.268 54.8785 67.506C57.7205 70.164 58.9064 74.414 59.1604 78.176C59.3604 80.976 59.1084 83.776 59.0044 86.558C58.9074 89.3433 58.9815 92.1319 59.2264 94.908C59.6945 100.32 60.7104 105.684 62.4624 110.83C64.3444 116.36 66.8824 121.83 66.8484 127.778C66.8484 128.59 68.0984 128.59 68.1124 127.778C68.2044 122.158 66.0844 116.978 64.2384 111.778C62.212 106.098 60.9849 100.164 60.5924 94.146C60.4161 91.1095 60.4068 88.0656 60.5644 85.028C60.7045 82.042 60.8685 79.048 60.4264 76.078C59.8724 72.358 58.3124 68.246 55.2484 65.878C54.4185 65.2287 53.4604 64.7627 52.4372 64.5107C51.414 64.2587 50.349 64.2264 49.3124 64.416C46.9544 64.83 45.5624 66.392 44.6064 68.496C44.4564 68.828 44.4824 69.312 44.8684 69.496L48.8184 71.328L49.1804 69.986C46.2668 69.9681 43.4079 69.1927 40.8844 67.736C39.6084 66.998 38.5364 66.078 37.4564 65.09C36.5224 64.236 35.5144 63.866 34.3004 64.394C32.1684 65.318 31.0684 67.95 31.5304 70.158C32.0024 72.426 33.9945 73.98 36.2205 74.264L36.0364 72.896C35.4364 73.03 34.9524 72.144 34.6364 71.75C34.2364 71.244 33.7965 70.74 33.1985 70.454C31.9865 69.872 30.6405 70.488 29.8385 71.454C27.5305 74.242 30.2644 77.216 32.4244 78.986C32.8524 79.336 33.6084 79.142 33.5904 78.504C33.5424 76.918 31.8865 76.158 30.4705 76.492C28.5285 76.95 28.1305 79.16 28.4705 80.85C28.8945 82.94 30.2705 84.93 31.8705 86.304C33.4705 87.678 35.4284 88.304 37.2584 89.324C38.1344 89.81 38.9524 90.414 39.3724 91.352C39.9625 92.674 39.6965 94.298 39.6265 95.702C39.4771 98.6193 39.3438 101.539 39.2265 104.46C38.9825 110.272 38.7444 116.085 38.5124 121.9C38.1124 132.486 37.7925 143.64 41.7925 153.662C44.8965 161.44 50.6164 168.58 58.6104 171.642C69.8004 175.928 81.4004 170.326 90.8984 164.6C90.9749 164.547 91.0285 164.467 91.0484 164.375C91.0683 164.284 91.0532 164.189 91.0059 164.109C90.9587 164.029 90.8828 163.969 90.7936 163.942C90.7043 163.915 90.6082 163.923 90.5244 163.964V163.966Z" fill="black"/>
<path d="M100.24 61.4217C100.168 61.5237 100.344 61.3178 100.36 61.2938C100.408 61.2198 100.438 61.1297 100.48 61.0537C100.561 60.9069 100.662 60.7722 100.78 60.6537C100.997 60.4303 101.285 60.2889 101.594 60.2537C102.464 60.1777 102.292 58.8798 101.434 59.0698C100.496 59.2698 99.3242 60.3018 99.6462 61.3518C99.6641 61.4135 99.6996 61.4686 99.7483 61.5105C99.7971 61.5523 99.857 61.579 99.9207 61.5873C99.9844 61.5956 100.049 61.5851 100.107 61.5571C100.165 61.5291 100.213 61.4848 100.246 61.4297L100.24 61.4217Z" fill="black"/>
<path d="M12.0495 40.182C16.6467 40.9107 21.293 41.2851 25.9475 41.302C27.7895 41.302 29.9695 41.548 31.5815 40.476C32.9815 39.544 34.5115 37.676 34.8215 35.994C34.8545 35.8665 34.8405 35.7314 34.7821 35.6134C34.7236 35.4954 34.6247 35.4023 34.5032 35.3513C34.3818 35.3004 34.2461 35.2948 34.1209 35.3357C33.9957 35.3766 33.8895 35.4611 33.8215 35.574C32.7935 37.156 32.0355 39.008 30.0215 39.55C28.2575 40.02 26.1695 39.774 24.3655 39.8C20.2795 39.858 16.1995 39.848 12.1155 39.692C11.8395 39.68 11.7675 40.138 12.0495 40.182Z" fill="#58C995"/>
<path d="M41.0718 26.0736L40.8718 26.8476C40.7858 27.1796 41.3118 27.3216 41.3838 26.9896L41.5518 26.2056C41.6178 25.8936 41.1518 25.7596 41.0698 26.0736H41.0718Z" fill="#58C995"/>
<path d="M59.8842 32.6978C59.4282 31.2358 60.4402 30.0978 61.5022 29.2238C62.6242 28.3058 63.7882 27.4238 64.7022 26.2798C66.7302 23.7418 66.6662 20.3418 64.4022 17.9698C62.1782 15.6438 58.7582 15.2738 55.8022 16.2138C53.3422 16.9978 49.2442 19.1618 49.4122 22.2138C49.4762 23.3818 50.7982 24.3878 51.9022 23.6438C52.4176 23.286 52.8715 22.847 53.2462 22.3438C53.5194 22.0083 53.8286 21.7038 54.1682 21.4358C55.0677 20.751 56.1005 20.2618 57.2002 19.9998C58.9842 19.5698 61.1542 20.0358 61.7442 21.9158C62.3062 23.6998 59.9222 25.4898 58.9442 26.8478C57.6002 28.7238 56.7442 31.3418 58.1442 33.4238C58.7142 34.2678 60.2002 33.7718 59.8662 32.6978H59.8842Z" fill="#58C995"/>
<path d="M60.1699 36.0621C59.5339 35.6261 58.4599 35.6621 57.7859 36.0341C56.7759 36.5861 56.8279 37.8441 57.6119 38.5541C57.8906 38.7958 58.2192 38.9729 58.5743 39.0729C58.9294 39.1728 59.3021 39.193 59.6659 39.1321C60.4299 39.0301 61.3739 38.5081 61.5279 37.6861C61.5902 37.4473 61.5807 37.1955 61.5007 36.962C61.4207 36.7286 61.2737 36.5239 61.0781 36.3735C60.8825 36.2231 60.6468 36.1336 60.4007 36.1163C60.1545 36.099 59.9087 36.1546 59.6939 36.2761C59.5721 36.3464 59.4581 36.4296 59.3539 36.5241C59.2979 36.5801 59.2299 36.7461 59.2719 36.6401C59.3379 36.5941 59.3399 36.5901 59.2719 36.6401C59.2039 36.6901 59.2159 36.6761 59.2899 36.6401L59.1539 36.6781C59.2399 36.6421 59.3539 36.6621 59.1859 36.6661C59.0179 36.6701 59.1239 36.6441 59.2159 36.6781C58.9939 36.6001 59.3079 36.7581 59.1839 36.6781C59.1259 36.6421 59.1259 36.6441 59.1839 36.6781C59.2657 36.7395 59.3319 36.8193 59.3771 36.911C59.4223 37.0028 59.4452 37.1039 59.4439 37.2061L59.2799 37.8181C59.2499 37.8861 59.0399 37.9301 59.2079 37.8961C59.1479 37.9081 59.5939 37.7361 59.4219 37.7981C59.6778 37.7192 59.925 37.6147 60.1599 37.4861C60.282 37.4117 60.3829 37.3071 60.4529 37.1824C60.5229 37.0577 60.5596 36.9171 60.5596 36.7741C60.5596 36.6311 60.5229 36.4905 60.4529 36.3659C60.3829 36.2412 60.282 36.1366 60.1599 36.0621H60.1699Z" fill="#58C995"/>
<path d="M90.314 99.9815C89.814 97.1595 88.972 94.3515 88.1 91.6255C87.2692 88.9481 86.2155 86.345 84.95 83.8435C82.59 79.2895 77.964 75.0855 78.106 69.6175H76.754C76.804 70.0355 76.536 70.2355 76.13 70.3115C75.614 70.4095 75.24 70.1615 74.956 69.7435C74.388 68.9035 74.41 67.6755 74.356 66.7035C74.246 64.7795 74.618 60.8295 77.522 61.3775C77.848 61.4395 78.298 61.2895 78.356 60.9035C78.636 59.0515 80.734 57.6815 82.528 58.4795C83.168 58.7655 83.996 57.9515 83.35 57.4135L79.134 53.8975C78.21 53.1275 76.374 51.9375 76.922 50.4975C77.408 49.2175 79.056 48.8295 80.246 49.1435C81.74 49.5435 82.924 50.7075 84.026 51.7235L87.942 55.3475C88.836 56.1755 89.714 57.2015 90.994 57.3575C91.728 57.4455 92.744 57.1435 93.394 57.6115C94.15 58.1555 93.874 59.7055 93.794 60.4495C93.698 61.3215 95.062 61.3155 95.158 60.4495C95.328 58.9155 95.358 56.8115 93.59 56.2075C92.59 55.8675 91.436 56.2875 90.518 55.7915C89.856 55.4335 89.318 54.7555 88.76 54.2495L86.73 52.3715C84.788 50.5715 82.624 47.9715 79.81 47.6815C77.794 47.4695 75.37 48.9295 75.476 51.1575C75.544 52.6035 76.69 53.6195 77.72 54.4815C79.2733 55.7815 80.83 57.0789 82.39 58.3735L83.214 57.3075C80.698 56.1895 77.474 57.7335 77.048 60.5435L77.882 60.0695C76.164 59.7455 74.564 60.6695 73.718 62.1675C72.706 63.9675 72.886 66.2815 73.128 68.2495C73.302 69.6495 73.886 71.3915 75.494 71.6495C76.738 71.8495 78.276 71.0335 78.106 69.6175C78.006 68.7735 76.778 68.7235 76.754 69.6175C76.612 75.0415 80.736 79.1955 83.316 83.5795C84.8046 86.1763 86.0384 88.911 87 91.7455C87.974 94.5215 88.664 97.3975 89.674 100.16C89.6857 100.202 89.7055 100.241 89.7324 100.275C89.7593 100.31 89.7926 100.338 89.8306 100.36C89.8686 100.381 89.9104 100.395 89.9537 100.4C89.997 100.406 90.0409 100.402 90.083 100.391C90.125 100.379 90.1643 100.359 90.1986 100.332C90.233 100.305 90.2617 100.272 90.2832 100.234C90.3046 100.196 90.3184 100.154 90.3237 100.111C90.329 100.067 90.3257 100.024 90.314 99.9815Z" fill="black"/>
<path d="M101.276 73.38C101.928 74.038 101.97 74.98 102.202 75.832C102.478 76.7608 102.854 77.6568 103.324 78.504C104.292 80.328 105.2 82.384 106.48 84.006C107.04 84.712 107.91 83.806 107.622 83.126C106.744 81.054 105.174 79.226 104.042 77.284C103.556 76.3879 103.141 75.455 102.8 74.494C102.585 73.8567 102.189 73.2958 101.66 72.88C101.368 72.658 101.028 73.13 101.276 73.38Z" fill="black"/>
<path d="M92.3679 59.7175C90.6219 59.4215 89.2099 60.5835 88.1179 61.8255C86.8859 63.2255 85.6819 65.0435 85.3619 66.9175C85.0979 68.4675 86.0279 69.7735 87.6299 69.8875C89.3899 70.0095 90.5719 68.6295 91.4739 67.3055L90.1459 66.5295C88.8419 68.6435 88.2939 71.2255 89.4219 73.5455C90.3059 75.3655 92.6979 77.2015 94.7459 76.1455C95.3459 75.8295 94.9279 74.8935 94.2859 75.0595C92.5459 75.5075 91.1659 73.6795 90.6859 72.2315C90.1439 70.5795 90.5859 68.7595 91.4679 67.3135C91.9859 66.4595 90.6879 65.7235 90.1399 66.5375C89.5919 67.3515 88.8459 68.4615 87.7399 68.3815C86.2099 68.2715 87.0239 66.4835 87.3719 65.6215C88.1199 63.7675 89.8719 60.3895 92.2399 60.5655C92.7139 60.5995 92.8399 59.8055 92.3539 59.7255L92.3679 59.7175Z" fill="black"/>
<path d="M77.518 71.0679C78.1339 69.1804 78.3384 67.183 78.118 65.2099C78.038 64.4679 76.932 64.4279 76.93 65.2099C76.93 66.7539 76.852 68.8719 77.83 70.1699C78.808 71.4679 80.174 71.1959 81.43 70.4959C82.792 69.7319 83.354 68.5439 83.476 67.0239C83.628 65.0999 83.45 63.1039 83.294 61.1839C83.218 60.2399 81.732 60.2339 81.812 61.1839C81.918 62.4439 81.992 63.7079 82.022 64.9719C82.044 66.0039 82.184 67.2299 81.746 68.1959C81.502 68.7339 81.066 69.0459 80.558 69.3179C79.738 69.7579 79.018 69.8099 78.616 68.7999C78.184 67.7099 78.168 66.3679 78.126 65.2099L76.96 65.3679C77.2176 67.1961 77.1608 69.0548 76.792 70.8639C76.7724 70.9596 76.79 71.0593 76.8412 71.1425C76.8925 71.2258 76.9736 71.2863 77.068 71.3118C77.1624 71.3373 77.2629 71.3259 77.3491 71.2798C77.4354 71.2337 77.5008 71.1565 77.532 71.0639L77.518 71.0679Z" fill="black"/>
<path d="M103.136 93.7816C109.31 97.6696 113.052 104.248 114.936 111.148C115.966 114.906 116.492 118.784 116.796 122.662C117.066 126.114 117.16 129.6 116.77 133.046C116.318 137.046 115.17 140.944 112.916 144.306C112.81 144.466 113.066 144.614 113.174 144.456C117.252 138.43 117.7 130.89 117.224 123.842C116.708 116.194 115.358 108.314 111.204 101.728C109.158 98.4836 106.482 95.6636 103.216 93.6376C103.197 93.6296 103.176 93.6287 103.156 93.6351C103.137 93.6415 103.12 93.6548 103.11 93.6725C103.1 93.6902 103.096 93.7111 103.1 93.7312C103.104 93.7512 103.115 93.7692 103.132 93.7816H103.136Z" fill="black"/>
<path d="M107.228 143.834C107.249 143.834 107.269 143.826 107.284 143.811C107.298 143.796 107.306 143.776 107.306 143.756C107.306 143.735 107.298 143.715 107.284 143.701C107.269 143.686 107.249 143.678 107.228 143.678C107.208 143.678 107.188 143.686 107.173 143.701C107.159 143.715 107.15 143.735 107.15 143.756C107.15 143.776 107.159 143.796 107.173 143.811C107.188 143.826 107.208 143.834 107.228 143.834Z" fill="black"/>
<path d="M63.5844 140.184C65.4504 139.714 67.0204 138.646 68.4784 137.426C70.0784 136.084 71.6204 134.654 73.1664 133.248C76.2784 130.416 79.3304 127.502 82.0924 124.324C84.8034 121.23 87.1464 117.833 89.0744 114.2C90.0544 112.336 91.0644 110.51 92.8424 109.292C93.5924 108.78 94.4104 108.366 95.0904 107.756C95.8084 107.114 96.3364 106.304 96.8524 105.5C99.4524 101.474 103.416 98.7656 108.272 98.4256C108.444 98.4136 108.444 98.1456 108.272 98.1576C104.638 98.4111 101.227 100.003 98.6984 102.626C97.3564 104.026 96.5804 105.852 95.2464 107.246C93.9124 108.64 92.0464 109.28 90.8144 110.846C89.5564 112.446 88.7664 114.356 87.7544 116.106C86.6252 118.048 85.3614 119.908 83.9724 121.674C81.3504 125.032 78.3724 128.086 75.2724 131.006C73.5324 132.648 71.7544 134.25 69.9724 135.846C68.0504 137.568 66.1044 139.362 63.5404 140.024C63.5187 140.029 63.5002 140.044 63.4889 140.063C63.4776 140.083 63.4746 140.106 63.4804 140.128C63.4863 140.149 63.5005 140.168 63.52 140.179C63.5395 140.19 63.5627 140.193 63.5844 140.188V140.184Z" fill="black"/>
<path d="M69.6002 148.702C72.0382 145.562 76.0482 144.032 79.1082 141.586C82.2062 139.108 84.8742 136.142 87.3182 133.028C89.7182 129.98 91.9022 126.784 94.1502 123.628C95.3662 121.918 96.5502 120.08 97.9502 118.528C99.2062 117.15 101.058 116.988 102.424 115.82C103.132 115.22 103.224 114.434 103.642 113.656C104.206 112.614 105.32 111.736 106.212 110.976C108.118 109.362 110.252 108.04 112.544 107.052C112.704 106.982 112.566 106.748 112.408 106.818C110.459 107.649 108.624 108.724 106.946 110.018C105.648 111.018 103.946 112.272 103.27 113.818C102.802 114.894 102.482 115.598 101.394 116.17C100.594 116.59 99.7122 116.85 98.9422 117.33C97.4462 118.268 96.4342 120.01 95.4162 121.408C90.6062 128.008 86.2422 135.106 80.0162 140.504C78.2405 142.001 76.3478 143.354 74.3562 144.55C72.5382 145.68 70.7662 146.878 69.4582 148.602C69.4022 148.676 69.5302 148.776 69.5882 148.702H69.6002Z" fill="black"/>
<path d="M76.0582 156.902C79.0062 154.702 81.7002 152.194 84.4362 149.748C87.2182 147.26 89.9902 144.748 92.7022 142.186C95.4522 139.586 98.1442 136.912 100.726 134.136C101.973 132.795 103.191 131.427 104.38 130.034C105.474 128.752 106.664 127.464 107.594 126.056C108.178 125.174 108.018 124.146 108.508 123.256C108.966 122.42 109.822 121.856 110.556 121.276C112.334 119.888 114.122 118.51 115.882 117.1C116.006 117 115.838 116.78 115.71 116.878C114.264 117.978 112.838 119.106 111.404 120.222C110.28 121.098 108.688 121.996 108.112 123.374C107.754 124.232 107.854 125.084 107.334 125.904C106.814 126.724 106.092 127.504 105.462 128.28C104.262 129.747 103.028 131.181 101.76 132.584C96.8022 138.08 91.3882 143.144 85.9042 148.106C82.6582 151.044 79.4662 154.106 75.9562 156.728C75.8522 156.806 75.9562 156.982 76.0582 156.904V156.902Z" fill="black"/>
<path d="M85.7818 162.646C91.0644 159.255 95.9123 155.231 100.218 150.664C102.418 148.34 104.38 145.85 106.374 143.354C107.32 142.118 108.386 140.979 109.558 139.954C110.6 139.07 111.8 138.4 112.814 137.482C113.263 137.087 113.646 136.623 113.946 136.106C114.28 135.506 114.3 134.456 114.902 134.056C115.722 133.51 117.072 134.152 117.576 133.072C117.654 132.908 117.42 132.762 117.33 132.928C116.81 133.872 115.33 133.272 114.564 133.914C114.266 134.162 114.178 134.498 114.08 134.86C113.907 135.574 113.564 136.235 113.08 136.788C112.182 137.788 110.982 138.472 109.92 139.286C108.779 140.188 107.743 141.216 106.832 142.35C104.866 144.716 103.054 147.188 100.982 149.47C98.9164 151.745 96.7185 153.896 94.3998 155.912C91.6457 158.301 88.7367 160.506 85.6918 162.512C85.6038 162.572 85.6918 162.712 85.7758 162.656L85.7818 162.646Z" fill="black"/>
<path d="M142.336 87.5499C148.83 93.9599 150.546 103.35 152.022 111.976C153.889 122.909 155.756 133.848 157.622 144.792L158.354 149.09C158.586 150.45 158.682 151.938 159.174 153.232C159.634 154.432 160.76 156.14 162.23 155.3C162.243 155.292 162.255 155.282 162.264 155.27C162.273 155.258 162.28 155.244 162.284 155.229C162.288 155.214 162.288 155.199 162.286 155.184C162.284 155.169 162.279 155.154 162.271 155.141C162.264 155.128 162.253 155.116 162.241 155.107C162.229 155.098 162.215 155.091 162.2 155.087C162.185 155.084 162.17 155.083 162.155 155.085C162.14 155.087 162.125 155.092 162.112 155.1C160.79 155.852 159.8 154.216 159.404 153.17C159.008 152.124 158.912 150.918 158.722 149.808C158.278 147.203 157.832 144.598 157.384 141.994L154.708 126.37C153.832 121.244 152.966 116.118 152.074 110.994C151.356 106.858 150.556 102.708 149.192 98.7279C147.752 94.5279 145.638 90.5699 142.45 87.4379C142.435 87.4263 142.416 87.4207 142.397 87.4221C142.377 87.4234 142.359 87.4317 142.346 87.4453C142.332 87.4589 142.324 87.477 142.322 87.4962C142.321 87.5154 142.327 87.5345 142.338 87.5499H142.336Z" fill="black"/>
<path d="M160.486 158.768C160.508 158.765 160.528 158.754 160.543 158.736C160.558 158.719 160.566 158.698 160.566 158.675C160.566 158.652 160.558 158.631 160.543 158.614C160.528 158.597 160.508 158.585 160.486 158.582C160.463 158.585 160.443 158.597 160.428 158.614C160.413 158.631 160.405 158.652 160.405 158.675C160.405 158.698 160.413 158.719 160.428 158.736C160.443 158.754 160.463 158.765 160.486 158.768Z" fill="black"/>
</svg>
